<svg xmlns="http://www.w3.org/2000/svg" viewBox="0 0 482.42 518.38"><defs><style>.cls-1{fill:#11100f;}.cls-2{fill:#e8dcc2;}.cls-3{fill:#e2d6bd;}.cls-4{fill:#e3c7b4;}.cls-5{fill:#131212;}.cls-6{fill:#dfc4b1;}.cls-7{fill:#bcbbb8;}.cls-8{fill:#e1c4b2;}.cls-9{fill:#c6c5c3;}.cls-10{fill:#ded3bb;}.cls-11{fill:#f6f1e9;}.cls-12{fill:#f4eee4;}.cls-13{fill:#f6f2ea;}.cls-14{fill:#c1aea2;}.cls-15{fill:#c3c2c1;}.cls-16{fill:#b0a39a;}.cls-17{fill:#f7f3ec;}.cls-18{fill:#bbaba0;}.cls-19{fill:#e6dac0;}.cls-20{fill:#f4eee2;}.cls-21{fill:#fefefe;}.cls-22{fill:#dabfac;}.cls-23{fill:#e8e1d1;}.cls-24{fill:#a79e8b;}.cls-25{fill:#f1eadc;}.cls-26{fill:#efe8d8;}</style></defs><g id="Calque_2" data-name="Calque 2"><g id="Calque_1-2" data-name="Calque 1"><path class="cls-1" d="M230.84,398.32c-2.63,2.36-5,5.07-7.94,7-5.25,3.47-10.86,6.38-16.22,9.68-3.29,2-6.73.78-10.06.71-4.2-.09-8.37-1.08-12.58-1.31a97.42,97.42,0,0,0-12.9,0,16.44,16.44,0,0,0-12.89,7.63c-2.33,3.37-6.27,4.54-10.27,4.79-.88.06-1.83-.93-2.75-1.44l-5-7a16.56,16.56,0,0,1,2.4-3.45c1.06-.92,2.66-2.05,3.82-1.86,6.77,1.12,10.84-3,15-7.16,1.34-1.34,2.58-2.78,3.94-4.09a2.11,2.11,0,0,1,1.49-.5,9.62,9.62,0,0,1,3.41.57c5.65,2.69,10.48,1.05,14.8-2.79,3-2.71,6.27-2.69,9.69-1.16a26.77,26.77,0,0,1,3.51,2.28c1-5.49,2-10.68,3-16l-9.44,4.37-7.57-.05-7.71-1a13.63,13.63,0,0,0-2.64-.55c-5.71-.07-11.42,0-17.13-.13-5.07-.13-9.81,1.26-14.43,3-3.4,1.29-5.13.81-6.61-2.44.19-3,.81-5.79,3-8.15,2.41-2.63,5.61-3.95,7.7-2.47-1,.21-1.77.36-2.55.54-3.25.78-6.49,4.59-6.44,7.59-.6,1.45-.93,3,.44,4.09,1.22,1,2.55.27,4-.19,4.24-1.37,8.58-3.07,12.93-3.23,8-.29,16.06.41,24.09.76,1.81.08,3.62.42,5.42.64,2.62,0,5.59.87,7.78-.09,7.2-3.15,14.14-6.91,21.13-10.53,9-4.69,18.09-9.39,27-14.29,2.11-1.16,5.29-.58,6.28-3.65l15.74-17.2c-7.33,1.13-13.88,2.15-20.43,3.14s-12.93,2.23-19.45,2.8c-7.22.63-14.41,1.18-21.2,3.92-4.22,1.71-8.32,3.73-12.54,5.43a61.32,61.32,0,0,1-6.33,1.84l-5.49,0-1,.16-2.06.25c-3.53.47-7.16.55-10.56,1.49-10,2.74-19.11,7.23-26.74,14.35-4.31,4-8.2,8.51-12.57,12.45-8.21,7.4-16.61,14.58-25,21.79a85.62,85.62,0,0,1-9,7.11c-7.65,5-15.45,9.72-23.22,14.5-6.3,3.87-12.56,7.85-20.36,7.86-6.25-.55-12.49-1.22-18.75-1.61-7.06-.44-13.64,1-19.24,5.66-.41.68-.83,1.36-1.24,2.05-1.26,2.16-1.09,2.5,1.28,3.13a42.4,42.4,0,0,1,5.67,1.78,33.26,33.26,0,0,0,13,2.58c4.44,1.06,8.73.26,13-1a18.15,18.15,0,0,0,2.22-.23A130.44,130.44,0,0,0,69.92,441c8.09-4,15.94-8.5,23.76-13,6.48-3.72,12.77-7.76,19.14-11.66l.62-.39-.08.08,1-.6,0,0L115,415l0,.07,1.46-1.1-.05,0,.63-.5,0,.07,7-4.53,0,0,.94-.65h0l.61-.48-.07.08.64-.5-.06.09.85-.73h0l.58-.46c3.6-2.35,7.11-4.83,10.8-7,3.09-1.84,6.39-3.33,9.59-5-3.16,2.36-6.22,4.87-9.49,7.06-10.56,7-21,14.28-31.85,20.86-11.53,7-23.25,13.77-35.3,19.84a116.37,116.37,0,0,1-36.29,11.6,32.19,32.19,0,0,1-4.6,0l-1.6,2.92-.55-.21.16-2.51-4.88-.73-1.33,3.2-.55-.15v-3.19l-4.45-1.24c-1,1.52-1.9,2.85-2.79,4.17l-.79-.41,1.83-4.33-8.62-2.91L5,447.83c.13-1.06.26-2.12.38-3.18l-.49-1.11,2.71-2.82-6.22-2c2.6-1.95,4.71-.25,6.94.13,2.24,2,3.13-.84,5.21-1L5,433.68c-.4-1.93,1-1.46,1.81-1.16A17.62,17.62,0,0,1,11.68,435c2.35,1.92,4.49,2,7,0l-5.45-6,.43-.6c.48.09,1.09,0,1.43.3,1.36,1.09,3.13,2,3.84,3.48,1.73,3.51,4.4,3.2,7.69,2.46-.81-1.14-1.64-2.15-2.27-3.26a8.52,8.52,0,0,1-.57-2.18A7.19,7.19,0,0,1,26,430a8,8,0,0,1,1.56,2.23c1.9,3.29,1.89,3.3,6.1,2.84q-.69-2.78-1.39-5.53l.87-.29c1.6,1,2.08,2.8,2.24,4.5.25,2.62,2.32,2.08,3.72,2.27,1.81.25,1.3-1.49,1.48-2.52.15-.87.17-1.76.25-2.69,1.83.58,1.83.58,1.88,5.3a1.38,1.38,0,0,0,.45.17h2.89c.24-1.3.48-2.64.78-4.29,2.59.79,1,2.89,1.85,4.6,3.18-1.25,6.56-2.18,9.54-3.82,8.56-4.73,16.93-9.78,25.41-14.65S98.8,406.29,106,399.94q8.43-7.4,16.74-14.91c.91-.82,1.5-2,2.39-2.84,4-3.81,8-7.57,12.13-11.4-.52-1.16-1.09-2.45-1.66-3.74l.66-.41,2.56,3.18,2.42-1.51-2.29-4,.73-.5,3.1,3.39,4-2.43-3.05-4.89.86-.58,3.62,4.54,2.57-1.19c-1.17-1.94-2.26-3.75-3.36-5.55l.56-.53c2.69.45,2.68,3.65,4.65,5.36L155,361l-2.89-5.86.78-.46,3.51,5.72,3.48-1.15c-.94-2.26-1.85-4.42-2.76-6.58l.84-.43,3.6,6.33,3.19-.52-2.73-6.83,1-.5c1.19,2.31,2.37,4.62,3.72,7.23l3.3-.26c-.73-2.66-1.41-5.13-2.08-7.59l.87-.34c2.17,1.83,1.81,5,3.26,7.37l2.47-.4c-.67-2.43-1.33-4.8-2.17-7.78l3.29,1.58c.17-4.55,1-8.92.33-13-1.71-9.71-4.12-19.29-6.36-28.9a15.34,15.34,0,0,0-2-4.51c-2.53-4.1-4.73-8.54-7.92-12.07a105.66,105.66,0,0,0-13.6-12.36c-5.38-4.21-11.62-7-18.06-9.33a44,44,0,0,0-8.82-2.52,14.15,14.15,0,0,0-6.27,1c-7,2.46-13.84,5.08-20.72,7.74-3.08,1.19-6.07,2.61-9.12,3.89a5.89,5.89,0,0,1-1.53.19c0-.52-.21-1.14,0-1.55,2.31-4.69,4.34-9.55,7.11-14a55.69,55.69,0,0,0,8-23.38,125.65,125.65,0,0,0,1.11-19.37c-.59-16.76-5.81-32.25-14-46.81-4.26-7.57-8.94-14.85-15.58-20.59-8.27-7.15-17-13.74-28-16-4.51-.93-9.19-1-13.8-1.49a55.38,55.38,0,0,1-5.93-.59c-.68-.14-1.23-1.24-1.62-2a2.52,2.52,0,0,1,1.42-1.2c7-.64,14-1.18,21.07-1.75,1.82-.15,3.64-.33,5.46-.5a16.85,16.85,0,0,0,1.73.16c8.4.09,16.24-2.44,23.7-5.87A196,196,0,0,0,106,106.34c4.55-3.3,9-6.78,13.44-10.18,4.84-2.7,8.12-7,11.39-11.28.92-1.2,1.07-3.1,1.27-4.72,1.4-11,2.73-21.93,4.07-32.91.71-5.77,1.34-11.55,2.12-17.32a2,2,0,0,0-1.32-2.5A20.21,20.21,0,0,1,133,25.09a4.16,4.16,0,0,1-1.36-2.39c-.07-.41.85-1.11,1.44-1.48,2.9-1.81,5.44-.06,8,1,4.51,1.85,9,3.77,13.38,5.87a56.61,56.61,0,0,1,6.54,4c5.32,3.49,10.51,7.21,16,10.49,4.6,2.77,9.59,4.89,14.24,7.6a42.75,42.75,0,0,1,8.62,6.25c2.3,2.29,3.75,5.41,5.74,8Q211,71.81,216.78,79c2.63,3.3,5.39,6.5,8.05,9.78q4.46,5.51,8.83,11.09a19.39,19.39,0,0,1,2,3.15c4,8,8.14,15.94,12,24,3,6.26,5.61,12.68,8.31,19.07q5.25,12.5,10.34,25.05c3.63,9,7.08,18.06,10.71,27.06,3.81,9.44,7.81,18.81,11.6,28.26,2,5.07,3.86,10.23,5.59,15.41.29.87-.35,2.09-.67,3.12a34.19,34.19,0,0,1-1.3,3.41c-2.28,5.19-3.5,10.74-6.27,15.82A39.84,39.84,0,0,0,282,277c-1.77,11.19-3.71,22.4-3.38,33.8.05,1.82.38,3.63.55,5.44.27,2.88,2.83,3.8,7.59,4.8,4.18.89,8.4,1.67,12.56,2.63.55.13.9,1.1,1.34,1.68a6,6,0,0,1-2,.36c-4.93-.92-9.85-1.92-14.77-2.9l-5.06-2.38a17.7,17.7,0,0,1-1.66-4.07c-1.28-8.91-.45-17.76.88-26.61.78-5.18,1.2-10.41,1.78-15.62l-.09,0,.73-.57c.24-.61.48-1.21.7-1.82,1.34-3.87,2.67-7.74,4-11.61,1-2.87,2-5.72,3-8.59l.48-1.5c.68-1.83,1.35-3.67,2-5.5a2.68,2.68,0,0,0,.63-3.31c-3.71-9.56-7.16-19.23-10.95-28.76-3.51-8.84-7.39-17.53-11-26.33-1.66-4.05-3.09-8.2-4.62-12.31l.06-.13-.11-.1c-.15-.43-.3-.86-.46-1.29l.05-.14-.13-.08-.36-.65.12.08-2-4.57.07-.08-5.78-14.07,0-.17-.48-1.2c-2.35-5.61-4.52-11.31-7.08-16.83-3.29-7-6.88-14-10.34-20.94-2-4.08-3.51-8.54-6.17-12.15-5.43-7.4-11.61-14.25-17.26-21.49-5.33-6.85-10.38-13.91-15.56-20.88l-6-5.13,0,.1-.62-.54a74.14,74.14,0,0,0-7.33-4.6c-9.15-4.37-17.5-10-25.86-15.68a47,47,0,0,0-5.17-3.45c-4.82-2.35-9.74-4.5-14.62-6.74-2-.89-3.89-1.63-6.06.7,1.62.79,3.12,1.54,4.64,2.22.32.15.81,0,1.11.12,5.33,2.8,10.67,5.6,16,8.47,4.66,2.52,9.34,5,13.91,7.71,4.14,2.44,8.15,5.1,12.21,7.67,1.82,1.14,4,2,5.4,3.5,5.85,6.21,11.63,12.51,17.15,19,3.27,3.84,6,8.15,9,12.22,2.63,3.54,5.33,7,8,10.55,1,1.32,1.86,2.75,2.84,4.09,2,2.73,4.11,5.36,6,8.17a53.78,53.78,0,0,1,3,5.73c5.06,10.08,10.38,20,15.07,30.27,4.39,9.58,8.21,19.42,12.07,29.22,2.77,7,4.93,14.29,7.82,21.26,4.58,11,9.49,21.94,14.37,32.85,1.79,4,3.91,7.85,5.87,11.76h0l.19.44.44,1,.29.84.22.67c-.25.87-.49,1.74-.73,2.6l-.71,0L281.19,231c-3.15-7.64-5.84-15.52-9.57-22.88-7.07-14-11.25-29-17.45-43.32-2.64-6.07-5.14-12.21-7.7-18.32-1.12-2.86-2-5.83-3.39-8.55-4.86-9.44-9.77-18.86-14.91-28.15-1.78-3.21-4.29-6-6.47-9-.59-.8-1.23-1.57-1.79-2.39-1.62-2.41-3.14-4.89-4.84-7.24-4.76-6.6-9.58-13.15-14.39-19.7-.48-.66-1.06-1.25-1.6-1.87a60.74,60.74,0,0,1-5.59-6c-5.4-7.58-13-12.22-21.17-16l.08,0c-2.41-2-4.61-4.29-7.27-5.78-6.79-3.82-13.78-7.25-20.69-10.84l-4-1.94L139.13,38l-.84,12.57a3.35,3.35,0,0,0-.43.87c-.84,7.27-1.59,14.54-2.53,21.79-.49,3.74-.67,7.74-2.19,11.07A28.94,28.94,0,0,1,126,93.5a182.22,182.22,0,0,1-16.21,12.66c-6.55,4.59-13.39,8.75-20.1,13.1-1.64.79-3.34,1.45-4.9,2.38a89.23,89.23,0,0,1-25.5,10.64c-4,.42-7.88.94-11.84,1.25-8.58.68-17.17,1.25-25.76,1.86a14.27,14.27,0,0,0,3.63.2,50.36,50.36,0,0,1,23.51,4.29c4.5,1.94,8.61,4.79,12.9,7.23L64,148.64c1.87,1.64,3.81,3.21,5.61,4.92,9.8,9.33,16.64,20.63,21.82,33a112,112,0,0,1,8.11,30.7,93.8,93.8,0,0,1-.88,25.32c-1.47,9.29-4.28,18-9.7,25.86-1.77,2.55-2.72,5.67-4,8.53l.48.41,23.91-9.53c4.8-1.13,9.54-3.05,14.55-1,6.84,2.27,13.64,4.56,19.7,8.66,6.85,4.65,13.62,9.34,18.79,15.94l8.53,14c4.2,14,8.45,28.06,6.84,43-.46,1.06-.65,2.38-1.42,3.12-1.59,1.54-.21,2.8.23,4,.18.49,1.62.58,2.51.72a36.61,36.61,0,0,0,3.9.43,4.67,4.67,0,0,0,2.12-.22c3.1-1.39,6.16-2.88,9.22-4.35a60.28,60.28,0,0,1,23.34-6.27c3.72-.19,7.46-.4,11.14-.94,8.67-1.27,17.33-2.69,26-4.16,3.25-.56,7-.07,9.08-3.59l2.9-2.38-2.94-4.9-1.3-1.72c-3.44-5.15-6.91-10.28-10.3-15.45-2.85-4.35-5.7-8.7-8.37-13.16-2.2-3.67-2.45-7.31.79-10.74,2-2.08,3.65-4.41,5.45-6.64,3.34-4.13,6.69-8.27,10-12.42q6.9-8.64,13.78-17.31l3.94-4.23c-2.88.34-5.13.78-7.39.83-7.87.17-15.73.22-23.6.28-12.72.11-25.45.09-38.18.3-10.64.19-21.33,0-31.89,1.12-13.61,1.42-26.88,4.9-39.87,9.3l-4.3.88a35.56,35.56,0,0,1,7.09-2.86c2.42-.8,4.81-1.69,7.21-2.54.4-.09.82-.16,1.21-.28A159.88,159.88,0,0,1,194,248c12.95-.07,25.9,0,38.85-.11,9.12-.07,18.23-.31,27.35-.48l14.53-.41,6.06-.74a7.77,7.77,0,0,1-.89,1.67c-1.43,1.82-3,3.54-4.41,5.36-3.8,4.82-7.49,9.74-11.35,14.51-5.53,6.84-11.24,13.55-16.78,20.4-4.24,5.25-4.28,5.6-.74,11.41,3.23,5.29,6.8,10.38,10.07,15.65,3.67,5.91,7.14,11.94,10.81,17.85.34.54,1.45.61,2.21.89a33.43,33.43,0,0,0-3.4,3.55,187.92,187.92,0,0,1-20,23.48,4.34,4.34,0,0,0-1.1,2.83c.08,5.2.14,10.42.61,15.6.28,3.21-1.15,5.25-3.47,6.88-1.88,1.32-4,2.33-6,3.5-.85.49-1.67,1.06-2.25,1.43l3.59,1.34-2.63,3.12-.15.19-2.49.11-.21-.58c.32-.57.64-1.14,1-1.7-1.84-.75-.36-2-.47-3,.87-.58,1.72-1.2,2.6-1.75,2.49-1.57,5-3.13,7.49-4.65,1.56-.94,1.9-2.23,1.78-4-.4-5.92-.62-11.86-.91-18L203,383.21l-.06.6L218.26,386l1.57.26,1.41.07,2.54-.25,2.45-.28,3.06-.25,2.08.91c-9.43,2.4-18.74.91-28.65-1.15-.52,2.94-.9,5.75-1.53,8.51s-.49,5.91-2.48,8.34a6.52,6.52,0,0,1-.9-.43c-6.18-4.34-7.4-4.26-13.6-.12-3.06,2-6.16,4.41-10.32,2.8-1.77-.69-3.67-1.05-5.46-1.7-1.32-.48-1.83-.08-2.75,1-4.34,5.3-8.56,10.95-16.39,11.22a8.25,8.25,0,0,1-1.94-.26c-2.42-.91-3.32.95-4.66,2.28s-.45,2.43.22,3.5c3.23,5.16,8.14,6.14,12,2.45a7.54,7.54,0,0,0,1.41-1.06c3-3.67,5.9-7.5,10.9-8.33,4-.66,8.06-.77,12.09-1.13.82.13,1.63.28,2.45.38,5.16.62,10.32,1.27,15.48,1.84,3.12.35,6.15.61,9.16-1.05,7.76-4.27,15.52-8.52,22.33-14.28A8.1,8.1,0,0,1,230.84,398.32Z"/><path class="cls-2" d="M465.3,237.82a38.16,38.16,0,0,1,6.83,1.48c9,3.52,11.42,8.41,9.84,17.14-1.2,6.61-4.55,11.81-8.75,17a80.54,80.54,0,0,1-16.82,15,28.75,28.75,0,0,1-11.93,4.77,103.36,103.36,0,0,0-23.63,7.44c-2.41,1-4.93,2.27-7.39-.09s-2.32-5.66.57-7.41a35.53,35.53,0,0,0,14.3-15.17c1.34-2.81,1.89-6,2.87-9,2.46-7.47,5.54-14.81,10.72-20.67C447.67,241.76,455.38,238.2,465.3,237.82Z"/><path class="cls-3" d="M278.87,320.41l5.06,2.38-.76,1.77-1.45-.77,1.11,5a11.31,11.31,0,0,0-3.39.38c-3.28,1.48-6.47,3.17-9.7,4.78-.76-.28-1.87-.35-2.21-.89-3.67-5.91-7.14-11.94-10.81-17.85-3.27-5.27-6.84-10.36-10.07-15.65-3.54-5.81-3.5-6.16.74-11.41,5.54-6.85,11.25-13.56,16.78-20.4,3.86-4.77,7.55-9.69,11.35-14.51,1.43-1.82,3-3.54,4.41-5.36a7.77,7.77,0,0,0,.89-1.67l-6.06.74c.17-1.08.35-2.15.52-3.22h4.47c-2.52-2.83-5.4-5-8-7.44-5.37-4.95-10.47-10.2-15.93-15-5-4.41-10.13-8.63-15.45-12.6-7.18-5.36-14.57-10.45-21.91-15.59-7-4.9-13.89-10.05-21.19-14.48a230.26,230.26,0,0,0-28.63-14.42c-22-9.48-45.34-14.26-68.33-20.33.11-3.29.38-3.52,3.45-2.71,1.74.45,3.47,1,5.2,1.47A39,39,0,0,0,113,144c8.88,2,17.85,3.58,26.65,5.85,5.92,1.52,11.55,4.08,17.4,5.89,12.22,3.78,23.46,9.62,34.37,16.11,6.48,3.86,12.64,8.24,19.08,12.17a380.4,380.4,0,0,1,38.94,27.31c10.12,8.08,19.89,16.61,29.8,25,1.24,1,2.42,2.17,3.63,3.27.24-.65.24-1.12,0-1.38-1.69-1.9-3.44-3.77-5.17-5.65l0-.6,3.42-.93,6.66,13.12.71,0c.24-.86.48-1.73.73-2.6.48,1,1,2,1.45,3-.67,1.83-1.34,3.67-2,5.5l.06,0c-.38-.15-1-.53-1.09-.44-6.53,7.6-13.17,15.12-19.46,22.91-4.88,6-9.35,12.44-13.92,18.73-.62.85-1.36,2.49-1,3,2.86,4.12,5.92,8.1,9,12,3.5,4.4,8.22,7.75,10.82,12.93.61,1.22,1.82,2.13,3.15,3.64v-1.88Z"/><path class="cls-4" d="M55.54,5.32c.84.67,1.84,1.11,2.28,1.87C64.51,18.76,71.21,30.31,77.72,42c3.72,6.67,7,13.56,10.72,20.26.84,1.53.87,2.84-.39,3.65a4.69,4.69,0,0,1-3.73.63,136.4,136.4,0,0,1-13.89-7C59.59,53.1,48.89,46.41,38.17,39.77a41.18,41.18,0,0,1-5-3.65c-3-2.61-3.41-5.65-.81-8.68C36,23.16,39.81,19,43.73,15c2.64-2.73,5.5-5.25,8.36-7.75A18.94,18.94,0,0,1,55.54,5.32Z"/><path class="cls-5" d="M282.83,328.81l-1.11-5,1.45.77c.43,1.24.87,2.48,1.31,3.76l3.55.5-.11-2.09.57-.26c.51.82.85,1.89,1.59,2.38a11.12,11.12,0,0,0,3.28.9v-2.92l.5-.37c1,1.93,1.33,4.82,4.67,3.59-.07-.89-.15-1.95-.25-3.22,2.32.6.82,4.95,4.5,3.75-.14-1.1-.3-2.29-.46-3.47l.62-.24c.32.76.63,1.52,1,2.28s.61,1.3.91,2l.74-.31-.89-4.73.9-.3c.38,1.09.71,2.2,1.14,3.26a8.58,8.58,0,0,0,1,1.81c.05.06.95-.27.95-.43a5.79,5.79,0,0,0-.24-2.24c-.44-1.17-1.09-2.27-1.65-3.4l.84-.51c.78,1.24,1.56,2.49,2.36,3.75,2.17-1.3,2.17-1.3-1.26-6.18,1.86-.29,2.31,0,4.44,3.3l2.39-2.75-3.87-2.72.71-.89,3.64,2.87,3.19-3-4.69-3.56.63-.76,4.59,3.7,2-1.23-4.11-5.13.82-.76,4.83,5.14,3.31-1.91-5.05-5.71c2.07-.17,2.07-.17,6.22,4.71l3.59-1.7L324.9,304c2.27-.73,3.44.3,7.67,6.9l3.07-1.54c-2.24-2.73-4.35-5.27-6.45-7.82,4.24.69,5.35,4.48,7.59,7.45l2.49-1.11-6.08-7.1c3.72.64,5.1,3.84,7.14,6.51l3.19-1.12L339.06,300c2.05-.61,2.36-.31,5.81,5.86l3.61-1.15-4.63-5.92c3.32.44,4.25,3.23,5.74,5.67l2.46-1c-1.06-1.7-2-3.26-3-4.82l.71-.56,3.8,4.9,2.27-.9c-.71-1.5-1.34-2.85-2.07-4.41,3.26-.46,2,4.87,5.63,3.48-1-2.91,1.21-3.57,3.21-3.62a127.72,127.72,0,0,1,14.38.25c3.86.33,7.56.76,11.52.08,2-.35,4.54,1.93,6.81,3.07.24.12.28.6.51.83,3.55,3.58,3.58,3.59,1.38,7.95a2.68,2.68,0,0,1-1.5,1.11c-8.83,2.87-16.61,7.83-24.58,12.4a4.39,4.39,0,0,1-2.76.73c-7.46-1.61-13.71,1.33-20.15,4.56a94.85,94.85,0,0,0-20.34,13.84c-1.95,1.71-4.14,3.16-6.22,4.73l.18.7c.76,0,1.53.05,2.29,0,7.69-.6,15.38-1.47,23.08-1.71,3.49-.11,7,.95,10.53,1.61,4.68.87,9.39,1.63,14,2.85,11.68,3.08,23.53,5.7,34.4,11.29a15.22,15.22,0,0,0,2.37.75l18.59,8,.1-.08-.1.07.6.34c6.78,3,13.38,6.17,18.25,12Q451.42,389.5,457,396c4.66,5.39,6.94,11.79,8.12,18.67.7,4,1.33,8.12,1.81,12.21.07.6-.83,1.31-1.28,2v.06c-.18-1.17-.36-2.33-.55-3.5a9.48,9.48,0,0,0,0-2.19c-.93-4.23-1.87-8.45-2.95-12.64-.21-.8-1-1.44-1.59-2.16l.58,0-.06-1,.05,0c-.58-1.56-.83-3.35-1.79-4.63q-6.86-9.15-14.06-18a29.13,29.13,0,0,0-6.29-6.3c-8.6-5.55-18.18-9.09-27.7-12.71-7.11-2.92-14.16-6-21.34-8.71a92,92,0,0,0-9.82-2.61l-15-3.39c-4-.87-8.05-1.83-12.11-2.57a34.39,34.39,0,0,0-7.87-.82c-7.52.42-15,1.12-22.55,1.79-1.46.13-2.32-.22-2.59-1.69l1.14,0-.07-.42-1,.41c-3.78,2.21-7.58,4.4-11.34,6.65-1,.6-1.95,1.37-2.92,2.06l.42.72c1.34-.28,2.67-.62,4-.82,8.43-1.26,16.86-2.56,25.31-3.67a85.11,85.11,0,0,1,8.61-.32c-.71.18-1.41.42-2.13.54q-11.11,1.94-22.22,3.84c-2.71.22-5.42.39-8.12.69-.53.06-1,.62-1.51,1h-4.89l-7.41,16.43a59.63,59.63,0,0,1-17,20.53,4.55,4.55,0,0,0-1.05,1.59c-3.14,6.37-5.76,13.07-9.55,19-2.73,4.29-7,7.59-10.59,11.34-.71.33-1.43.63-2.13,1-2.74,1.44-5.42,3-8.24,4.31a3.43,3.43,0,0,1-4.57-1.44,18.71,18.71,0,0,1-2.45-6.05,3.8,3.8,0,0,1,3.09-4.66c3.52-.64,7.06-1.23,10.62-1.55,1.74-.15,2.48-.78,2.74-2.43.67-4.25,1.86-8.46,2-12.72.08-2.14-1.29-4.63-2.68-6.45s-3.73-3.15-5.9-4.9a41.68,41.68,0,0,0-1.49,4c-1.14,4.3-4.27,6.37-8.27,7.34a5.82,5.82,0,0,1-7.13-3.89l2.53-2.34,2,.18,0-1-2.36.3-4.88.37L232.5,396l2.49-.11a13.88,13.88,0,0,1,3.25-.23,14.86,14.86,0,0,1,3.13,1.26,16.51,16.51,0,0,1-1.93,2.82c-.4.4-1.33.26-2,.37.67.79,1.13,1.85,1.9,2.19,2.46,1.07,8.58-1.6,9.34-4.24,2-6.92,5.74-12.89,9.59-18.83a10.87,10.87,0,0,0,2-7.47,45.85,45.85,0,0,1,0-5.5c2,2.8,1.81,6,.92,8.93s-2.54,5.66-3.94,8.64a86.73,86.73,0,0,0,32.24-11.52c-.68-1.48-1.23-2.68-1.77-3.88.6.13,1.43.07,1.75.44a23.68,23.68,0,0,1,2,3.22,18.91,18.91,0,0,1-3.08,2.44c-3.77,1.92-7.54,3.87-11.46,5.42-4.26,1.68-8.3,3.41-10,8.16a81,81,0,0,0-3.11,9.16c-1.36,6.18-2.43,12.44-3.45,18.7-.4,2.43-1.4,3.84-4,4.15-3.29.41-6.54,1.18-9.83,1.54-2.6.28-3.11,1.8-2.9,3.93a12.53,12.53,0,0,0,.64,2.9c1,2.93,3.21,4,6,2.78,5.61-2.44,10.25-6.31,14.77-10.34a8.27,8.27,0,0,0,.81-.95,76.81,76.81,0,0,0,11.36-20.06,21.83,21.83,0,0,1,5.58-7.87,68.58,68.58,0,0,0,11.65-13.82c3.78-6.2,6.55-13,9.41-19.75a14.72,14.72,0,0,1,6.2-6.79c5.6-3.57,11.56-6.77,16.54-11.08,8.3-7.19,17.7-12.32,27.52-16.87,4.44-2.06,9.1-2.22,13.9-1.57a5.63,5.63,0,0,0,3.8-.77A71.31,71.31,0,0,1,394.15,310c2.38-.72,3.55-5.43,1.71-7a18.37,18.37,0,0,0-3-1.67c-2.3-2.65-4.9-2.47-7.93-1.25a6.61,6.61,0,0,1-4.84.16c-5.38-2.75-11-1.56-16.57-1.59-2.24,0-3.66.83-2.77,2.9-10.43,4.24-20.81,8.13-30.89,12.68-5.95,2.67-11.41,6.37-15.35,11.9-2.84,4-6.23,7.23-11.77,6.32L300,332.3l-1.77-.28-5-.57-.71,0-.75-.36-2.56-.51-1-.05-1.48-.11Zm-19.11,64.1.57-2.22,4-7.58-7,1.87c-1.9.33-4.29,0-5.58,1.12-3.39,2.79-3,5.37.66,7.87.74.51,1.51,1,2.26,1.45l3,4.67C262.31,397.64,263,395.27,263.72,392.91Z"/><path class="cls-2" d="M226.77,477.65c.94-5.18,1.9-10.35,2.8-15.53.19-1.14.08-2.32.24-3.47a17.1,17.1,0,0,1,.79-3.85c.68-1.81,2.14-3.08,4.07-2.3,1.73.69,3.31,2,3.09,4.31-.73,7.66,5.33,15.4,12.89,17.07a37.51,37.51,0,0,1,16.91,8.54c2.26,2,5.71,3.55,5.52,6.94-.25,4.17-2.48,7.81-5.17,11.08-4.49,5.46-10.4,6.21-16.7,4.71a63.69,63.69,0,0,1-13.35-4.47c-2.4-1.18-4.29-3.8-5.89-6.13C229.19,490.5,227.28,482.8,226.77,477.65Z"/><path class="cls-4" d="M88.34,9c0-1,0-2,0-3C88.45.87,91-.93,96,.44c3.91,1.07,7.88,1.92,11.79,3,3.33.87,6.65,1.79,9.92,2.86,1.83.6,2.55,1.95,1.84,3.95-4.31,12-8.55,24.1-12.9,36.11-1.5,4.14-3.22,8.19-5,12.24a6.92,6.92,0,0,1-1.87,2.29c-1.66,1.48-3.15,1.07-3.55-1.09-1-5.29-1.74-10.62-2.65-15.92-2-11.58-4-23.15-6-34.73Z"/><path class="cls-4" d="M30.32,67.18c11.14,1.54,22.29,3,33.42,4.66,5.48.8,10.93,1.78,16.38,2.78.78.14,1.87.72,2.06,1.32a3.32,3.32,0,0,1-.48,2.72,14.71,14.71,0,0,1-3.64,2.92c-5.2,3-9.85,7-15.94,8.54-7.38,1.83-14.68,4-22,6.15-2.46.72-4.75,2-7.17,2.83a3.85,3.85,0,0,1-5.21-3,9.83,9.83,0,0,1-.41-2.19c-.07-7.29-.09-14.59-.14-21.88a6.48,6.48,0,0,0-.14-1C26.68,68.17,27.28,67.51,30.32,67.18Z"/><path class="cls-1" d="M465.68,428.84l.65,3.27c-6.53-4.59-13.61-6.79-20.65-9.11-8.64-2.85-17.56-4.05-26.57-4.94-4.45-.44-8.63.57-12.7,1.95a80.8,80.8,0,0,0-29.26,17.42,32.59,32.59,0,0,0-4.83,5.94c-3.39,5.14-6.57,10.41-9.89,15.6a21.78,21.78,0,0,1-2.19,2.43c-.25-.59-.5-.88-.46-1.14a24.45,24.45,0,0,0-8.73-22.85c-3.35-2.85-8.28-4.11-12.7-5.39a86.33,86.33,0,0,0-28.34-3.5c-10.16.5-20.38,1.26-29.95,5.35-5.39,2.31-10.81,4.57-16.15,7s-10.58,5.06-16.41,7.86c.33-.77.44-1.59.9-2,2.8-2.36,5.55-4.7,6.1-8.67.08-.55.86-1,1.19-1.54a42.89,42.89,0,0,0,2-3.85c.73-1.6,1.34-3.25,2-4.89.25.56.85,1.24.71,1.66-.66,2-1.52,3.92-2.53,6.4l15.86-10.18c7.21-5.74,14.34-11.57,21.64-17.19a98.13,98.13,0,0,0,20.06-21l6.6-7.42L337.28,363l7.52-8.34,3.6-2.47.34.6-4.23,4.6c-.78,1-1.57,2-2.36,3-5.56,6.16-11.21,12.23-16.64,18.49-5.28,6.07-10,12.6-15.56,18.42-5.13,5.4-10.95,10.15-16.51,15.13A182.39,182.39,0,0,1,263,434c-3.73,2.17-7.12,4.7-9.08,9.18l22.79-10.24,16.09-4.62,25.9-1.48,12.5,1.48c4.64,1.35,9.24,2.84,13.91,4,7.55,1.93,12,6.89,14.44,14,.29.85.67,1.66,1,2.49.16.52.33,1,.49,1.56.34,1.73.69,3.46,1.12,5.66,1.87-3.4,3.47-6.32,5.08-9.23l1.49-2.84.89-1.14a27.59,27.59,0,0,0,2.27-3.51,212,212,0,0,0,9.93-26.54,30.94,30.94,0,0,0-.35-19.45A85.61,85.61,0,0,0,373,376c-4.4-7.22-8.58-14.58-12.92-21.85a42.6,42.6,0,0,0-2.8-3.78l7.94,2.13c.84.28,1.67.59,2.52.84l17,5,25.41,8.8c6.92,2.94,13.91,5.72,20.72,8.91,3.11,1.45,5.85,3.7,8.76,5.59l-.53.41-13.38-7.15c-2.46-1.13-4.85-2.47-7.4-3.36q-22-7.69-44.1-15.18c-4.16-1.4-8.47-2.38-12.93-3.62l5.13,7.77,5.8,10.43c4,7.24,8.83,14,11.21,22.17,1.83,6.25,2.9,12.37.67,18.74-2.83,8.08-4.63,16.54-9.44,23.87.41.15.6.28.71.24a5.12,5.12,0,0,0,1.08-.52C382,431.57,387.36,427.57,393,424a47.28,47.28,0,0,1,21.37-7.59c8.3-.69,16.59.82,24.64,2.85,6.28,1.58,12.38,3.87,18.56,5.84l8.09,3.83Z"/><path class="cls-6" d="M147.78,394.41c-3.2,1.65-6.5,3.14-9.59,5-3.69,2.19-7.2,4.67-10.8,7l-.58.46h0l-.85.73.06-.09-.64.5.07-.08-.61.48h0l-.94.65,0,0a9.08,9.08,0,0,0-7,4.53l0-.07-.63.5.05,0-1.46,1.1,0-.07-.63.47,0,0-1,.6.08-.08-.62.39c-6.37,3.9-12.66,7.94-19.14,11.66-7.82,4.49-15.67,9-23.76,13a130.44,130.44,0,0,1-27.61,9.7,18.15,18.15,0,0,1-2.22.23l-13,1a33.26,33.26,0,0,1-13-2.58,42.4,42.4,0,0,0-5.67-1.78c-2.37-.63-2.54-1-1.28-3.13.41-.69.83-1.37,1.24-2.05l4.25,2.58-.3,1.24c10.06-1.19,20,2.11,30.4-.1l-20.82-1.39c.34-1.74,1.64-1.9,3.05-1.81l23.55,1.53c.53.28,1.15.91,1.57.79a32.44,32.44,0,0,0,6.07-2.08c8.69-4.4,17.31-8.93,25.95-13.41,2.81-1.09,5.8-1.86,8.38-3.35,2.83-1.65,5.27-3.95,7.88-6,6.34-4.93,13.66-8.49,19-14.83,4-4.73,8.76-8.78,13.19-13.12,1.73-1.69,3.48-3.35,5.22-5,1.48,3.25,3.21,3.73,6.61,2.44,4.62-1.76,9.36-3.15,14.43-3,5.71.15,11.42.06,17.13.13a13.63,13.63,0,0,1,2.64.55c-8.62,1.62-17.26,3.19-25.87,4.92C149.63,392.66,148.74,393.73,147.78,394.41Z"/><path class="cls-4" d="M411.67,467.42a11.39,11.39,0,0,1,0-2.48c.16-.71.7-1.91,1-1.89a3,3,0,0,1,2.22,1.08c4.9,8.56,10,17,14.44,25.81,3.49,6.86,6.21,14.12,9.33,21.18.68,1.56.38,2.49-1.27,3-2.75.92-5.42,2.1-8.21,2.84-2.54.66-5.19.89-7.79,1.3-2.13.34-3-.76-3.29-2.73-.63-5.17-1.23-10.35-2-15.5-1.43-9.81-3-19.61-4.41-29.42a21.88,21.88,0,0,1,0-3.24Z"/><path class="cls-7" d="M273.77,425.68l-15.86,10.18c1-2.48,1.87-4.41,2.53-6.4.14-.42-.46-1.1-.71-1.66l0-.48c3.59-3.75,7.86-7.05,10.59-11.34,3.79-6,6.41-12.65,9.55-19a4.55,4.55,0,0,1,1.05-1.59,59.63,59.63,0,0,0,17-20.53h2.77c-.16-1-.27-1.75-.38-2.45l.51.2,2.21-3.7,4.53,2.76c-.32-1.71-.55-2.86-.89-4.63l2.79,1.5a13.83,13.83,0,0,1-.71,2.6c-2.2,4.45-4.87,8.71-6.63,13.32-2.28,6-5.55,11-10.84,14.69-1.28.89-2.49,1.9-3.73,2.86-1.62,1.26-3,2.66-2.89,4.93-2.35,4.3-4.64,8.64-7.06,12.9C276.46,421.84,275.06,423.73,273.77,425.68Z"/><path class="cls-4" d="M420.76,452.76l2.46.62c5.84,1.49,11.73,2.85,17.52,4.54a123,123,0,0,1,12.15,4.36c3.07,1.26,3.15,2.6,1.62,5.63-2.66,5.26-6.66,9.34-10.86,13.32-1.62,1.53-2.68,1.34-4-.42-5.69-7.52-11.48-15-17.27-22.41-.81-1-1.89-1.89-2.68-2.95a2.13,2.13,0,0,1-.28-1.79C419.6,453.19,420.38,453,420.76,452.76Z"/><path class="cls-4" d="M402.55,479l1.14,15.61a4.54,4.54,0,0,0,.1.74c1,4.05,1,4.26-3.06,4.78a134.72,134.72,0,0,1-14.6,1.09c-1.82,0-3.66-1.06-5.49-1.64.56-1.73.74-3.73,1.76-5.12a114.64,114.64,0,0,0,12-20.6c1.34-2.93,2.25-6.06,3.6-9,.4-.86,1.62-1.34,2.46-2a10.38,10.38,0,0,1,1.17,2.77c.5,4.43.84,8.89,1.24,13.33Z"/><path class="cls-8" d="M232.5,396l.15,1.41-1.81.91a8.1,8.1,0,0,0-2.13,1c-6.81,5.76-14.57,10-22.33,14.28-3,1.66-6,1.4-9.16,1.05-5.16-.57-10.32-1.22-15.48-1.84-.82-.1-1.63-.25-2.45-.38.21-.32.35-.81.64-.93,3.86-1.59,7.71-3.24,11.65-4.62a6.11,6.11,0,0,1,3.55.33c1.84.59,3.6,1.45,5.39,2.22,2,.87,4,.15,4.56-1.66a78,78,0,0,0,2-10c.18-1-.14-2.68.29-2.88a6.41,6.41,0,0,1,3.28,0c2.51.38,5,1.18,7.51,1.22,3.45.05,6.91-.46,10.36-.68,1.24-.08,2.49,0,3.74,0Z"/><path class="cls-2" d="M70,317.49c-3-.08-5.58-2-6.11-4-.63-2.4.93-6.51,3-7.72a24.45,24.45,0,0,1,3.7-1.91c3-1.12,6.49,1.26,6.08,4.42A13.73,13.73,0,0,1,72,316.79,4.63,4.63,0,0,1,70,317.49Z"/><path class="cls-2" d="M117.59,328.44c3.08,0,7.67,3.84,7.64,6.37s-4.61,7.15-7.21,7.13c-4,0-6-2.37-5.6-7.39C112.72,331.17,113.94,328.41,117.59,328.44Z"/><path class="cls-2" d="M129.47,294.65a49.28,49.28,0,0,1,4.51,2.43,2.23,2.23,0,0,1,.45,2,11.62,11.62,0,0,1-5.92,7.58c-3,1.51-5.64.44-6.48-2.81C121.11,300.28,125.39,294.53,129.47,294.65Z"/><path class="cls-9" d="M5,433.68l8.53,4.14c-2.08.15-3,3-5.21,1Q6.68,436.25,5,433.68Z"/><path class="cls-9" d="M184.26,388.52l7.57.05a27.44,27.44,0,0,1-5.18,2.86C186.22,391.57,185.07,389.55,184.26,388.52Z"/><path class="cls-6" d="M140.27,418.36l5,7c-2.61-.45-5.06-1.24-5.65-4.23C139.41,420.31,140,419.3,140.27,418.36Z"/><path class="cls-5" d="M4.9,443.54l.49,1.11L0,445.43C1.1,443.06,3,443.14,4.9,443.54Z"/><path class="cls-5" d="M5,447.83l1.67.58-2.55,4.08-.94-.56c.39-.78.79-1.55,1.15-2.34C4.6,449,4.79,448.42,5,447.83Z"/><path class="cls-10" d="M427.69,370.85l-.6-.34Z"/><path class="cls-11" d="M109.3,267.86l-23.91,9.53-.48-.41c1.33-2.86,2.28-6,4-8.53,5.42-7.85,8.23-16.57,9.7-25.86a93.8,93.8,0,0,0,.88-25.32,112,112,0,0,0-8.11-30.7c-5.18-12.38-12-23.68-21.82-33-1.8-1.71-3.74-3.28-5.61-4.92,2.06.09,4.14,0,6.18.29,3.44.43,6.87,1,10.28,1.63,9.79,1.94,19.75,2.9,29.27,6.41,13,4.78,26.37,8.35,39.24,13.34,14.13,5.48,28.22,11.11,41.56,18.48,9.3,5.14,18.6,10.22,27.11,16.63,6.69,5,13.52,9.87,20.18,15,6.05,4.6,12,9.38,17.91,14.14,2.57,2.07,5,4.29,7.52,6.44-2.81-.18-5.63-.54-8.44-.52-11.13.11-22.28,0-33.4.61-11.35.57-22.69,1.65-34,2.81-7.59.78-15.17,1.83-22.66,3.25-8.94,1.71-17.82,3.8-26.65,6a61.66,61.66,0,0,0-10.71,4c-6.09,2.8-12,5.87-18,8.9-.33.17-.36,1-.52,1.45Z"/><path class="cls-12" d="M138.29,50.61,139.13,38l2.15.59,4.57,2.43a25.86,25.86,0,0,1-2.23,1.39c-3,1.51-4.33,3.18-3.24,4.81a19.83,19.83,0,0,1,2.56,6.05,1.75,1.75,0,0,0,.44.6c3.19,3.55,7.64,5,11.72,7.11.53.27,1.37-.06,2.06-.11-.33-3.35.4-4.07,3.49-4.44.57-.07,1.06-1.43,1.42-2.26a20.92,20.92,0,0,0,.76-2.63l3,2.49c-.93.8-2.36,5.49-2.3,6.71a8.58,8.58,0,0,1-.43,3.69,14.47,14.47,0,0,1-2.41,3l.18.6c2.41-1.27,3.8.29,4.12,1.85.53,2.61-2.47,1.6-3.8,2.75.29,2.8.59,5.66.93,8.87l-1.87,1.62a38.9,38.9,0,0,0,5.13.81,2.79,2.79,0,0,0,2.08-1.1A21.66,21.66,0,0,0,169,79.5l-3.36-4.38L168.5,71l-1.66-1.48c2-.23,3.38-.14,4.58-.62a11.53,11.53,0,0,0,2.74-2.22l-.24-.87c2.18.36,4.37.73,6.57,1.07.09,0,.22-.22.34-.33l12,10a14.42,14.42,0,0,0,6,8.92l-1.45,3c.86.42,2.17.72,2.2,1.12.24,3,3,4.07,4.58,5.83,3.42,3.84,6.93,7.45,8.2,12.6.34,1.37.51,2.77.81,4.43,1.8,0,3,1.44,4,3.5a16.42,16.42,0,0,0,3.2,4.33c2.1,2.16,4.5,4,6.57,6.23.69.74.57,2.18,1.13,3.12,1.63,2.72,3.43,5.34,5.12,8a2.83,2.83,0,0,1,.61,1.56c-.29,2.68,1,4.65,2.7,6.48a2.46,2.46,0,0,1,.47,1.67c-.21,2.66.31,3.07,3,2.18a13.68,13.68,0,0,1,1.43,2.24c1.84,4.67,3.54,9.39,5.41,14.05,3.94,9.8,8,19.56,11.91,29.36,1.13,2.8,2.1,5.67,3.14,8.51-4.64-3.83-8.8-8.3-14.75-11.53.46,1,.65,1.44.84,1.86a8,8,0,0,1-1.51-1.64c-.67-1.32-.93-2.87-1.75-4.05s-2-2.1-3.2-.41c-1.06,1.47-1.72,1.46-2.68-.16a6.3,6.3,0,0,0-2.73-2.59c-1.73-.72-3.78-.69-5.49-1.43-1.48-.64-3.49-1.72-3.8-3-.44-1.72-1.34-1.58-2.39-1.71a20.49,20.49,0,0,0-2.48,0c0-1.85-.94-2.38-2.75-2.22a4.54,4.54,0,0,1-2.93-.82c-2-1.53-3.81-3.3-5.24-4.57a18.83,18.83,0,0,1-2.8,1.55c-.29.1-.91-.3-1.13-.64s0-.83.25-1.09c2.19-2.51,2-3.47-1.16-5.15-.19.1-.4.23-.62.33-.66.29-1.34.57-2,.85,0-.73-.08-1.46-.16-2.18a3.54,3.54,0,0,0-.33-1.64c-1.25-1.61-.11-2.31,1.11-2.3,2.43,0,4.4-1.29,6.56-1.75,3-.65,5-1.47,6.23-4.59.95-2.42.53-4.39-2.09-4.78a20.62,20.62,0,0,1-2.44-.66c.75-1.69,2.17-3.45-.48-4.18a29.33,29.33,0,0,0-5.16-.59c-.2,0-.41.2-.69.34.24.62.47,1.19.83,2.12-2.47-.31-4.64-.53-5.63-2.86-1.93-4.56-6.62-6.56-9.41-10.32a.78.78,0,0,0-.66-.24c-1.43.55-2.64.43-3.28-1.13-.53-1.28-1.62-2.81-1.29-3.87,1.06-3.4-1-4-3.39-4.74-1.48-.46-2.82-1.37-4.27-2a28,28,0,0,0-3.05-.86c-.13-.3-.18-.7-.4-.87-3.52-2.71-9.45-2.88-13.64-.34l1.37,1.23v.72l-6.19.68,1.91-2.4c-2.1.19-4.15,1-4.52-1.81a29,29,0,0,0-1.12-5.48,4.09,4.09,0,0,0-2-2.35c-.91-.34-2.12.15-3.56.32l1.46,1.84-3,1.89c-.54-2.43-.85-4.85-4.13-4.54-.5.05-1.12-.65-1.6-1.08s-1.1-1.62-1.69-1.65c-3.23-.19-6.56-2-9.69.37,1.52,4.45,4.47,5.72,8.39,3.89.66-.31,2.05.39,2.77,1,.47.41.35,1.5.38,1.64-2.47,2.37-4.5,4.51-6.73,6.41s-2.07,4.17.44,5.58a9.31,9.31,0,0,1,1.51,1.55,8,8,0,0,0-2.15.41c-1.61,1-3.74,1.69-4.61,3.14a6.41,6.41,0,0,1-5.07,3.28c-2.27.3-4.58.35-6.93.51,0,2.18-.93,3.42-2.54,2.16-2.1-1.64-4.22-1.09-6.4-.93-2,.16-3.77.12-4.38-2.37a27.34,27.34,0,0,0-1.52-3.71,10.91,10.91,0,0,0-1.8,2.24,8.91,8.91,0,0,0-.26,2.52c-.4,0-.71.1-.87,0-.93-.67-1.78-1.46-2.75-2-.57-.34-1.55-.74-1.93-.49a2.9,2.9,0,0,0-1,2c-.12,1.47-2.19,3.5-3.67,3.46-3.94-.12-7.88-.25-11.81-.21-.58,0-1.15.92-1.72,1.41-4.41,0-8.82,0-13.23,0-.57,0-1.12.61-1.69.94a.23.23,0,0,0-.26,0c-2-.44-2.24-2-2.18-3.68.06-1.37.22-2.73.34-4.09a89.23,89.23,0,0,0,25.5-10.64c1.56-.93,3.26-1.59,4.9-2.38l4.35,1.82c1.7-2.85,4.39-2.3,6.6-1.84,2.89.59,4.93.44,6.61-2.35,1.09-1.81,3.4-2.93,4.33-4.77,1.28-2.54,3.24-2.61,5.39-2.45.85.06,1.65.81,2.47,1.25l.63-.51-2.26-3.89,10-5.18-.28-1a19.71,19.71,0,0,0,3.65-.11c.19,0,.12-1.47.18-2.47l1.24-.77-1.08-.62c.67-1.68,1.17-3,1.76-4.37.8-1.83,1.25-4.67,2.6-5.22,2.7-1.09,2.95-3.28,3.83-5.25a17.38,17.38,0,0,0,.76-3.58c3.89-5.35,8.59-10,16.47-9.28a5.49,5.49,0,0,0-2.12-2c-1.75-.74-3.56-1.37-5.37-2-1.31-.43-2.7-.66-1.86-2.65.12-.29-.55-1-1-1.4-.6-.5-1.57-.68-2-1.27-1.71-2.5-3.23-5.11-4.89-7.63A6,6,0,0,0,138.29,50.61Zm8.65,33.62c-1.66.37-3.86.27-4.23,1-1.21,2.53-3.24,4-5.38,5.36-1.13.75-1.46,1.38-.08,2.15.48.26,1,.48,1.48.71-1.16,3.25-1.16,3.25.8,4.5l-2.09,2.55c.45.46.81.8,1.13,1.16s.7.87,1,1.28c3.1-1.65,3.11-1.57,6.58-2,.56-.06,1-1.2,1.69-2.1-.21-.06.09.07.41.11,3.67.54,3.85.77,4.2,4.58a6,6,0,0,0,.85,1.77c.32.64.93,1.3.92,1.93-.07,2.22,1.25,2.69,2.88,2.19s2.11.24,2.39,1.54c.37,1.73,1.43,3,3.18,3a10.67,10.67,0,0,0,3.44-1.27c2.34.75,4.45,1.29,6.44,2.11s3.93,2.82,6.61,1.81c.3-.11.79.16,1.15.34,3.24,1.64,6,4.4,9.53,3.82,1.27,2.4,2.14,4.69,3.57,6.55s4.62,1.79,7,.39a11.75,11.75,0,0,0,1.74,2.88c1.71,1.54,3.64,2.83,5.46,4.24a1.3,1.3,0,0,1,.54.79c.1,2.13,1.62,1.86,3,2a3.73,3.73,0,0,1,2.5.89c1.55,2.19,2.77,4.61,4.23,6.86,2.12,3.25,2.56,3.27,5.07,1.07-.09-1.2-.46-2.13-.14-2.63a7,7,0,0,1,2.52-2.63c1.77-.89,1.68-1.82.61-3.1a39.31,39.31,0,0,1-3.35-4c-1.09-1.71-2.49-3.05-2.89-5.47-.51-3.08-3.12-5.4-6.4-6.49-2.46-.81-3.63-2.86-4-5.22-.31-1.78.06-3.68-.28-5.45a4.45,4.45,0,0,0-2-2.3,41.83,41.83,0,0,0-4.24-2.24c.35-1.51,1.09-2.83.7-3.45a14.49,14.49,0,0,0-4.09-4.56c-.8-.52-2.6.37-3.89.8-1.94.65-3.13-.13-2.87-2s.08-3.31-2.21-3.69c-.46-.07-.79-.93-1.51-1.84l3.05.29.41-.72-7.94-5.63,2.37-1.81c-2.71-2.89-2.87-5.71-.42-8.71l-5.65-4.63c-.44.58-.66,1.11-1,1.33-2.85,1.68-6.31,2.89-5,7.39a.75.75,0,0,1-.25.66c-3.43,1.72-3.8,5.38-5.27,8.33-1.59,3.22-5.15,4.15-7.65,1.73-1-1-1.32-2.55-2.09-4.14-.47-.12-1.76,0-2.3-.66-2-2.24-4.56-2.8-7.32-3.23S146.81,82.16,146.94,84.23Zm83.16,90.2c2.18-.25,4-.33,5.67-.67,3.06-.63,1.48-2.8,1.24-4.18l2.64-1.48c-.51-.66-1-1.31-1.52-2-.27-.38-.73-.86-.67-1.23.54-3-1.48-3.2-3.58-3.33l-2.34-.14c-.45-3-.46-2.92-3.25-4-.57-.21-1-.84-1.46-1.28L222,151.84l-.63.38v6.57l3.08,2.27-.41.73-3.64.55v.7c.94.1,2.17-.12,2.73.39a4.37,4.37,0,0,1,1,2.81c0,.26-1.25.61-2.31,1.09.12-1.29.17-1.91.22-2.47l-3.76.7c.58,1.94,2.32,3.67.72,5.81-.12.17.4.81.61,1.23,1.12,2.31,2.92.65,4.6.56-.12,1-.22,1.74-.32,2.51l.58-.58c1.43,1,2.83,2,4.3,2.87a11.91,11.91,0,0,0,2.24.8,11.91,11.91,0,0,0,.1-2.45A7.27,7.27,0,0,0,230.1,174.43ZM147.83,75.2a28.79,28.79,0,0,0-2.93,2.26,14.06,14.06,0,0,0-1.49,2.19c1,.48,2,1.43,3,1.34a58.81,58.81,0,0,0,7.13-1.53C151.34,78.14,148,79,147.83,75.2Zm86.11,107.58c1,.22,1.91.42,2.8.57a2,2,0,0,0,.72-.16c2-.49,2.35-1.6.91-3.12-1.24-1.31-5.63-1.4-6.87-.08-.21.22-.1.75-.17,1.45l2.25-1.2Z"/><path class="cls-13" d="M170.87,305.46l-8.53-14c1.77.1,1.22-1.25,1.5-2.22.72-2.55,1.69-5,2.45-7.56.38-1.29,1.13-3,.62-3.86s-2.39-.83-3.7-1c-2.16-.35-4.33-.59-6.5-.83a22.21,22.21,0,0,1-2.84-.19c-.58-.15-1.42-.7-1.5-1.19-.47-2.68,1.44-5.13.75-8-.3-1.22.41-2.67.65-4,2-.35,4.09-.66,6.12-1.06,7.86-1.55,15.7-3.2,23.58-4.65a48,48,0,0,1,6.8-.32l4-.09,2-.36,1-.14a12.8,12.8,0,0,0,2.55.51c6.37,0,12.74.06,19.11,0,3.48,0,6.95-.31,10.43-.46,3.88-.17,7.83-.82,11.65-.36a70.79,70.79,0,0,0,21.65-.87c3.73-.7,7.43-1.51,11.15-2.27q-6.88,8.65-13.78,17.31c-3.32,4.15-6.67,8.29-10,12.42-1.8,2.23-3.49,4.56-5.45,6.64-3.24,3.43-3,7.07-.79,10.74,2.67,4.46,5.52,8.81,8.37,13.16,3.39,5.17,6.86,10.3,10.3,15.45-1.13.9-2.16,2.42-3.4,2.62-7.73,1.24-15,4.28-23.08,4.42a103.15,103.15,0,0,0-22.42,3.4c-7.95,2-16.49,2-23.77,6.48a7.33,7.33,0,0,1-2.42.47c-.23-1-.13-2.44-.77-3-2.19-1.89-.7-5.87-4.1-6.94-.09,0-.11-.3-.16-.46-1.05-3.63,1.51-9.64,4.32-11.07.16-1.85.64-3.45.34-4.9-.36-1.73.65-3.93-1.54-5.17-2.36-1.33-4.65-2.78-7-4.16C176,308.41,173.41,306.94,170.87,305.46Zm65.36,23.65.05-.41c1-.41,2.06-1.14,3.1-1.16a71.8,71.8,0,0,1,7.17.41c1.87.14,3.91-.15,4.32-2.05a5.05,5.05,0,0,0-2-5.46c-2.2-1.53-4.24-3.28-6.32-5-2.42-2-4.81-2.05-7.52-.42a8.25,8.25,0,0,1-3.09,1c-2.91.41-2.79-2.49-4.48-4.36a23.18,23.18,0,0,1-1.18,2.47c-.41.63-.9,1.49-1.5,1.63s-2-.25-2.15-.69a14.63,14.63,0,0,1-.73-4.81c0-1.3.92-2.08,2.46-1.33a12.23,12.23,0,0,0,2.53.55l-1.81-3.71a21.27,21.27,0,0,1,3.35,0c1.07.2,8.61-1.76,9.31-2.59a1.72,1.72,0,0,0,.41-.62c.75-3.31,1.57-6.6,2.16-9.94.21-1.18-.29-2.47-.23-3.7a7.43,7.43,0,0,0-4.67-7.32,6.14,6.14,0,0,0-3.83-.37,11.89,11.89,0,0,0-4.31,3.06A27.41,27.41,0,0,1,219,290.6a3.5,3.5,0,0,1-4.06-.17,13.51,13.51,0,0,0-5.36-2.37c-5.83-.65-11.65-1-17.29-2.89-1.54-.52-3.82-1.76-5.45.57-.21.3-1.24.11-1.88,0-3.19-.44-6.54-1.9-9,1.63-.09.12-.29.16-.44.23-3.33,1.57-4.31,4.48-4.1,7.82.06.89,1.05,1.84,1.83,2.52,1.18,1,2.56,1.85,4.36,3.11,2-1.27,2.35.89,2.68,2.78a5.37,5.37,0,0,0,3.55,4.29c2.8,1.3,5.27,3.31,7.84,5.08a2.28,2.28,0,0,1,.62,1.28c.79,3.27,1.54,6.56,2.36,10.05-.59.49-1.3,1.18-2.1,1.74-1.72,1.22-2.75,6.83-1.5,8.51.29.39.73.94,1.1.94,2.25,0,4.5-.16,6.76-.18,1.73,0,3.92-.51,5.11.34,2.36,1.66,3.46.44,5.1-.88,2.31-1.85,4.67-3.95,7.38-4.89A44,44,0,0,1,228,328.06C230.67,327.88,233.47,328.72,236.23,329.11Zm26.06-72c-8-2-73.16,6-77.85,9.48C210.48,261.32,236.41,259.41,262.29,257.12Zm-68.92,14.29c-2.1,2.5-2.1,2.41-6,2.63a4.16,4.16,0,0,0-2.7,1.49,2.59,2.59,0,0,0,0,2.49,11.58,11.58,0,0,0,3.83,1.78,9.15,9.15,0,0,0,2.82.06c1.13,0,2.27-.12,3.71-.2-.52-1.14-.78-1.71-1.06-2.3,3.88-.82,7.62-1.58,11.34-2.41a5.89,5.89,0,0,0,1.49-.88c-.46-.5-1.06-1.49-1.36-1.41-1.82.51-3.7,0-5.36.23C197.47,273.26,195.3,273.82,193.37,271.41Zm13,5.4a480,480,0,0,1,51.14-13.69A213.61,213.61,0,0,0,206.35,276.81Zm16,3.67c4.89.29,32.84-8.52,34-10.38Z"/><path class="cls-8" d="M392.84,301.36a18.37,18.37,0,0,1,3,1.67c1.84,1.53.67,6.24-1.71,7a71.31,71.31,0,0,0-22.28,11.41,5.63,5.63,0,0,1-3.8.77c-4.8-.65-9.46-.49-13.9,1.57-9.82,4.55-19.22,9.68-27.52,16.87-5,4.31-10.94,7.51-16.54,11.08a14.72,14.72,0,0,0-6.2,6.79c-2.86,6.71-5.63,13.55-9.41,19.75a68.58,68.58,0,0,1-11.65,13.82,21.83,21.83,0,0,0-5.58,7.87A76.81,76.81,0,0,1,265.91,420a8.27,8.27,0,0,1-.81.95c-4.52,4-9.16,7.9-14.77,10.34-2.82,1.23-5,.15-6-2.78a12.53,12.53,0,0,1-.64-2.9c-.21-2.13.3-3.65,2.9-3.93,3.29-.36,6.54-1.13,9.83-1.54,2.58-.31,3.58-1.72,4-4.15,1-6.26,2.09-12.52,3.45-18.7a81,81,0,0,1,3.11-9.16c1.66-4.75,5.7-6.48,10-8.16,3.92-1.55,7.69-3.5,11.46-5.42a18.91,18.91,0,0,0,3.08-2.44,23.68,23.68,0,0,0-2-3.22c-.32-.37-1.15-.31-1.75-.44-3.15-.89-5.26-2.67-5.38-6.18l1.68.65c.14-.37.27-.55.23-.67a6.67,6.67,0,0,0-.5-1.09c-1.71-3.11-1.54-4,1.16-6.14a13.42,13.42,0,0,0,1.32-1.39,3.52,3.52,0,0,0-2.09.44c-5,2.44-9.87,5-14.89,7.28-2.84,1.31-5.87,2.2-8.79,3.34-.72.28-2,.72-.19,1.42v.17a45.85,45.85,0,0,0,0,5.5,10.87,10.87,0,0,1-2,7.47c-3.85,5.94-7.6,11.91-9.59,18.83-.76,2.64-6.88,5.31-9.34,4.24-.77-.34-1.23-1.4-1.9-2.19.66-.11,1.59,0,2-.37a16.51,16.51,0,0,0,1.93-2.82,14.86,14.86,0,0,0-3.13-1.26,13.88,13.88,0,0,0-3.25.23l.15-.19,2.63-3.12-3.59-1.34c.58-.37,1.4-.94,2.25-1.43,2-1.17,4.09-2.18,6-3.5,2.32-1.63,3.75-3.67,3.47-6.88-.47-5.18-.53-10.4-.61-15.6a4.34,4.34,0,0,1,1.1-2.83,187.92,187.92,0,0,0,20-23.48,33.43,33.43,0,0,1,3.4-3.55c3.23-1.61,6.42-3.3,9.7-4.78a11.31,11.31,0,0,1,3.39-.38l3.95,1.58-5.14,1.07c2.14,2.2,3.93,4.05,5.76,5.87.13.14.48.06.72.09,4.82.69,9.67,1.22,14.45,2.12,7.19,1.34,12.76-1.73,17.26-6.65,5.75-6.3,12.2-11.34,20.22-14.37,3.54-1.34,7-3,10.48-4.48s7-2.8,10.58-4.11a11.51,11.51,0,0,1,2.72-.3c-.36,3.33.08,4,2.72,4.14-1.83-2.35-1.83-4,.17-5.4a5.55,5.55,0,0,1,2.53-.84c4.19-.44,8.4-.81,12.6-1.13,2.64-.19,5.3-.14,7.93-.4.88-.08,2.57.58,2.38-1.46ZM247.53,424.61l-.66.26c.52.63,1.2,1.85,1.52,1.76A6.44,6.44,0,0,0,250.9,425c.14-.14-.49-1.48-.61-1.45a16.49,16.49,0,0,0-2.51.85Z"/><path class="cls-9" d="M263.25,241c-2.51-2.15-4.95-4.37-7.52-6.44-5.93-4.76-11.86-9.54-17.91-14.14-6.66-5.08-13.49-9.92-20.18-15-8.51-6.41-17.81-11.49-27.11-16.63-13.34-7.37-27.43-13-41.56-18.48-12.87-5-26.28-8.56-39.24-13.34-9.52-3.51-19.48-4.47-29.27-6.41-3.41-.67-6.84-1.2-10.28-1.63-2-.26-4.12-.2-6.18-.29l-2.24-1.53c1.3-2.48.5-4.78-.6-7.06a.23.23,0,0,1,.26,0c7.88.13,15.74.41,23.46,2.22,8.14,1.91,16.3,3.75,24.43,5.76,5.7,1.41,11.34,3,17,4.56a18.58,18.58,0,0,0,3.23,1.9c7.23,2.57,14.62,4.74,21.72,7.63,12.12,4.92,24.08,10.25,36.08,15.47,2.72,1.18,5.31,2.65,8,4l0,0,.62.53c4.34,3.13,8.7,6.23,13,9.39s8.8,6.67,13.35,9.79c3.81,2.61,7.88,4.85,11.77,7.34,3.46,2.23,6.83,4.59,10.26,6.86.24.16.65.06,1,.08l8.07,6.29c.9,1.42,1.57,3.07,2.74,4.21,4.56,4.41,9.28,8.64,13.91,13,1,.91,1.83,2,2.74,3Z"/><path class="cls-6" d="M184.3,387c-1.8-.22-3.61-.56-5.42-.64-8-.35-16.08-1.05-24.09-.76-4.35.16-8.69,1.86-12.93,3.23-1.44.46-2.77,1.14-4,.19-1.37-1.06-1-2.64-.44-4.09,2.29-1.59,4.53-3.27,6.89-4.75,3.91-2.47,7.9-4.8,11.84-7.2,1.62-1,3.08-2.42,4.83-2.94,5.26-1.57,10.63-2.79,16.18-4.2-.34-.73-.74-1.61-1.16-2.48-.76-1.54-1.53-3.07-2.29-4.6l2.06-.25,1,1.38,5.48-1.52a61.32,61.32,0,0,0,6.33-1.84c4.22-1.7,8.32-3.72,12.54-5.43,6.79-2.74,14-3.29,21.2-3.92,6.52-.57,13-1.82,19.45-2.8s13.1-2,20.43-3.14l-15.74,17.2c-.35-1.36-.61-2.75-1.06-4.07-1.18-3.43-1.55-3.43-4.68-1.69-2.88,1.59-5.91,2.92-8.9,4.29-8.19,3.74-16.58,7.09-24.54,11.25-7.45,3.89-14.39,8.73-21.68,12.95-4,2.34-4.17,2.23-1.37,5.59C184.32,386.81,184.29,386.92,184.3,387Zm-28.89-11.9c1.86,2.28,3.12,2.67,6.88,1.7,5.73-1.49,11.43-2.87,17.38-1.38a5.71,5.71,0,0,0,1.49,0c.46,0,.92-.06,1.37-.1a27.88,27.88,0,0,0-17.09-.47C162.21,375.84,158.84,377.23,155.41,375.1Z"/><path class="cls-14" d="M173.72,358.76c.76,1.53,1.53,3.06,2.29,4.6.42.87.82,1.75,1.16,2.48-5.55,1.41-10.92,2.63-16.18,4.2-1.75.52-3.21,2-4.83,2.94-3.94,2.4-7.93,4.73-11.84,7.2-2.36,1.48-4.6,3.16-6.89,4.75-.05-3,3.19-6.81,6.44-7.59.78-.18,1.56-.33,2.55-.54-2.09-1.48-5.29-.16-7.7,2.47-2.17,2.36-2.79,5.14-3,8.15-1.74,1.67-3.49,3.33-5.22,5-4.43,4.34-9.21,8.39-13.19,13.12-5.34,6.34-12.66,9.9-19,14.83-2.61,2-5,4.32-7.88,6-2.58,1.49-5.57,2.26-8.38,3.35L96.8,419.39l-.43-.61c-.55.32-1.1.64-1.64,1-8,4.91-15.79,10.1-24,14.64-6.2,3.44-12.86,6.05-19.31,9-2.14-1.27-4.26-2.56-5.11-5.11,7.8,0,14.06-4,20.36-7.86,7.77-4.78,15.57-9.52,23.22-14.5a85.62,85.62,0,0,0,9-7.11c8.37-7.21,16.77-14.39,25-21.79,4.37-3.94,8.26-8.42,12.57-12.45,7.63-7.12,16.77-11.61,26.74-14.35C166.56,359.31,170.19,359.23,173.72,358.76Z"/><path class="cls-15" d="M261.72,203.68c-1-2.84-2-5.71-3.14-8.51-3.94-9.8-8-19.56-11.91-29.36-1.87-4.66-3.57-9.38-5.41-14.05a13.1,13.1,0,0,0-1.44-2.24,7.31,7.31,0,0,0-.07-1.24c-2-8.56-6.06-16.31-9.83-24.11-2.94-6.1-7-11.67-10.32-17.59-4.12-7.29-8.95-14-15.4-19.36-1.21-1-2.4-2-3.54-3.13-2.63-2.51-5.23-5-7.85-7.57l-12-10c-.44-.36-.89-.7-1.32-1.08L166.82,54.1c1.75-1.32.09-2.4-.35-3.44-1-2.47-2.27-4.86-3.43-7.28l.44-.58c1.54,1,3,2,4.61,2.83,1.38.73,2.87,1.27,4.31,1.89l-.08,0c2.11,2.14,4.08,4.46,6.37,6.41,5.09,4.35,10.31,8.56,15.56,12.73a41.59,41.59,0,0,0,4.83,2.88c.54.62,1.12,1.21,1.6,1.87,4.81,6.55,9.63,13.1,14.39,19.7,1.7,2.35,3.22,4.83,4.84,7.24.56.82,1.2,1.59,1.79,2.39,2.18,3,4.69,5.81,6.47,9,5.14,9.29,10.05,18.71,14.91,28.15,1.39,2.72,2.27,5.69,3.39,8.55-.09.48-.36,1-.23,1.42,1,3.22,2.13,6.42,3.27,9.61,3,8.38,6.22,16.7,9,25.15A175.08,175.08,0,0,0,268.12,206c1.2,2.4,1.74,5.12,2.58,7.7Q266.21,208.69,261.72,203.68Z"/><path class="cls-3" d="M264.74,173.54l.11.1-.06.13a72.82,72.82,0,0,0,6.43,20.47c1.11,2.39,2.54,4.65,3.49,7.1q5.16,13.29,10.06,26.68c1.27,3.47,2.27,7,3.38,10.55-2-3.91-4.08-7.76-5.87-11.76C277.4,215.9,272.49,205,267.91,194c-2.89-7-5.05-14.24-7.82-21.26-3.86-9.8-7.68-19.64-12.07-29.22-4.69-10.24-10-20.19-15.07-30.27a53.78,53.78,0,0,0-3-5.73c-1.87-2.81-4-5.44-6-8.17-1-1.34-1.84-2.77-2.84-4.09-2.63-3.54-5.33-7-8-10.55-3-4.07-5.74-8.38-9-12.22-5.52-6.51-11.3-12.81-17.15-19-1.43-1.51-3.58-2.36-5.4-3.5-4.06-2.57-8.07-5.23-12.21-7.67-4.57-2.68-9.25-5.19-13.91-7.71-5.29-2.87-10.63-5.67-16-8.47-.3-.16-.79,0-1.11-.12-1.52-.68-3-1.43-4.64-2.22,2.17-2.33,4.11-1.59,6.06-.7,4.88,2.24,9.8,4.39,14.62,6.74a47,47,0,0,1,5.17,3.45c8.36,5.66,16.71,11.31,25.86,15.68a74.14,74.14,0,0,1,7.33,4.6l.62.54,0-.1c.9,3,3.13,4.43,6,5.13,5.18,7,10.23,14,15.56,20.88,5.65,7.24,11.83,14.09,17.26,21.49,2.66,3.61,4.15,8.07,6.17,12.15,3.46,7,7,13.89,10.34,20.94,2.56,5.52,4.73,11.22,7.08,16.83l.48,1.2,0,.17c.56,5.13,2.8,9.63,5.31,14,0,.08.3,0,.47.05l-.07.08,2,4.57-.12-.08.36.65.13.08-.05.14C264.44,172.68,264.59,173.11,264.74,173.54Z"/><path class="cls-15" d="M190.27,256.56a48,48,0,0,0-6.8.32c-7.88,1.45-15.72,3.1-23.58,4.65-2,.4-4.08.71-6.12,1.06a40.38,40.38,0,0,0-4.41.42c-4.26.86-8.62,1.45-12.69,2.88-2.9,1-5.24,2-7.34-1V264a18.52,18.52,0,0,0,4-1.12,22.55,22.55,0,0,0,3.5-2.74c13-4.4,26.26-7.88,39.87-9.3,10.56-1.11,21.25-.93,31.89-1.12,12.73-.21,25.46-.19,38.18-.3,7.87-.06,15.73-.11,23.6-.28,2.26-.05,4.51-.49,7.39-.83l-3.94,4.23c-3.72.76-7.42,1.57-11.15,2.27a70.79,70.79,0,0,1-21.65.87c-3.82-.46-7.77.19-11.65.36-3.48.15-7,.42-10.43.46-6.37.09-12.74.06-19.11,0a12.8,12.8,0,0,1-2.55-.51c5.75-.65,11.48-1.63,17.25-1.88,13.05-.55,26.12-.74,39.19-1.06,1.33,0,2.66,0,4,0l.05-.7a13.11,13.11,0,0,0-2.22-.34c-19.12.27-38.29-.18-57.3,2.56A74.84,74.84,0,0,0,190.27,256.56Z"/><path class="cls-16" d="M232.29,395.42c-1.25,0-2.5-.09-3.74,0-3.45.22-6.91.73-10.36.68-2.51,0-5-.84-7.51-1.22a6.41,6.41,0,0,0-3.28,0c-.43.2-.11,1.9-.29,2.88a78,78,0,0,1-2,10c-.58,1.81-2.51,2.53-4.56,1.66-1.79-.77-3.55-1.63-5.39-2.22a6.11,6.11,0,0,0-3.55-.33c-3.94,1.38-7.79,3-11.65,4.62-.29.12-.43.61-.64.93-4,.36-8.11.47-12.09,1.13-5,.83-7.94,4.66-10.9,8.33a7.54,7.54,0,0,1-1.41,1.06c-4.6,2.11-6.76-.7-8.57-4.24-.14-.28-.3-.55-.51-.93l3.48-2.8c7.83-.27,12.05-5.92,16.39-11.22.92-1.12,1.43-1.52,2.75-1,1.79.65,3.69,1,5.46,1.7,4.16,1.61,7.26-.77,10.32-2.8,6.2-4.14,7.42-4.22,13.6.12a6.52,6.52,0,0,0,.9.43c2-2.43,1.83-5.53,2.48-8.34s1-5.57,1.53-8.51c9.91,2.06,19.22,3.55,28.65,1.15.48,1.42.95,2.84,1.42,4.26.11,1-1.37,2.28.47,3C232.93,394.28,232.61,394.85,232.29,395.42Z"/><path class="cls-7" d="M187.37,345.6a7.33,7.33,0,0,0,2.42-.47c7.28-4.51,15.82-4.52,23.77-6.48a103.15,103.15,0,0,1,22.42-3.4c8.07-.14,15.35-3.18,23.08-4.42,1.24-.2,2.27-1.72,3.4-2.62l1.3,1.72c0,2.43,0,4.85,0,7.28-2.1,3.52-5.83,3-9.08,3.59-8.64,1.47-17.3,2.89-26,4.16-3.68.54-7.42.75-11.14.94a60.28,60.28,0,0,0-23.34,6.27c-3.06,1.47-6.12,3-9.22,4.35a4.67,4.67,0,0,1-2.12.22,36.61,36.61,0,0,1-3.9-.43c-.89-.14-2.33-.23-2.51-.72-.44-1.2-1.82-2.46-.23-4,.77-.74,1-2.06,1.42-3.12Z"/><path class="cls-17" d="M138.29,50.61a6,6,0,0,1,1.51,1.18c1.66,2.52,3.18,5.13,4.89,7.63.4.59,1.37.77,2,1.27.44.36,1.11,1.11,1,1.4-.84,2,.55,2.22,1.86,2.65,1.81.6,3.62,1.23,5.37,2a5.49,5.49,0,0,1,2.12,2c-7.88-.72-12.58,3.93-16.47,9.28a17.38,17.38,0,0,1-.76,3.58c-.88,2-1.13,4.16-3.83,5.25-1.35.55-1.8,3.39-2.6,5.22-.59,1.33-1.09,2.69-1.76,4.37l1.08.62-1.24.77c-.06,1,0,2.43-.18,2.47a19.71,19.71,0,0,1-3.65.11l.28,1-10,5.18,2.26,3.89-.63.51c-.82-.44-1.62-1.19-2.47-1.25-2.15-.16-4.11-.09-5.39,2.45-.93,1.84-3.24,3-4.33,4.77-1.68,2.79-3.72,2.94-6.61,2.35-2.21-.46-4.9-1-6.6,1.84l-4.35-1.82c6.71-4.35,13.55-8.51,20.1-13.1A182.22,182.22,0,0,0,126,93.5a28.94,28.94,0,0,0,7.11-9.16c1.52-3.33,1.7-7.33,2.19-11.07.94-7.25,1.69-14.52,2.53-21.79A3.35,3.35,0,0,1,138.29,50.61Z"/><path class="cls-18" d="M184.3,387c0-.08,0-.19,0-.24-2.8-3.36-2.67-3.25,1.37-5.59,7.29-4.22,14.23-9.06,21.68-12.95,8-4.16,16.35-7.51,24.54-11.25,3-1.37,6-2.7,8.9-4.29,3.13-1.74,3.5-1.74,4.68,1.69.45,1.32.71,2.71,1.06,4.07-1,3.07-4.17,2.49-6.28,3.65-8.93,4.9-18,9.6-27,14.29-7,3.62-13.93,7.38-21.13,10.53C189.89,387.87,186.92,387,184.3,387Z"/><path class="cls-19" d="M232.79,390.69c-.47-1.42-.94-2.84-1.42-4.26l-2.08-.91c-1.1-.9-2.15-1.17-3.06.25l-2.45.28c-.5-.37-1-.94-1.52-1-.27,0-.68.83-1,1.28l-1.41-.07-1.57-.26-15.36-2.16.06-.6,40.79-20.95c.29,6.17.51,12.11.91,18,.12,1.77-.22,3.06-1.78,4-2.51,1.52-5,3.08-7.49,4.65C234.51,389.49,233.66,390.11,232.79,390.69Z"/><path class="cls-10" d="M260.23,247.38c-9.12.17-18.23.41-27.35.48-12.95.1-25.9,0-38.85.11a159.88,159.88,0,0,0-46,7.32c-.39.12-.81.19-1.21.28-1.82.05-3.64,0-5.45.16-2,.15-4.07.44-6.11.67,3.45-1.29,6.79-3.12,10.36-3.8,11.9-2.25,23.82-4.47,35.83-6,13.18-1.66,26.43-2.79,39.69-3.67,15.34-1,30.72-1.53,46.08.18l1.12,1.91c-1.87.37-3.46.59-5,1A25,25,0,0,0,260.23,247.38Z"/><path class="cls-20" d="M278.87,320.41l-2.54.53c-2.76-3.81-5.41-7.7-8.31-11.41-3.48-4.44-7.17-8.71-10.77-13.06l3.51.23a41.11,41.11,0,0,1,3.22-5.18c3.59-4.28,7.33-8.43,11.07-12.58,1.53-1.69,3.21-3.22,4.82-4.83-.58,5.21-1,10.44-1.78,15.62-1.33,8.85-2.16,17.7-.88,26.61A17.7,17.7,0,0,0,278.87,320.41Z"/><path class="cls-21" d="M129.33,264.88c2.1,3,4.44,2,7.34,1,4.07-1.43,8.43-2,12.69-2.88a40.38,40.38,0,0,1,4.41-.42c-.24,1.35-1,2.8-.65,4,.69,2.83-1.22,5.28-.75,8,.08.49.92,1,1.5,1.19a22.21,22.21,0,0,0,2.84.19c2.17.24,4.34.48,6.5.83,1.31.21,3.23.24,3.7,1s-.24,2.57-.62,3.86c-.76,2.53-1.73,5-2.45,7.56-.28,1,.27,2.32-1.5,2.22-5.17-6.6-11.94-11.29-18.79-15.94-6.06-4.1-12.86-6.39-19.7-8.66Z"/><path class="cls-17" d="M187.37,345.6l-9.66,2.87c1.61-15-2.64-29-6.84-43,2.54,1.48,5.08,3,7.6,4.44,2.34,1.38,4.63,2.83,7,4.16,2.19,1.24,1.18,3.44,1.54,5.17.3,1.45-.18,3-.34,4.9-2.81,1.43-5.37,7.44-4.32,11.07,0,.16.07.43.16.46,3.4,1.07,1.91,5,4.1,6.94C187.24,343.16,187.14,344.57,187.37,345.6Z"/><path class="cls-15" d="M279.87,274.11c-1.61,1.61-3.29,3.14-4.82,4.83-3.74,4.15-7.48,8.3-11.07,12.58a41.11,41.11,0,0,0-3.22,5.18l-3.51-.23-2.51-2.91c2.08-3.07,4-6.3,6.29-9.22,6.75-8.53,13.64-16.95,20.54-25.36,2.12-2.58,4.46-5,6.7-7.47l0,0c-1,2.87-2,5.72-3,8.59-1.35,3.87-2.68,7.74-4,11.61-.22.61-.46,1.21-.7,1.82l-.73.57Z"/><path class="cls-16" d="M46.34,438.31c.85,2.55,3,3.84,5.11,5.11l-3,1-23.55-1.53c-1.41-.09-2.71.07-3.05,1.81l-9.28.25-4.25-2.58c5.6-4.65,12.18-6.1,19.24-5.66C33.85,437.09,40.09,437.76,46.34,438.31Z"/><path class="cls-7" d="M172.4,47.52c-1.44-.62-2.93-1.16-4.31-1.89-1.58-.85-3.07-1.88-4.61-2.83l-.44.58c1.16,2.42,2.41,4.81,3.43,7.28.44,1,2.1,2.12.35,3.44l-.95,0-3-2.49-17-10.53q-2.29-1.2-4.57-2.42c.43-.85.65-2,1.33-2.47,2-1.36,2.85-2.94,1.83-5.26,6.91,3.59,13.9,7,20.69,10.84C167.79,43.23,170,45.57,172.4,47.52Z"/><path class="cls-18" d="M270.7,213.68c-.84-2.58-1.38-5.3-2.58-7.7a175.08,175.08,0,0,1-9.58-23.31c-2.81-8.45-6-16.77-9-25.15-1.14-3.19-2.22-6.39-3.27-9.61-.13-.41.14-.94.23-1.42,2.56,6.11,5.06,12.25,7.7,18.32,6.2,14.28,10.38,29.36,17.45,43.32,3.73,7.36,6.42,15.24,9.57,22.88l-3.42.93c-1-3.21-1.95-6.47-3.19-9.59a63.94,63.94,0,0,0-3.32-6.35C271.07,215.23,270.89,214.45,270.7,213.68Z"/><path class="cls-13" d="M61.16,140.05c1.1,2.28,1.9,4.58.6,7.06-4.29-2.44-8.4-5.29-12.9-7.23a50.36,50.36,0,0,0-23.51-4.29,14.27,14.27,0,0,1-3.63-.2c8.59-.61,17.18-1.18,25.76-1.86,4-.31,7.89-.83,11.84-1.25-.12,1.36-.28,2.72-.34,4.09C58.92,138,59.12,139.61,61.16,140.05Z"/><path class="cls-12" d="M288.15,238.57c-1.11-3.52-2.11-7.08-3.38-10.55q-4.92-13.38-10.06-26.68c-.95-2.45-2.38-4.71-3.49-7.1a72.82,72.82,0,0,1-6.43-20.47c1.53,4.11,3,8.26,4.62,12.31,3.62,8.8,7.5,17.49,11,26.33,3.79,9.53,7.24,19.2,10.95,28.76a2.68,2.68,0,0,1-.63,3.31c-.48-1-1-2-1.45-3-.08-.22-.15-.45-.22-.67s-.2-.56-.29-.84l-.44-1-.19-.44Z"/><path class="cls-10" d="M129.33,264.88l-5.48,2c-5-2.05-9.75-.13-14.55,1l-.46-.39,23.45-10.11a10.58,10.58,0,0,1-2,1.83c-3.18,1.71-3.26,1.93-1,4.76Z"/><path class="cls-13" d="M199.08,69.57a41.59,41.59,0,0,1-4.83-2.88C189,62.52,183.78,58.31,178.69,54c-2.29-2-4.26-4.27-6.37-6.41,8.22,3.8,15.77,8.44,21.17,16A60.74,60.74,0,0,0,199.08,69.57Z"/><path class="cls-14" d="M129.34,264c-2.28-2.83-2.2-3.05,1-4.76a10.58,10.58,0,0,0,2-1.83l3-1c2-.23,4.07-.52,6.11-.67,1.81-.14,3.63-.11,5.45-.16-2.4.85-4.79,1.74-7.21,2.54a35.56,35.56,0,0,0-7.09,2.86l4.3-.88a22.55,22.55,0,0,1-3.5,2.74A18.52,18.52,0,0,1,129.34,264Z"/><path class="cls-22" d="M149.29,414.94l-3.48,2.8c.21.38.37.65.51.93,1.81,3.54,4,6.35,8.57,4.24-3.84,3.69-8.75,2.71-12-2.45-.67-1.07-1.61-2.1-.22-3.5s2.24-3.19,4.66-2.28A8.25,8.25,0,0,0,149.29,414.94Z"/><path class="cls-16" d="M260.23,247.38a25,25,0,0,1,3.12-1.34c1.54-.42,3.13-.64,5-1l-1.12-1.91,8,.63c-.17,1.07-.35,2.14-.52,3.22Z"/><path class="cls-23" d="M144.44,30.9c1,2.32.21,3.9-1.83,5.26-.68.46-.9,1.62-1.33,2.47L139.13,38,140.41,29Z"/><path class="cls-12" d="M262.07,166.81c-.17,0-.43,0-.47-.05-2.51-4.39-4.75-8.89-5.31-14Z"/><path class="cls-23" d="M263.8,337.21c0-2.43,0-4.85,0-7.28l2.94,4.9Z"/><path class="cls-23" d="M27.1,451.9l13-1C35.83,452.16,31.54,453,27.1,451.9Z"/><path class="cls-12" d="M199.38,59.08c-2.86-.7-5.09-2.14-6-5.13Z"/><path class="cls-24" d="M182.3,358.37l-5.48,1.52c0-.51,0-1,0-1.54Z"/><path class="cls-23" d="M117,413.55a9.08,9.08,0,0,1,7-4.53Z"/><path class="cls-12" d="M264,171.46l-2-4.57Z"/><path class="cls-16" d="M221.24,386.3c.34-.45.75-1.32,1-1.28.54.09,1,.66,1.52,1Z"/><path class="cls-16" d="M226.23,385.77c.91-1.42,2-1.15,3.06-.25Z"/><path class="cls-14" d="M176.81,358.35c0,.52,0,1,0,1.54l-1-1.38Z"/><path class="cls-16" d="M218.26,386l1.57.26Z"/><path class="cls-23" d="M114.94,415.05l1.46-1.1Z"/><path class="cls-15" d="M288.72,250l-.48,1.5,0,0,.51-1.51Z"/><path class="cls-12" d="M264.74,173.54c-.15-.43-.3-.86-.46-1.29C264.44,172.68,264.59,173.11,264.74,173.54Z"/><path class="cls-23" d="M113.36,416l1-.6Z"/><path class="cls-12" d="M256.27,152.57l-.48-1.2Z"/><path class="cls-23" d="M123.9,409.06l.94-.65Z"/><path class="cls-23" d="M125.94,407.61l.85-.73Z"/><path class="cls-23" d="M125.36,408l.64-.5Z"/><path class="cls-23" d="M124.82,408.42l.61-.48Z"/><path class="cls-23" d="M126.81,406.87l.58-.46Z"/><path class="cls-12" d="M193.43,54.05l-.62-.54Z"/><path class="cls-23" d="M116.35,414l.63-.5Z"/><path class="cls-12" d="M264.2,172l-.36-.65Z"/><path class="cls-23" d="M114.34,415.45,115,415Z"/><path class="cls-23" d="M112.82,416.33l.62-.39Z"/><path class="cls-3" d="M288.15,238.56l.19.44Z"/><path class="cls-3" d="M288.78,240c.09.28.19.56.29.84C289,240.54,288.87,240.26,288.78,240Z"/><path class="cls-20" d="M279.78,274.07l.73-.57Z"/><path class="cls-17" d="M221.78,179a20.49,20.49,0,0,1,2.48,0c1.05.13,2,0,2.39,1.71.31,1.25,2.32,2.33,3.8,3,1.71.74,3.76.71,5.49,1.43a6.3,6.3,0,0,1,2.73,2.59c1,1.62,1.62,1.63,2.68.16,1.22-1.69,2.48-.63,3.2.41s1.08,2.73,1.75,4.05a8,8,0,0,0,1.51,1.64c5.87,4.2,11.53,8.65,16,14.41q1,3.27,1.93,6.54c-.95-1-1.93-2-2.84-3a108.33,108.33,0,0,0-38.23-27.72,2.6,2.6,0,0,0-.8-.07l-.32.53c20.15,8.62,35.7,22.65,48.22,40.27l-.09,2.57c-2.13-1.72-4.35-3.34-6.36-5.19-14.39-13.3-30.3-24.59-46.64-35.29-8.26-5.4-16.64-10.62-25.06-15.77a125,125,0,0,0-13.91-7.71c-8-3.57-16.22-6.63-24.35-9.92a159.23,159.23,0,0,0-31.23-8.89c-5-.92-10.13-1.46-15.2-2.17-1.73-.49-3.46-1-5.2-1.47-3.07-.81-3.34-.58-3.45,2.71l-20-4.11c.41-.37.81-1.05,1.23-1.05,2.33,0,4.67.24,7,.13a30.7,30.7,0,0,0,4.35-.93,18.66,18.66,0,0,1,4.33-.72c2.4.1,4.79.61,7.19.86,1.88.19,3.79.17,5.67.42a6.38,6.38,0,0,1,3.19,1.06,3.79,3.79,0,0,0,5.59-.32L117.5,138c3.13.71,5.47-.5,7.59-2.46a.82.82,0,0,1,.47-.14c4-.2,6.41-3,9-5.53.81-.78,1.39-2,2.46-.73.43.51.07,1.69.07,2.84.41.2,1.81.43,2.09,1.12,1,2.34,3.24,2.14,5,2.66,1.52.46,3.36-.09,5.06-.2l.28-1.27c-1.79-1-3.62-1.88-5.37-2.92-.69-.41-1.18-1.15-1.84-1.64a20.66,20.66,0,0,0-4.46-3.1c-1.74-.7-2.87-2.55-1.91-4.19.7-1.21,1.39-2.43,2.17-3.8a4.34,4.34,0,0,1,.9.35c2.89,1.79,5.75,3.62,8.67,5.35.3.18.89-.17,1.35-.25a24.58,24.58,0,0,1,3.85-.59c3.29,0,6.59.38,9.87.22a60.44,60.44,0,0,0,7.59-1.28c.55-.1,1.37-.14,1.59-.49,1-1.7,2.52-1.08,3.92-.9a5.21,5.21,0,0,0,4.44,3.62c2.49.44,4,3,3.74,5.61a2.52,2.52,0,0,0,.33,1.62c1.29,1.76,2.7,3.44,4.21,5.33l1.64-.55c.4,1.1.58,2.59,1,2.67,2.36.43,3.62,2.72,5.45,3.37,3.69,1.32,1.78,4.44,3.43,6.48-2.39.32-4.25.69-6.13.8-3.12.17-5.91-1.72-6.48-4.32L179.36,144l.23.63-3.73,2.83a10.28,10.28,0,0,0,7.25,8c1.71.56,3.57.62,5.33,1,3.17.73,6.29,1.65,9.47,2.3,1.68.34,3.71,3.22,3.08,4.8-1.26,3.15.5,7.07,3.28,8.07.61,1.09,1.28,2.62,2.22,2.82,2,.41,4.13.12,6.51.12,1.39,3.8,3.45,7.39,8.29,7.86C221.47,181.17,221.62,180.1,221.78,179Z"/><path class="cls-1" d="M80.26,139.74l20,4.11c23,6.07,46.33,10.85,68.33,20.33a230.26,230.26,0,0,1,28.63,14.42c7.3,4.43,14.17,9.58,21.19,14.48,7.34,5.14,14.73,10.23,21.91,15.59,5.32,4,10.48,8.19,15.45,12.6,5.46,4.84,10.56,10.09,15.93,15,2.63,2.43,5.51,4.61,8,7.44h-4.47l-8-.63c-15.36-1.71-30.74-1.19-46.08-.18-13.26.88-26.51,2-39.69,3.67-12,1.52-23.93,3.74-35.83,6-3.57.68-6.91,2.51-10.36,3.8l-3,1-23.45,10.11c.16-.5.19-1.28.52-1.45,6-3,11.94-6.1,18-8.9a61.66,61.66,0,0,1,10.71-4c8.83-2.22,17.71-4.31,26.65-6,7.49-1.42,15.07-2.47,22.66-3.25,11.31-1.16,22.65-2.24,34-2.81,11.12-.56,22.27-.5,33.4-.61,2.81,0,5.63.34,8.44.52l9.5,1,3.77.59a7.93,7.93,0,0,0-2.25-2.43q-6.86-5.93-13.69-11.89c-2.42-2.12-4.81-4.28-7.22-6.43l-8.07-6.29a23.53,23.53,0,0,0-2.43-2.46c-5.61-4.28-11.18-8.62-16.94-12.7-6.7-4.76-13.57-9.29-20.4-13.86-3.85-2.57-7.78-5-11.68-7.54-7.25-3.82-14.32-8-21.8-11.35-8.32-3.68-16.93-6.8-25.57-9.67-6.59-2.19-13.43-3.61-20.15-5.37-5.67-1.53-11.31-3.15-17-4.56-8.13-2-16.29-3.85-24.43-5.76-7.72-1.81-15.58-2.09-23.46-2.22.57-.33,1.12-.93,1.69-.94,4.41-.08,8.82,0,13.23,0Z"/><path class="cls-5" d="M108.93,142.61c5.07.71,10.17,1.25,15.2,2.17a159.23,159.23,0,0,1,31.23,8.89c8.13,3.29,16.35,6.35,24.35,9.92a125,125,0,0,1,13.91,7.71c8.42,5.15,16.8,10.37,25.06,15.77,16.34,10.7,32.25,22,46.64,35.29,2,1.85,4.23,3.47,6.36,5.19l6.06,5c1.73,1.88,3.48,3.75,5.17,5.65.24.26.24.73,0,1.38-1.21-1.1-2.39-2.22-3.63-3.27-9.91-8.35-19.68-16.88-29.8-25A380.4,380.4,0,0,0,210.54,184c-6.44-3.93-12.6-8.31-19.08-12.17-10.91-6.49-22.15-12.33-34.37-16.11-5.85-1.81-11.48-4.37-17.4-5.89-8.8-2.27-17.77-3.89-26.65-5.85A39,39,0,0,1,108.93,142.61Z"/><path class="cls-1" d="M288.78,250l-.51,1.51c-2.24,2.49-4.58,4.89-6.7,7.47-6.9,8.41-13.79,16.83-20.54,25.36-2.31,2.92-4.21,6.15-6.29,9.22l2.51,2.91c3.6,4.35,7.29,8.62,10.77,13.06,2.9,3.71,5.55,7.6,8.31,11.41v1.88c-1.33-1.51-2.54-2.42-3.15-3.64-2.6-5.18-7.32-8.53-10.82-12.93-3.12-3.92-6.18-7.9-9-12-.37-.54.37-2.18,1-3,4.57-6.29,9-12.68,13.92-18.73,6.29-7.79,12.93-15.31,19.46-22.91C287.77,249.47,288.4,249.85,288.78,250Z"/><path class="cls-15" d="M277.74,232.54l-6.06-5,.09-2.57c1.8.09,1.21-.82.61-1.59-2.19-2.83-4.42-5.63-6.64-8.43q-1-3.27-1.93-6.54a16.71,16.71,0,0,1,6.74,8.61l.71-1a63.94,63.94,0,0,1,3.32,6.35c1.24,3.12,2.14,6.38,3.19,9.59Z"/><path class="cls-10" d="M365.21,352.45l-7.94-2.13a42.6,42.6,0,0,1,2.8,3.78c4.34,7.27,8.52,14.63,12.92,21.85a85.61,85.61,0,0,1,8.53,17.4,30.94,30.94,0,0,1,.35,19.45,212,212,0,0,1-9.93,26.54,27.59,27.59,0,0,1-2.27,3.51q.54-3.19,1.06-6.39c1.92-5.87,4.07-11.67,5.69-17.62,1.57-5.8,2.65-11.73,3.84-17.62a5.24,5.24,0,0,0-.54-2.63c-.8-2.08-1.71-4.12-2.57-6.17.15-.52.57-1.13.42-1.52a45.53,45.53,0,0,0-2.69-6.1c-1.93-3.36-4.18-6.54-6.13-9.88-3.48-6-6.95-11.94-10.15-18.06a3,3,0,0,0-3.46-1.89c-.7-.73-1.39-1.47-2.91-3.09a40.07,40.07,0,0,1-2.34,3.56c-6,7.28-12.05,14.57-18.18,21.77-3,3.53-6.25,6.88-9.39,10.3-5.2,5.66-9.93,11.87-15.72,16.85-9.74,8.38-20.16,16-30.28,23.91-.71.55-1.33,1.23-2,1.85l.42.52c.56-.38,1.15-.73,1.69-1.14q5.88-4.37,11.75-8.76a38,38,0,0,1-2.49,3.13c-2.95,3-6,6-9,9L254,443.14c2-4.48,5.35-7,9.08-9.18a182.39,182.39,0,0,0,30.41-21.54c5.56-5,11.38-9.73,16.51-15.13,5.52-5.82,10.28-12.35,15.56-18.42,5.43-6.26,11.08-12.33,16.64-18.49l4.11-1.44-.11-.88-1.64-.67,4.23-4.6-.34-.6-3.6,2.47-.59-2.27a85.11,85.11,0,0,0-8.61.32c-8.45,1.11-16.88,2.41-25.31,3.67-1.36.2-2.69.54-4,.82l-.42-.72c1-.69,1.9-1.46,2.92-2.06,3.76-2.25,7.56-4.44,11.34-6.65l0,0c.28,1.48,1.14,1.83,2.6,1.7,7.51-.67,15-1.37,22.55-1.79a34.39,34.39,0,0,1,7.87.82c4.06.74,8.08,1.7,12.11,2.57Zm-93.94,79.94.49.57,2.9-2.22c-.17-.21-.33-.42-.5-.62Z"/><path class="cls-18" d="M392.84,301.36l-.68,3.18c-7.42.43-14.83,1-22.25,1.26-2.91.11-4.87,1.25-6.08,3.83a11.51,11.51,0,0,0-2.72.3q-5.33,2-10.58,4.11c-3.52,1.45-6.94,3.14-10.48,4.48-8,3-14.47,8.07-20.22,14.37-4.5,4.92-10.07,8-17.26,6.65-4.78-.9-9.63-1.43-14.45-2.12-.24,0-.59.05-.72-.09-1.83-1.82-3.62-3.67-5.76-5.87l5.14-1.07,1.48.11.46.74.51-.69,2.56.51.75.36.71,0c3,2.1,6.19,1.79,9.47,1,5.54.91,8.93-2.32,11.77-6.32,3.94-5.53,9.4-9.23,15.35-11.9,10.08-4.55,20.46-8.44,30.89-12.68-.89-2.07.53-2.91,2.77-2.9,5.56,0,11.19-1.16,16.57,1.59a6.61,6.61,0,0,0,4.84-.16C387.94,298.89,390.54,298.71,392.84,301.36Z"/><path class="cls-19" d="M282.33,362.25c.12,3.51,2.23,5.29,5.38,6.18.54,1.2,1.09,2.4,1.77,3.88a86.73,86.73,0,0,1-32.24,11.52c1.4-3,3.05-5.69,3.94-8.64s1.09-6.13-.92-8.93v-.17l20.31-8Z"/><path class="cls-15" d="M344.21,352.39l.59,2.27L337.28,363a21.57,21.57,0,0,0-3.7.25c-5.48,1.26-10.92,2.67-16.4,3.92-2.54.58-5.14.91-7.71,1.35l-2.79-1.5c.34,1.77.57,2.92.89,4.63L303,368.89l-2.21,3.7-.51-.2c.11.7.22,1.4.38,2.45h-2.77l7.41-16.43h4.89c3.52,1.25,6.67.37,9.63-1.64q11.11-1.9,22.22-3.84C342.8,352.81,343.5,352.57,344.21,352.39Z"/><path class="cls-16" d="M439.63,381.58c-2.91-1.89-5.65-4.14-8.76-5.59-6.81-3.19-13.8-6-20.72-8.91l1.21-1.35c9.52,3.62,19.1,7.16,27.7,12.71a29.13,29.13,0,0,1,6.29,6.3q7.2,8.88,14.06,18c1,1.28,1.21,3.07,1.79,4.63-.19-.14-.44-.23-.55-.42A103.54,103.54,0,0,0,439.63,381.58Z"/><path class="cls-16" d="M460.63,408.41c.55.72,1.38,1.36,1.59,2.16,1.08,4.19,2,8.41,2.95,12.64a9.48,9.48,0,0,1,0,2.19l-2.48,1.39c-.33-1.42-.62-2.68-.9-3.93q-1.08-4.19-2.14-8.37c-1.15-3.28-2-6.77-5.42-8.61a2.7,2.7,0,0,1-.07-.41c-.24-1.24-.41-2.5-.73-3.73-.52-2-1.14-3.89-1.71-5.83.49.62,1,1.23,1.47,1.89Q456.9,403.1,460.63,408.41Z"/><path class="cls-10" d="M411.36,365.73l-1.21,1.35-25.41-8.8-4.54-3.87A92,92,0,0,1,390,357C397.2,359.76,404.25,362.81,411.36,365.73Z"/><path class="cls-18" d="M258.62,395.42c-.75-.48-1.52-.94-2.26-1.45-3.64-2.5-4.05-5.08-.66-7.87,1.29-1.07,3.68-.79,5.58-1.12,1,1.9,2,3.81,3,5.71l-.57,2.22Z"/><path class="cls-1" d="M460.63,408.41q-3.74-5.31-7.48-10.61c-.46-.66-1-1.27-1.47-1.89-3.62-3.86-7.26-7.71-10.85-11.59A23.43,23.43,0,0,1,439.1,382l.53-.41a103.54,103.54,0,0,1,21,25.41c.11.19.36.28.55.42l-.05,0,.06,1Z"/><path class="cls-16" d="M380.2,354.41l4.54,3.87-17-5c-.85-.25-1.68-.56-2.52-.84l0-1.43Z"/><path class="cls-25" d="M264.29,390.69c-1-1.9-2-3.81-3-5.71l7-1.87Z"/><path class="cls-21" d="M461.75,422.86c.28,1.25.57,2.51.9,3.93l2.48-1.39c.19,1.17.37,2.33.55,3.5l-8.09-3.83Z"/><path class="cls-12" d="M258.62,395.42l5.1-2.51c-.71,2.36-1.41,4.73-2.14,7.18Z"/><path class="cls-25" d="M319.86,356.77c-3,2-6.11,2.89-9.63,1.64.5-.33,1-.89,1.51-1C314.44,357.16,317.15,357,319.86,356.77Z"/><path class="cls-8" d="M302.72,332.48c-3.28.76-6.5,1.07-9.47-1l5,.57,1.77.28Z"/><path class="cls-8" d="M289.23,330.55l-.51.69-.46-.74Z"/><path class="cls-18" d="M300,332.3l-1.77-.28Z"/><path class="cls-10" d="M320.1,347.77l1-.41.07.42-1.14,0Z"/><path class="cls-16" d="M461.21,408.38l-.06-1Z"/><path class="cls-8" d="M292.54,331.42l-.75-.36Z"/><path class="cls-13" d="M461.75,422.86l-4.16,2.21c-6.18-2-12.28-4.26-18.56-5.84-8-2-16.34-3.54-24.64-2.85A47.28,47.28,0,0,0,393,424c-5.66,3.6-11,7.6-16.57,11.41a5.12,5.12,0,0,1-1.08.52c-.11,0-.3-.09-.71-.24,4.81-7.33,6.61-15.79,9.44-23.87,2.23-6.37,1.16-12.49-.67-18.74-2.38-8.13-7.18-14.93-11.21-22.17l-5.8-10.43c3.17-.42,5.59,1.06,7.83,3,.86.41,1.7.87,2.59,1.23,11.5,4.78,23.23,9.09,34.44,14.48,6.57,3.16,12.31,8,18.43,12.15l-3.36.41c-1,1.23-1.79,2.36-2.7,3.43-.26.29-1,.6-1.12.5a2.17,2.17,0,0,1-.67-1.39,5.45,5.45,0,0,1,.74-1.69l-.33-.6a10.18,10.18,0,0,0-2.17.69c-1.66,1-3,2.52-5.24,2.14-.47-.07-1-.09-1.44-.13.63,2.82,4.9,1.8,4.75,5.56-.09,2.14,1.49,4.35,2.32,6.52,2.46,1.27,5.22,2.78,8.05,4.14a94.44,94.44,0,0,0,9.89,4.38c2.57.9,5.72.35,6.9,3.42,1.1-.49,1.84-.88,2.63-1.17a18.41,18.41,0,0,0,3.46-1.23c2.93-1.83,3.17-5,3.79-8,.54.78,1.08,1.57,1.63,2.34l2.77,3.84Q460.67,418.67,461.75,422.86Zm-42.23-32.07c-5.09-5.05-32-20-34.47-19.62Z"/><path class="cls-25" d="M276.74,432.9c3-3,6-6,9-9a38,38,0,0,0,2.49-3.13c8.22-6.55,16.6-12.93,24.61-19.73,3.5-3,6.25-6.82,9.35-10.28.93,2.28,3,1.53,4.67,1.71L315,404.36l.49.5,13.27-12.46,5.08,0c-.35.51-.69,1-1,1.55,6.06-4.5,10.11-10.6,14.22-16.65l3.52,1.19q-2.43,5.33-4.88,10.65l.75.34,3.26-6.64c3.18,0,5.11,2.3,6.32,4.49a11.34,11.34,0,0,1,.25,10.92c.78.54,1.4.95,2,1.4,1.93,1.5,1.89,2.13-.28,3.4-2.58,1.51-3.24,4.37-4.55,6.71a3,3,0,0,0,1.17,3.89,14.86,14.86,0,0,1,4.12,4.73c1.84,3.35-1.62,5.47-2.44,8.23a1.85,1.85,0,0,1-2.69,1.36c-.34-.15-1.21.58-1.63,1.08-1,1.22-3.78,2.05-4.51.91-1.13-1.77-2.82-1.47-4.32-1.92s-2.88-1.12-4.28-1c-2.2.15-4.35.5-6.54-.09-.2-.06-.67.85-1,1.31l-12.5-1.48c-.25-.46-.43-1.26-.75-1.32-2.39-.45-3.4-2.3-4.82-4-1.11-1.28-3.15-2.57-4.72-2.5a21.45,21.45,0,0,0-12.29,4.58c-1.44,1.12-2.23,3.09-3.32,4.67Z"/><path class="cls-11" d="M350.51,378.53,347,377.34c.88-1.57,1.79-3.12,2.62-4.72.74-1.44,1.39-2.93,2.09-4.4l-.79-.38c-.43.85-.84,1.72-1.29,2.56-4.33,8-9.24,15.62-15.81,22l-5.08,0c4.81-6,9.67-12,14.42-18.12,1.93-2.48,3.71-5.1,5.41-7.75.66-1,1-2.33-.59-2.12a44.81,44.81,0,0,1-2.6,4.95c-2,2.85-4.13,5.63-6.33,8.33-4,5-8.14,9.84-12.22,14.75-1.7-.18-3.74.57-4.67-1.71a32.74,32.74,0,0,1,2-2.81q12.74-14.81,25.51-29.56c1.84,3.12,3.71,6.21,5.5,9.36,3.73,6.55,7.63,13,11,19.73A35.12,35.12,0,0,1,370,398.87a54,54,0,0,1-1.49,20.25q-4,14.85-7.95,29.72c-.35-.83-.73-1.64-1-2.49-2.42-7.14-6.89-12.1-14.44-14-4.67-1.2-9.27-2.69-13.91-4,.34-.46.81-1.37,1-1.31,2.19.59,4.34.24,6.54.09,1.4-.1,2.86.6,4.28,1s3.19.15,4.32,1.92c.73,1.14,3.51.31,4.51-.91.42-.5,1.29-1.23,1.63-1.08a1.85,1.85,0,0,0,2.69-1.36c.82-2.76,4.28-4.88,2.44-8.23a14.86,14.86,0,0,0-4.12-4.73,3,3,0,0,1-1.17-3.89c1.31-2.34,2-5.2,4.55-6.71,2.17-1.27,2.21-1.9.28-3.4-.58-.45-1.2-.86-2-1.4a11.34,11.34,0,0,0-.25-10.92c-1.21-2.19-3.14-4.52-6.32-4.49l5.05-9.71-.6-.33Z"/><path class="cls-11" d="M309.47,368.52c2.57-.44,5.17-.77,7.71-1.35,5.48-1.25,10.92-2.66,16.4-3.92a21.57,21.57,0,0,1,3.7-.25l-15.21,17.08-6.6,7.41a49.73,49.73,0,0,0-6.65,2.18c-2.37,1.15-3.8,3.95-6.91,4-.43,0-.85.73-1.27,1.13a38.57,38.57,0,0,1-3.76,3.49c-3.12,2.21-6.81,3.62-9,7.09-.53.85-2.11,1.05-3.2,1.54-.12-2.27,1.27-3.67,2.89-4.93,1.24-1,2.45-2,3.73-2.86,5.29-3.67,8.56-8.7,10.84-14.69,1.76-4.61,4.43-8.87,6.63-13.32A13.83,13.83,0,0,0,309.47,368.52Z"/><path class="cls-9" d="M374.25,363.49c-2.24-2-4.66-3.46-7.83-3l-5.13-7.77c4.46,1.24,8.77,2.22,12.93,3.62q22.09,7.45,44.1,15.18c2.55.89,4.94,2.23,7.4,3.36.17.45.21,1.08.53,1.32,2.9,2.13,5.67,4.53,8.83,6.19,3.39,1.77,3.67,1.71,2.66,5.28a5,5,0,0,0,0,1.23,34.07,34.07,0,0,0-3.87-2.61c-4.78-2.4-9.53-4.91-14.48-6.91-3-1.21-6.34-1.57-9.53-2.31-8.08-3.47-16.11-7.09-24.28-10.35C381.93,365.24,378,364.53,374.25,363.49Z"/><path class="cls-7" d="M360.6,448.84q4-14.85,7.95-29.72A54,54,0,0,0,370,398.87a35.12,35.12,0,0,0-3.88-11.42c-3.41-6.72-7.31-13.18-11-19.73-1.79-3.15-3.66-6.24-5.5-9.36l2.86-4c.58.47,1,.66,1.19,1,2.58,4.64,5.06,9.33,7.69,13.94,3.56,6.25,7.23,12.44,10.85,18.66.22,1.14-.12,2.62,1.7,2.8h0c.29,1.94.44,3.92.92,5.81a17.26,17.26,0,0,1,.17,8.77c-.88,3.42-1.47,6.91-2.3,10.35a92.05,92.05,0,0,1-3.11,11.42,32.59,32.59,0,0,0-1.85,11.64,26.54,26.54,0,0,0,1,5.28l-1.49,2.84-6.2,3.57C360.93,449.88,360.76,449.36,360.6,448.84Z"/><path class="cls-26" d="M284.67,406.92c1.09-.49,2.67-.69,3.2-1.54,2.2-3.47,5.89-4.88,9-7.09a38.57,38.57,0,0,0,3.76-3.49c.42-.4.84-1.12,1.27-1.13,3.11-.05,4.54-2.85,6.91-4a49.73,49.73,0,0,1,6.65-2.18,98,98,0,0,1-20.06,21c-7.3,5.62-14.43,11.45-21.64,17.19,1.29-1.95,2.69-3.84,3.84-5.86C280,415.56,282.32,411.22,284.67,406.92Z"/><path class="cls-7" d="M437.7,388.86a5,5,0,0,1,0-1.23c1-3.57.73-3.51-2.66-5.28-3.16-1.66-5.93-4.06-8.83-6.19-.32-.24-.36-.87-.53-1.32L439.1,382a23.43,23.43,0,0,0,1.73,2.33c3.59,3.88,7.23,7.73,10.85,11.59.57,1.94,1.19,3.87,1.71,5.83.32,1.23.49,2.49.73,3.73l-6.93-7.08-1.51-1.49-2.51-2.48-1-1h0l-1-1a3.43,3.43,0,0,1-.44-.09l-2-2.44Z"/><path class="cls-17" d="M292.83,428.28c1.09-1.58,1.88-3.55,3.32-4.67A21.45,21.45,0,0,1,308.44,419c1.57-.07,3.61,1.22,4.72,2.5,1.42,1.65,2.43,3.5,4.82,4,.32.06.5.86.75,1.32Z"/><path class="cls-16" d="M368.78,444a26.54,26.54,0,0,1-1-5.28,32.59,32.59,0,0,1,1.85-11.64,92.05,92.05,0,0,0,3.11-11.42c.83-3.44,1.42-6.93,2.3-10.35a17.26,17.26,0,0,0-.17-8.77c-.48-1.89-.63-3.87-.92-5.81,2,3.79,5,7.33,4.18,11.94-1.21,6.58-2.82,13.1-4.39,19.61-.62,2.57-1.8,5-2.38,7.58a49.82,49.82,0,0,0-.63,6.61q-.53,3.19-1.06,6.39Z"/><path class="cls-12" d="M361.09,450.4l6.2-3.57c-1.61,2.91-3.21,5.83-5.08,9.23C361.78,453.86,361.43,452.13,361.09,450.4Z"/><path class="cls-18" d="M344.51,357.39l1.64.67.11.88-4.11,1.44C342.94,359.39,343.73,358.39,344.51,357.39Z"/><path class="cls-5" d="M48.48,444.41l3-1c6.45-3,13.11-5.59,19.31-9,8.18-4.54,16-9.73,24-14.64.54-.33,1.09-.65,1.64-1l.43.61L82.07,429.71c-8.64,4.48-17.26,9-25.95,13.41a32.44,32.44,0,0,1-6.07,2.08C49.63,445.32,49,444.69,48.48,444.41Z"/><path class="cls-5" d="M12.6,444.94l9.28-.25,20.82,1.39c-10.44,2.21-20.34-1.09-30.4.1Z"/><path class="cls-25" d="M146.94,84.23c-.13-2.07.28-2.32,2.92-1.9s5.33,1,7.32,3.23c.54.61,1.83.54,2.3.66.77,1.59,1.12,3.19,2.09,4.14,2.5,2.42,6.06,1.49,7.65-1.73,1.47-2.95,1.84-6.61,5.27-8.33a.75.75,0,0,0,.25-.66c-1.31-4.5,2.15-5.71,5-7.39.39-.22.61-.75,1-1.33l5.65,4.63c-2.45,3-2.29,5.82.42,8.71l-2.37,1.81,7.94,5.63-.41.72L189,92.13c.72.91,1.05,1.77,1.51,1.84,2.29.38,2.47,1.85,2.21,3.69s.93,2.7,2.87,2c1.29-.43,3.09-1.32,3.89-.8a14.49,14.49,0,0,1,4.09,4.56c.39.62-.35,1.94-.7,3.45a41.83,41.83,0,0,1,4.24,2.24,4.45,4.45,0,0,1,2,2.3c.34,1.77,0,3.67.28,5.45.39,2.36,1.56,4.41,4,5.22,3.28,1.09,5.89,3.41,6.4,6.49.4,2.42,1.8,3.76,2.89,5.47a39.31,39.31,0,0,0,3.35,4c1.07,1.28,1.16,2.21-.61,3.1a7,7,0,0,0-2.52,2.63c-.32.5.05,1.43.14,2.63-2.51,2.2-2.95,2.18-5.07-1.07-1.46-2.25-2.68-4.67-4.23-6.86a3.73,3.73,0,0,0-2.5-.89c-1.43-.12-2.95.15-3-2a1.3,1.3,0,0,0-.54-.79c-1.82-1.41-3.75-2.7-5.46-4.24a11.75,11.75,0,0,1-1.74-2.88c-2.38,1.4-5.6,1.42-7-.39s-2.3-4.15-3.57-6.55c-3.49.58-6.29-2.18-9.53-3.82-.36-.18-.85-.45-1.15-.34-2.68,1-4.47-.92-6.61-1.81s-4.1-1.36-6.44-2.11A10.67,10.67,0,0,1,162.7,114c-1.75.08-2.81-1.23-3.18-3-.28-1.3-.73-2-2.39-1.54s-2.95,0-2.88-2.19c0-.63-.6-1.29-.92-1.93a6,6,0,0,1-.85-1.77c-.35-3.81-.53-4-4.2-4.58-.32,0-.62-.17-.41-.11-.69.9-1.13,2-1.69,2.1-3.47.43-3.48.35-6.58,2-.33-.41-.66-.86-1-1.28s-.68-.7-1.13-1.16L139.53,98c-2-1.25-2-1.25-.8-4.5-.48-.23-1-.45-1.48-.71-1.38-.77-1.05-1.4.08-2.15,2.14-1.41,4.17-2.83,5.38-5.36C143.08,84.5,145.28,84.6,146.94,84.23Zm74.24,61.36c-.25-.2-.4-.41-.57-.42s-.4.14-.6.22a2.07,2.07,0,0,0,.54.56C220.65,146,220.89,145.76,221.18,145.59ZM182.42,87.53l-.54-.71c-.16.12-.48.29-.46.36a1.22,1.22,0,0,0,.42.64C181.92,87.87,182.21,87.64,182.42,87.53Z"/><path class="cls-11" d="M221.78,179c-.16,1.07-.31,2.14-.49,3.35-4.84-.47-6.9-4.06-8.29-7.86-2.38,0-4.52.29-6.51-.12-.94-.2-1.61-1.73-2.22-2.82-2.78-1-4.54-4.92-3.28-8.07.63-1.58-1.4-4.46-3.08-4.8-3.18-.65-6.3-1.57-9.47-2.3-1.76-.41-3.62-.47-5.33-1a10.28,10.28,0,0,1-7.25-8l3.73-2.83-.23-.63,8.08,1.75c.57,2.6,3.36,4.49,6.48,4.32,1.88-.11,3.74-.48,6.13-.8-1.65-2,.26-5.16-3.43-6.48-1.83-.65-3.09-2.94-5.45-3.37-.44-.08-.62-1.57-1-2.67l-1.64.55c-1.51-1.89-2.92-3.57-4.21-5.33a2.52,2.52,0,0,1-.33-1.62c.21-2.6-1.25-5.17-3.74-5.61a5.21,5.21,0,0,1-4.44-3.62,28,28,0,0,1,3.05.86c1.45.6,2.79,1.51,4.27,2,2.39.75,4.45,1.34,3.39,4.74-.33,1.06.76,2.59,1.29,3.87.64,1.56,1.85,1.68,3.28,1.13a.78.78,0,0,1,.66.24c2.79,3.76,7.48,5.76,9.41,10.32,1,2.33,3.16,2.55,5.63,2.86-.36-.93-.59-1.5-.83-2.12.28-.14.49-.35.69-.34a29.33,29.33,0,0,1,5.16.59c2.65.73,1.23,2.49.48,4.18a20.62,20.62,0,0,0,2.44.66c2.62.39,3,2.36,2.09,4.78-1.22,3.12-3.23,3.94-6.23,4.59-2.16.46-4.13,1.79-6.56,1.75-1.22,0-2.36.69-1.11,2.3a3.54,3.54,0,0,1,.33,1.64c.08.72.11,1.45.16,2.18.67-.28,1.35-.56,2-.85.22-.1.43-.23.62-.33,3.15,1.68,3.35,2.64,1.16,5.15-.22.26-.4.87-.25,1.09s.84.74,1.13.64a18.83,18.83,0,0,0,2.8-1.55c1.43,1.27,3.24,3,5.24,4.57a4.54,4.54,0,0,0,2.93.82C220.84,176.65,221.76,177.18,221.78,179ZM203,154.9c3-.42,2.87-.26,5.51,1.87.91.73,3.08,1,3.9.46a6,6,0,0,0,2-4c.16-1.83-1.35-2.33-3.09-2.21a14.82,14.82,0,0,1-2.92-.43C206.2,150.25,203.09,152.63,203,154.9Zm-17.49-4.58v.46H187v-.46Zm3.6,1.92c-.06.14-.2.31-.16.41s.26.13.4.19c.06-.14.19-.31.16-.41S189.29,152.3,189.15,152.24Zm5.76,2.12c.06-.14.2-.3.16-.4s-.26-.13-.4-.19c0,.14-.19.31-.15.4S194.77,154.3,194.91,154.36Z"/><path class="cls-11" d="M80.26,139.74,76.34,139c.57-.49,1.14-1.4,1.72-1.41,3.93,0,7.87.09,11.81.21,1.48,0,3.55-2,3.67-3.46a2.9,2.9,0,0,1,1-2c.38-.25,1.36.15,1.93.49,1,.59,1.82,1.38,2.75,2,.16.11.47,0,.87,0a8.91,8.91,0,0,1,.26-2.52,10.91,10.91,0,0,1,1.8-2.24,27.34,27.34,0,0,1,1.52,3.71c.61,2.49,2.37,2.53,4.38,2.37,2.18-.16,4.3-.71,6.4.93,1.61,1.26,2.53,0,2.54-2.16,2.35-.16,4.66-.21,6.93-.51a6.41,6.41,0,0,0,5.07-3.28c.87-1.45,3-2.18,4.61-3.14a8,8,0,0,1,2.15-.41,9.31,9.31,0,0,0-1.51-1.55c-2.51-1.41-2.62-3.72-.44-5.58s4.26-4,6.73-6.41c0-.14.09-1.23-.38-1.64-.72-.62-2.11-1.32-2.77-1-3.92,1.83-6.87.56-8.39-3.89,3.13-2.38,6.46-.56,9.69-.37.59,0,1.09,1.12,1.69,1.65s1.1,1.13,1.6,1.08c3.28-.31,3.59,2.11,4.13,4.54l3-1.89-1.46-1.84c1.44-.17,2.65-.66,3.56-.32a4.09,4.09,0,0,1,2,2.35,29,29,0,0,1,1.12,5.48c.37,2.83,2.42,2,4.52,1.81l-1.91,2.4,6.19-.68v-.72l-1.37-1.23c4.19-2.54,10.12-2.37,13.64.34.22.17.27.57.4.87-1.4-.18-2.87-.8-3.92.9-.22.35-1,.39-1.59.49a60.44,60.44,0,0,1-7.59,1.28c-3.28.16-6.58-.22-9.87-.22a24.58,24.58,0,0,0-3.85.59c-.46.08-1.05.43-1.35.25-2.92-1.73-5.78-3.56-8.67-5.35a4.34,4.34,0,0,0-.9-.35c-.78,1.37-1.47,2.59-2.17,3.8-1,1.64.17,3.49,1.91,4.19a20.66,20.66,0,0,1,4.46,3.1c.66.49,1.15,1.23,1.84,1.64,1.75,1,3.58,2,5.37,2.92l-.28,1.27c-1.7.11-3.54.66-5.06.2-1.71-.52-4-.32-5-2.66-.28-.69-1.68-.92-2.09-1.12,0-1.15.36-2.33-.07-2.84-1.07-1.26-1.65,0-2.46.73-2.58,2.49-5,5.33-9,5.53a.82.82,0,0,0-.47.14c-2.12,2-4.46,3.17-7.59,2.46l1.31,1.17a3.79,3.79,0,0,1-5.59.32,6.38,6.38,0,0,0-3.19-1.06c-1.88-.25-3.79-.23-5.67-.42-2.4-.25-4.79-.76-7.19-.86a18.66,18.66,0,0,0-4.33.72,30.7,30.7,0,0,1-4.35.93c-2.33.11-4.67-.16-7-.13C81.07,138.69,80.67,139.37,80.26,139.74Zm71.28-22.17c.43-1.82.54-3.31-1.33-3.84-.43-.12-1.59.65-1.62,1.08C148.44,116.63,149.73,117.24,151.54,117.57Zm-3.54-.75-.85-.82c-.46.5-.92,1-1.39,1.48l.73.7Zm-13.94-7.21a5.55,5.55,0,0,0-1.35-.39c-.26,0-.51.26-.76.4a2.7,2.7,0,0,0,.61.82C132.66,110.51,133,110.19,134.06,109.61Zm10.16,10c-.22-.21-.35-.44-.52-.47s-.41.12-.61.19c.15.2.26.47.46.58S143.92,119.81,144.22,119.66Zm6.39.27c-.14-.06-.31-.2-.4-.16s-.13.26-.19.39c.13.07.3.2.4.16S150.55,120.07,150.61,119.93Z"/><path class="cls-17" d="M192.81,76.52c2.62,2.52,5.22,5.06,7.85,7.57,1.14,1.08,2.33,2.12,3.54,3.13,6.45,5.41,11.28,12.07,15.4,19.36,3.34,5.92,7.38,11.49,10.32,17.59,3.77,7.8,7.84,15.55,9.83,24.11a7.31,7.31,0,0,1,.07,1.24c-2.63.89-3.15.48-2.94-2.18a2.46,2.46,0,0,0-.47-1.67c-1.74-1.83-3-3.8-2.7-6.48a2.83,2.83,0,0,0-.61-1.56c-1.69-2.68-3.49-5.3-5.12-8-.56-.94-.44-2.38-1.13-3.12-2.07-2.19-4.47-4.07-6.57-6.23a16.42,16.42,0,0,1-3.2-4.33c-1-2.06-2.16-3.47-4-3.5-.3-1.66-.47-3.06-.81-4.43-1.27-5.15-4.78-8.76-8.2-12.6-1.57-1.76-4.34-2.85-4.58-5.83,0-.4-1.34-.7-2.2-1.12l1.45-3A14.42,14.42,0,0,1,192.81,76.52Z"/><path class="cls-25" d="M230.1,174.43a7.27,7.27,0,0,1,1,1.88,11.91,11.91,0,0,1-.1,2.45,11.91,11.91,0,0,1-2.24-.8c-1.47-.89-2.87-1.91-4.3-2.87l-.58.58c.1-.77.2-1.53.32-2.51-1.68.09-3.48,1.75-4.6-.56-.21-.42-.73-1.06-.61-1.23,1.6-2.14-.14-3.87-.72-5.81l3.76-.7c-.05.56-.1,1.18-.22,2.47,1.06-.48,2.32-.83,2.31-1.09a4.37,4.37,0,0,0-1-2.81c-.56-.51-1.79-.29-2.73-.39v-.7l3.64-.55.41-.73-3.08-2.27v-6.57l.63-.38,4.79,4.31c.48.44.89,1.07,1.46,1.28,2.79,1,2.8,1,3.25,4l2.34.14c2.1.13,4.12.31,3.58,3.33-.06.37.4.85.67,1.23.49.69,1,1.34,1.52,2L237,169.58c.24,1.38,1.82,3.55-1.24,4.18C234.05,174.1,232.28,174.18,230.1,174.43Z"/><path class="cls-25" d="M145.85,41.06l17,10.52a20.92,20.92,0,0,1-.76,2.63c-.36.83-.85,2.19-1.42,2.26-3.09.37-3.82,1.09-3.49,4.44-.69.05-1.53.38-2.06.11-4.08-2.07-8.53-3.56-11.72-7.11a1.75,1.75,0,0,1-.44-.6,19.83,19.83,0,0,0-2.56-6.05c-1.09-1.63.29-3.3,3.24-4.81A25.86,25.86,0,0,0,145.85,41.06Z"/><path class="cls-13" d="M165.87,54.07l.95,0,12.69,11.36c.43.38.88.72,1.32,1.08-.12.11-.25.34-.34.33-2.2-.34-4.39-.71-6.57-1.07l.24.87a11.53,11.53,0,0,1-2.74,2.22c-1.2.48-2.62.39-4.58.62L168.5,71l-2.82,4.13L169,79.5a21.66,21.66,0,0,1-1.54,3.39,2.79,2.79,0,0,1-2.08,1.1,38.9,38.9,0,0,1-5.13-.81l1.87-1.62c-.34-3.21-.64-6.07-.93-8.87,1.33-1.15,4.33-.14,3.8-2.75-.32-1.56-1.71-3.12-4.12-1.85l-.18-.6a14.47,14.47,0,0,0,2.41-3,8.58,8.58,0,0,0,.43-3.69C163.51,59.56,164.94,54.87,165.87,54.07Z"/><path class="cls-5" d="M271.26,216l-.71,1a16.71,16.71,0,0,0-6.74-8.61c-4.47-5.76-10.13-10.21-16-14.41-.19-.42-.38-.83-.84-1.86,5.95,3.23,10.11,7.7,14.75,11.53q4.5,5,9,10C270.89,214.45,271.07,215.23,271.26,216Z"/><path class="cls-25" d="M147.83,75.2c.2,3.78,3.51,2.94,5.67,4.26A58.81,58.81,0,0,1,146.37,81c-.94.09-2-.86-3-1.34a14.06,14.06,0,0,1,1.49-2.19A28.79,28.79,0,0,1,147.83,75.2Z"/><path class="cls-25" d="M233.94,182.78l-.36-2.54-2.25,1.2c.07-.7,0-1.23.17-1.45,1.24-1.32,5.63-1.23,6.87.08,1.44,1.52,1.12,2.63-.91,3.12a2,2,0,0,1-.72.16C235.85,183.2,235,183,233.94,182.78Z"/><path class="cls-20" d="M236.23,329.11c-2.76-.39-5.56-1.23-8.28-1.05a44,44,0,0,0-11.48,2.07c-2.71.94-5.07,3-7.38,4.89-1.64,1.32-2.74,2.54-5.1.88-1.19-.85-3.38-.35-5.11-.34-2.26,0-4.51.19-6.76.18-.37,0-.81-.55-1.1-.94-1.25-1.68-.22-7.29,1.5-8.51.8-.56,1.51-1.25,2.1-1.74-.82-3.49-1.57-6.78-2.36-10.05a2.28,2.28,0,0,0-.62-1.28c-2.57-1.77-5-3.78-7.84-5.08a5.37,5.37,0,0,1-3.55-4.29c-.33-1.89-.68-4.05-2.68-2.78-1.8-1.26-3.18-2.08-4.36-3.11-.78-.68-1.77-1.63-1.83-2.52-.21-3.34.77-6.25,4.1-7.82.15-.07.35-.11.44-.23,2.47-3.53,5.82-2.07,9-1.63.64.09,1.67.28,1.88,0,1.63-2.33,3.91-1.09,5.45-.57,5.64,1.91,11.46,2.24,17.29,2.89a13.51,13.51,0,0,1,5.36,2.37,3.5,3.5,0,0,0,4.06.17,27.41,27.41,0,0,0,8.27-6.26,11.89,11.89,0,0,1,4.31-3.06,6.14,6.14,0,0,1,3.83.37,7.43,7.43,0,0,1,4.67,7.32c-.06,1.23.44,2.52.23,3.7-.59,3.34-1.41,6.63-2.16,9.94a1.72,1.72,0,0,1-.41.62c-.7.83-8.24,2.79-9.31,2.59a21.27,21.27,0,0,0-3.35,0l1.81,3.71a12.23,12.23,0,0,1-2.53-.55c-1.54-.75-2.42,0-2.46,1.33a14.63,14.63,0,0,0,.73,4.81c.14.44,1.49.84,2.15.69s1.09-1,1.5-1.63a23.18,23.18,0,0,0,1.18-2.47c1.69,1.87,1.57,4.77,4.48,4.36a8.25,8.25,0,0,0,3.09-1c2.71-1.63,5.1-1.55,7.52.42,2.08,1.69,4.12,3.44,6.32,5a5.05,5.05,0,0,1,2,5.46c-.41,1.9-2.45,2.19-4.32,2.05a71.8,71.8,0,0,0-7.17-.41c-1,0-2.07.75-3.1,1.16Z"/><path class="cls-5" d="M262.29,257.12c-25.88,2.29-51.81,4.2-77.85,9.48C189.13,263.11,254.25,255.16,262.29,257.12Z"/><path class="cls-20" d="M193.37,271.41c1.93,2.41,4.1,1.85,6.63,1.48,1.66-.24,3.54.28,5.36-.23.3-.08.9.91,1.36,1.41a5.89,5.89,0,0,1-1.49.88c-3.72.83-7.46,1.59-11.34,2.41.28.59.54,1.16,1.06,2.3-1.44.08-2.58.17-3.71.2a9.15,9.15,0,0,1-2.82-.06,11.58,11.58,0,0,1-3.83-1.78,2.59,2.59,0,0,1,0-2.49,4.16,4.16,0,0,1,2.7-1.49C191.27,273.82,191.27,273.91,193.37,271.41Z"/><path class="cls-5" d="M190.27,256.56a74.84,74.84,0,0,1,8-2c19-2.74,38.18-2.29,57.3-2.56a13.11,13.11,0,0,1,2.22.34l-.05.7c-1.32,0-2.65,0-4,0-13.07.32-26.14.51-39.19,1.06-5.77.25-11.5,1.23-17.25,1.88l-1,.14-2,.36Z"/><path class="cls-5" d="M206.35,276.81a213.61,213.61,0,0,1,51.14-13.69A480,480,0,0,0,206.35,276.81Z"/><path class="cls-5" d="M222.34,280.48l34-10.38C255.18,272,227.23,280.77,222.34,280.48Z"/><path class="cls-15" d="M194.28,256.47l2-.36Z"/><path class="cls-1" d="M363.83,309.63c1.21-2.58,3.17-3.72,6.08-3.83,7.42-.29,14.83-.83,22.25-1.26.19,2-1.5,1.38-2.38,1.46-2.63.26-5.29.21-7.93.4-4.2.32-8.41.69-12.6,1.13a5.55,5.55,0,0,0-2.53.84c-2,1.44-2,3.05-.17,5.4C363.91,313.63,363.47,313,363.83,309.63Z"/><path class="cls-5" d="M282.33,362.25l-1.76-4.13-20.31,8c-1.79-.7-.53-1.14.19-1.42,2.92-1.14,5.95-2,8.79-3.34,5-2.3,9.93-4.84,14.89-7.28a3.52,3.52,0,0,1,2.09-.44A13.42,13.42,0,0,1,284.9,355c-2.7,2.14-2.87,3-1.16,6.14a6.67,6.67,0,0,1,.5,1.09c0,.12-.09.3-.23.67Z"/><path class="cls-5" d="M247.78,424.36a16.49,16.49,0,0,1,2.51-.85c.12,0,.75,1.31.61,1.45a6.44,6.44,0,0,1-2.51,1.67c-.32.09-1-1.13-1.52-1.76l.66-.26,1.8.58.17-.75Z"/><path class="cls-13" d="M126.32,152.55c6.72,1.76,13.56,3.18,20.15,5.37,8.64,2.87,17.25,6,25.57,9.67,7.48,3.31,14.55,7.53,21.8,11.35l1.47,2.59c-2.65-1.33-5.24-2.8-8-4-12-5.22-24-10.55-36.08-15.47-7.1-2.89-14.49-5.06-21.72-7.63A18.58,18.58,0,0,1,126.32,152.55Z"/><path class="cls-18" d="M195.31,181.53l-1.47-2.59c3.9,2.51,7.83,5,11.68,7.54,6.83,4.57,13.7,9.1,20.4,13.86,5.76,4.08,11.33,8.42,16.94,12.7a23.53,23.53,0,0,1,2.43,2.46c-.33,0-.74.08-1-.08-3.43-2.27-6.8-4.63-10.26-6.86-3.89-2.49-8-4.73-11.77-7.34-4.55-3.12-8.89-6.54-13.35-9.79s-8.69-6.26-13-9.39l-.62-.53Z"/><path class="cls-18" d="M253.36,221.79c2.41,2.15,4.8,4.31,7.22,6.43q6.82,6,13.69,11.89a7.93,7.93,0,0,1,2.25,2.43l-3.77-.59c-.91-1-1.76-2.06-2.74-3-4.63-4.34-9.35-8.57-13.91-13C254.93,224.86,254.26,223.21,253.36,221.79Z"/><path class="cls-13" d="M195.28,181.51l.62.53Z"/><path class="cls-5" d="M155.41,375.1c3.43,2.13,6.8.74,10-.24a27.88,27.88,0,0,1,17.09.47c-.45,0-.91.09-1.37.1a5.71,5.71,0,0,1-1.49,0c-5.95-1.49-11.65-.11-17.38,1.38C158.53,377.77,157.27,377.38,155.41,375.1Z"/><path class="cls-5" d="M265.74,215c2.22,2.8,4.45,5.6,6.64,8.43.6.77,1.19,1.68-.61,1.59-12.52-17.62-28.07-31.65-48.22-40.27l.32-.53a2.6,2.6,0,0,1,.8.07A108.33,108.33,0,0,1,262.9,212C263.81,213,264.79,214,265.74,215Z"/><path class="cls-1" d="M370.73,436.46a49.82,49.82,0,0,1,.63-6.61c.58-2.58,1.76-5,2.38-7.58,1.57-6.51,3.18-13,4.39-19.61.85-4.61-2.22-8.15-4.18-11.94h0l-1.7-2.8c-3.62-6.22-7.29-12.41-10.85-18.66-2.63-4.61-5.11-9.3-7.69-13.94-.18-.32-.61-.51-1.19-1l-2.86,4q-12.76,14.77-25.51,29.56a32.74,32.74,0,0,0-2,2.81c-3.1,3.46-5.85,7.31-9.35,10.28-8,6.8-16.39,13.18-24.61,19.73q-5.88,4.38-11.75,8.76c-.54.41-1.13.76-1.69,1.14l-.42-.52c.66-.62,1.28-1.3,2-1.85,10.12-7.94,20.54-15.53,30.28-23.91,5.79-5,10.52-11.19,15.72-16.85,3.14-3.42,6.38-6.77,9.39-10.3,6.13-7.2,12.15-14.49,18.18-21.77a40.07,40.07,0,0,0,2.34-3.56c1.52,1.62,2.21,2.36,2.91,3.09,3.66,6.65,7.18,13.37,11,19.91,3.49,5.95,7.32,11.7,11,17.54.86,2.05,1.77,4.09,2.57,6.17a5.24,5.24,0,0,1,.54,2.63c-1.19,5.89-2.27,11.82-3.84,17.62C374.8,424.79,372.65,430.59,370.73,436.46Z"/><path class="cls-16" d="M377.15,392.42c-3.68-5.84-7.51-11.59-11-17.54-3.83-6.54-7.35-13.26-11-19.91a3,3,0,0,1,3.46,1.89c3.2,6.12,6.67,12.09,10.15,18.06,1.95,3.34,4.2,6.52,6.13,9.88a45.53,45.53,0,0,1,2.69,6.1C377.72,391.29,377.3,391.9,377.15,392.42Z"/><path class="cls-1" d="M271.27,432.39l2.89-2.27c.17.2.33.41.5.62l-2.9,2.22Z"/><path class="cls-12" d="M440.7,392.34a3.43,3.43,0,0,0,.44.09l1,1h0l1,1,2.51,2.48,1.51,1.49,6.93,7.08a2.7,2.7,0,0,0,.07.41l1,2.43c-.62,3-.86,6.19-3.79,8a18.41,18.41,0,0,1-3.46,1.23c-.79.29-1.53.68-2.63,1.17-1.18-3.07-4.33-2.52-6.9-3.42a94.44,94.44,0,0,1-9.89-4.38c-2.83-1.36-5.59-2.87-8.05-4.14-.83-2.17-2.41-4.38-2.32-6.52.15-3.76-4.12-2.74-4.75-5.56.48,0,1,.06,1.44.13,2.2.38,3.58-1.18,5.24-2.14a10.18,10.18,0,0,1,2.17-.69l.33.6a5.45,5.45,0,0,0-.74,1.69,2.17,2.17,0,0,0,.67,1.39c.09.1.86-.21,1.12-.5.91-1.07,1.74-2.2,2.7-3.43l3.36-.41a12.07,12.07,0,0,1,2.14,1c2.38,1.76,4.7,3.61,7,5.42l2.8,2.32.47-.61-2.89-2.2a53,53,0,0,0-5-4.35c-8.09-5.38-16.26-10.63-24.4-15.93,3.19.74,6.53,1.1,9.53,2.31,4.95,2,9.7,4.51,14.48,6.91a34.07,34.07,0,0,1,3.87,2.61l1,1Z"/><path class="cls-7" d="M455.21,408.31l-1-2.43c3.45,1.84,4.27,5.33,5.42,8.61l-2.77-3.84C456.29,409.88,455.75,409.09,455.21,408.31Z"/><path class="cls-5" d="M409.82,377c8.14,5.3,16.31,10.55,24.4,15.93a53,53,0,0,1,5,4.35l-.38.49c-2.34-1.81-4.66-3.66-7-5.42a12.07,12.07,0,0,0-2.14-1c-6.12-4.11-11.86-9-18.43-12.15-11.21-5.39-22.94-9.7-34.44-14.48-.89-.36-1.73-.82-2.59-1.23,3.77,1,7.68,1.75,11.29,3.19C393.71,369.94,401.74,373.56,409.82,377Z"/><path class="cls-5" d="M419.52,390.79l-34.47-19.62C387.55,370.83,414.43,385.74,419.52,390.79Z"/><path class="cls-5" d="M326.82,392.44c4.08-4.91,8.2-9.79,12.22-14.75,2.2-2.7,4.33-5.48,6.33-8.33a44.81,44.81,0,0,0,2.6-4.95c1.55-.21,1.25,1.1.59,2.12-1.7,2.65-3.48,5.27-5.41,7.75-4.75,6.08-9.61,12.09-14.42,18.12l-13.27,12.46-.49-.5Z"/><path class="cls-5" d="M333.81,392.44c6.57-6.42,11.48-14,15.81-22,.45-.84.86-1.71,1.29-2.56l.79.38c-.7,1.47-1.35,3-2.09,4.4-.83,1.6-1.74,3.15-2.62,4.72-4.11,6.05-8.16,12.15-14.22,16.65C333.12,393.47,333.46,393,333.81,392.44Z"/><path class="cls-5" d="M350.51,378.53l3.58-5.69.6.33-5.05,9.71-3.26,6.64-.75-.34Q348.08,383.86,350.51,378.53Z"/><path class="cls-16" d="M372.21,387.91l1.7,2.8C372.09,390.53,372.43,389.05,372.21,387.91Z"/><path class="cls-9" d="M440.7,392.34l-2-2.44Z"/><path class="cls-9" d="M447.19,398.39l-1.51-1.49Z"/><path class="cls-9" d="M442.16,393.43l-1-1Z"/><path class="cls-9" d="M443.17,394.42l-1-1Z"/><path class="cls-12" d="M221.18,145.59c-.29.17-.53.41-.63.36a2.07,2.07,0,0,1-.54-.56c.2-.08.41-.24.6-.22S220.93,145.39,221.18,145.59Z"/><path class="cls-12" d="M182.42,87.53c-.21.11-.5.34-.58.29a1.22,1.22,0,0,1-.42-.64c0-.07.3-.24.46-.36Z"/><path class="cls-17" d="M203,154.9c.05-2.27,3.16-4.65,5.44-4.32a14.82,14.82,0,0,0,2.92.43c1.74-.12,3.25.38,3.09,2.21a6,6,0,0,1-2,4c-.82.59-3,.27-3.9-.46C205.91,154.64,206,154.48,203,154.9Z"/><path class="cls-17" d="M185.55,150.32H187v.46h-1.44Z"/><path class="cls-17" d="M189.15,152.24c.14.06.36.09.4.19s-.1.27-.16.41c-.14-.06-.36-.1-.4-.19S189.09,152.38,189.15,152.24Z"/><path class="cls-17" d="M194.91,154.36c-.14-.06-.35-.09-.39-.19s.1-.26.15-.4c.14.06.36.09.4.19S195,154.22,194.91,154.36Z"/><path class="cls-12" d="M151.54,117.57c-1.81-.33-3.1-.94-2.95-2.76,0-.43,1.19-1.2,1.62-1.08C152.08,114.26,152,115.75,151.54,117.57Z"/><path class="cls-17" d="M148,116.82l-1.51,1.36-.73-.7c.47-.49.93-1,1.39-1.48Z"/><path class="cls-12" d="M134.06,109.61c-1,.58-1.4.9-1.5.83a2.7,2.7,0,0,1-.61-.82c.25-.14.5-.38.76-.4A5.55,5.55,0,0,1,134.06,109.61Z"/><path class="cls-17" d="M144.22,119.66c-.3.15-.56.36-.67.3s-.31-.38-.46-.58c.2-.07.42-.22.61-.19S144,119.45,144.22,119.66Z"/><path class="cls-12" d="M150.61,119.93c-.06.14-.09.35-.19.39s-.27-.09-.4-.16c.06-.13.09-.35.19-.39S150.47,119.87,150.61,119.93Z"/><path class="cls-8" d="M247.78,424.36l1.72.08-.17.75-1.8-.58Z"/><path class="cls-5" d="M439.27,397.31l2.89,2.2-.47.61-2.8-2.32Z"/></g></g></svg>