<svg xmlns="http://www.w3.org/2000/svg" viewBox="0 0 395.89 335.41"><defs><style>.cls-1{fill:#9f8b7d;}.cls-2{fill:#e6dac0;}.cls-3{fill:#0e0d0c;}.cls-4{fill:#e8dcc2;}.cls-5{fill:#e3c7b4;}.cls-6{fill:#a79e8b;}.cls-7{fill:#dabfac;}.cls-8{fill:#11100f;}.cls-9{fill:#ad9889;}.cls-10{fill:#f0eadb;}.cls-11{fill:#f1eadc;}.cls-12{fill:#bbaba0;}.cls-13{fill:#131212;}.cls-14{fill:#e1c4b2;}.cls-15{fill:#efe8d8;}.cls-16{fill:#e2d6bd;}.cls-17{fill:#f4eee2;}.cls-18{fill:#e8e1d1;}.cls-19{fill:#b0a39a;}.cls-20{fill:#f6f1e9;}.cls-21{fill:#f4eee4;}.cls-22{fill:#dfc4b1;}.cls-23{fill:#ded3bb;}.cls-24{fill:#c1aea2;}.cls-25{fill:#c6c5c3;}.cls-26{fill:#fefefe;}</style></defs><g id="Calque_2" data-name="Calque 2"><g id="Calque_1-2" data-name="Calque 1"><path class="cls-1" d="M201.5,325.77c.11-.75.22-1.51.4-2.66,3.42.43,6.84.89,10.27,1.3,2.63.32,5.26.74,7.9.82q13.34.39,26.68.56a84.7,84.7,0,0,0,22-2.14,3.67,3.67,0,0,1,1.28.18,29.18,29.18,0,0,1-20.24,6.59c-11.44-.52-22.86-1.23-34.3-1.71-2.79-.11-5.69.85-8.38.39C205.09,328.76,203.35,326.93,201.5,325.77Z"/><path class="cls-2" d="M179,24.41l1.55.54c-.81,1.34.31,1.21,1.05,1.37a14.46,14.46,0,0,0,1.6,1.87c2.07,1.77,4.19,3.47,6.29,5.19-.06.45-.29,1.24-.15,1.32,2.32,1.27,2.41,3.54,2.29,5.65-.22,4.1-.74,8.19-1.14,12.29-.05.55-.07,1.11-.11,1.67.72-.3,1.08-.68,1.16-1.1.58-3.14,1-6.31,1.68-9.44a12.72,12.72,0,0,0-1.46-9.31l4.74,2.48,1,1c.49.51,1,1,1.49,1.52.5.76,1,1.54,1.51,2.26,2.64,3.49,5.62,6.77,7.85,10.51,1.69,2.83,2.44,6.23,3.61,9.37-1.19-.68-1.88-2.61-3.71-1.71,1.69,2.23,3.38,4.32,4.92,6.51s3,4.63,4.6,7l-1.89.82,1.18,2.09c.25,1.94.6,3.88.72,5.83.14,2.44.08,4.9.11,7.36-1.2-.87-2.34-1.83-3.61-2.57-2.14-1.25-4.52-2.15-6.52-3.59-5.3-3.82-10.24-8.05-13-14.41a3.77,3.77,0,0,0-.2,2.47,39.89,39.89,0,0,0,2.55,4.18c-.06.35-.12.69-.19,1A7.69,7.69,0,0,0,195.4,78c-5.13,9.06-13.77,10.85-23.1,11.2a19.09,19.09,0,0,1-3.47-.12c-5.08-.76-11,1.69-14.61-4.28-.32.39-.53.53-.51.63a2.68,2.68,0,0,0,.3,1.14,7.77,7.77,0,0,0,6.36,3.77c4.56.24,9.12.45,13.68.68-2.6,1.87-5.51,1.28-8.39,1.14-1.5-.07-3,.12-4.54.19l-.61-1.21c-.32.32-.87.61-.93,1-.86,5.13-4.54,8-8.6,10.33-3,1.72-6.24,2.63-9.66.89-.14-.07-.64.56-1,.87l-5.1-1.54,1.43-1.34-3.68-.78c-.13-3.48.09-6.89,2.16-9.9,1.37.82,1.33,3.59,4,3l-2.73-4.53c.21-.78.41-1.57.63-2.36,1.11-4.1,3.64-7.24,6.77-10,.22.39.45.78.89,1.57.81-6.23-3-9-8.68-6.92-6.61,3-8.38,9.11-9.53,15.45a12.68,12.68,0,0,0,.36,5.84,84,84,0,0,0,3.68,8.59c-.18.53-.37,1.06-.55,1.6-2.9.55-4.41,2.77-6,5l-2.85.56c-5.41-.31-8.54-4.37-12.28-7.45-1.89-1.56-2.64-3.57-3.34-5.88-2.66-8.68,1.62-15.74,5.08-22.95,1.61-3.36,3.48-6.42,3.54-10.4a34.62,34.62,0,0,1,1.78-10,53.32,53.32,0,0,1,9-16.48c5.11-6.48,11-12.1,19-14.78,4.19-1.42,8.73-1.78,13.13-2.53a23.4,23.4,0,0,1,16.67,3.43C175.45,22.52,177.25,23.43,179,24.41Zm-28.57,30c2.2-2.56,4.4-5.13,6.62-7.67,1.11-1.29,2.35-2.48,3.39-3.81s1.85-2.73,2.77-4.1l-.88-.62c-1.89,1.87-3.56,4-5.7,5.53-3.09,2.17-6.52,3.86-9.8,5.78a14.64,14.64,0,0,0-1.38,1l.42.76,9.21-4.46.53.6-6.81,6.92-8.19,2.62c.13.37.27.73.4,1.09Zm37.61,7.07a8.12,8.12,0,0,0-1,1.25,21.33,21.33,0,0,1-10.21,9.46,58.33,58.33,0,0,1-19.16,5c-5.65.61-10.51,2.82-15.39,5.28-2.11,1.07-3.28,2.81-2.49,6.1.88-3.2,2.74-4.48,5-5.66,5.63-2.91,11.68-4,17.82-5,7.11-1.22,14.2-2.76,20-7.53C185.36,68,187.62,65.36,188.05,61.45Zm-56.11,1.43-.63-.42c-6.38,6.22-13.42,11.92-16.35,21.11.54-.09.78-.06.85-.15a14.56,14.56,0,0,0,.93-1.43c3.34-5.9,7.28-11.28,12.76-15.44C130.61,65.71,131.15,64.12,131.94,62.88Zm21.34-26.56.73.41c2.69-3.4,5.16-6.91,6.47-11.07l-.55-.31-12.26,10.9a12.57,12.57,0,0,0,4.14-1.94c1.25-.86,2.39-1.88,3.58-2.84l.38.49ZM178.89,39l-.9-.54L172.8,49.54C176.68,47,177.32,42.74,178.89,39Zm-13,18.57-.41-.53-9.62,6.88.48.64C159.76,62.54,163.5,60.94,165.88,57.54Z"/><path class="cls-3" d="M181.61,26.32c-.74-.16-1.86,0-1.05-1.37,6.66-1.14,12,2.31,17.1,5.54,8.53,5.37,14.69,13,19.31,22,3.23,6.28,6.26,12.58,7.27,19.65a62.87,62.87,0,0,1-.63,22,12.33,12.33,0,0,1-1.52,2.76Q220,100.8,218,104.76l-6.22,6.93-1.25-1.47c-1.85,1.32-3.54,2.45-5.12,3.7s-3.28,2.71-4.84,4.16c-1,.91-.62,1.75.45,2.36.35,1.47-.36,1.72-1.44,1.06a41.63,41.63,0,0,1-3.38-2.67c-.58,2.9-1.13,5.45-1.58,8a22.67,22.67,0,0,0-.09,2.74c-.29,5.55-2.07,7.15-7.68,6.87-2.57,3.87-6.46,6-10.57,7.88-2.54,1.16-5,2.42-7.56,3.57-2.69,1.22-5.42,2.37-8.14,3.55-5.07.55-10.28,1.7-14.25-3.33a29.9,29.9,0,0,0,.89,5c1.29,5,3,10,3.79,15.12.64,4.52,1.23,8.93,3.06,13.18,2,4.7,4.35,9.43,5.38,14.38,1.2,5.81,1.28,11.87,1.58,17.83.23,4.46,0,8.94,0,13.54l4.25.81c-.93-6.32-1.9-12.51-2.75-18.72-.45-3.26-.64-6.55-1.06-9.81-.21-1.62-.71-3.19-1-4.8-.69-3.74-1.33-7.48-2-11.22-1.23-7-4.78-13.78-2.56-21.32.81-2.73,1.73-4,4.24-3.46-.24-2-.53-3.82-.65-5.69,0-.34.63-.72,1-1.08,1.78,3.47,1.41,6.91-.12,11l-2.08-3.49c-.87,4-2.27,7.32-1.27,11.07.93,3.5,1.78,7,2.49,10.57.93,4.6,1.72,9.24,2.52,13.87,1.18,6.8,2.31,13.61,3.43,20.19,5.28.5,10.3,1,15.32,1.43a6.63,6.63,0,0,0,2.13-.15c16-3.95,31.93-7.95,47.91-11.87a53,53,0,0,1,5.65-.81c6.25-.71,12.49-1.63,18.75-2,3.61-.25,7.84-.78,10.77.76a28.43,28.43,0,0,1,10.2,9.47L317,201.52l3.6-.32c1.43,1.73.92,2.94-.4,4.35a239,239,0,0,1-28.36,25.79c-1.57,1.21-3.16,2.23-3.07,4.88,0,1.14-2.13,2.72-3.61,3.46-1.89.94-4.1,1.22-6.47,1.87,4.62,11.38,3.13,23.2,2.75,34.24,3.8,1.95,7.68,3.16,10.53,5.58,6.52,5.51,9.65,12.69,8,21.44a3.72,3.72,0,0,1-.49,1.39c-4.21,6.32-7.15,13.49-12.66,18.94a40.3,40.3,0,0,1-23.55,11.72c-8.87,1.23-17.49.15-26.25-.88-9.73-1.13-19.56-1.33-29.35-2a4.86,4.86,0,0,1-2.62-.54c-3-2.53-6.67-3.32-10.33-4.2a2.64,2.64,0,0,1-1.24-.76c-2.52-2.74-5-5.47-7.48-8.27-1.77-2-3.17-4.23-2.9-7.14a4.82,4.82,0,0,0-1-2.87,22.18,22.18,0,0,1-2.78,3.29c-4.09,3.33-8.29,6.54-12.47,9.77a4.69,4.69,0,0,1-1.54.79c-7.11,2.15-14.21,4.32-21.36,6.35a19.94,19.94,0,0,1-4.39.28c.43-.33.82-.83,1.31-1,5.19-1.51,10.77-2.24,15.53-4.61,7.66-3.8,14.79-8.66,22.14-13.08,1.76-1.24,2.66-3.74,5.28-3.83,1,4,.7,8.19,3.81,11.24,1.87,1.83,4.15,3.41,5.52,5.57,1.5,2.38,3.19,3.38,5.44,3.1-1-3.2-2.13-6.43-2.91-9.74-2.19-9.42,2-18,11-20.88,5-.35,10-.73,15-1,1.23-.07,2.58.42,3.69.07,5.4-1.73,10.74-3.65,16.09-5.51,10.08-3.64,20.19-7.18,31.09-7.75-11.71-7.69-23.75-12.54-38-4.42l2.87,6.44,1.59,2.15-.67.62-2.87-2.81a6.15,6.15,0,0,1-.74-1.28,37.67,37.67,0,0,0-1.36-4.93c-.84-1.85-2.27-3.44-3.08-5.3s-1.91-4-1.59-5.85c1.13-6.42-2.12-12.27-1.95-18.52a2.88,2.88,0,0,0-.82-1.78c-2.73-2.83-4.65-6.49-8.61-8-1-.38-1.67-1.34-2.58-1.89-1.87-1.12-3.84-3.14-5.68-3a124.86,124.86,0,0,0-20,2.27c-7.66,1.65-15.1,4.25-22.62,6.52-1.26.38-2,.74-1.37-1.08.84-.34,1.67-.71,2.52-1,11.78-4.49,23.85-7.59,36.53-8,3.71-.12,7.4-.12,10.55,1.91,5,3.21,10.08,6.41,12.76,12.1l2.14,7.91,18.3-5.2,29.54-7.82,7.67-2.25c.75-.61,1.84-1.07,2.17-1.86a28.92,28.92,0,0,0,1.18-4.77l.49-.51,1.51-1a162.5,162.5,0,0,0,23.89-21.19c.11-.23.22-.47.34-.71l-.82.3c-2-.32-1.39,1.86-2.38,2.5-2.34,1.52-4.75,3-7,4.56a45.87,45.87,0,0,0-6.53,5c-2.71,2.74-5.05,5.85-7.56,8.8-.45.59-.91,1.17-1.37,1.76l-.8.21-2.24.44,0,0c.05-.89-.21-2,.21-2.63,2.92-4.53,5.73-9.14,11.12-11.34a41.64,41.64,0,0,0,5.6-3.35c-.09-.22-.18-.44-.28-.66a49.32,49.32,0,0,1-5.26,1.54c-6.18,1.18-9.61,5-11,11a6.58,6.58,0,0,1-1.27,1.9l-.87-.38c.51-2.29.92-4.62,1.56-6.88.84-3,1.08-6.52,4.38-8a41.89,41.89,0,0,1,9.13-2.86c5.84-1.09,12-1.09,16.79-5.33a1.21,1.21,0,0,1,.69-.25c2.3-.12,2.3-.11,3.3-1.86-1.3.31-2.57.64-3.85.93-6.86,1.54-13.78,2.85-20.57,4.66-8.3,2.2-16.48,4.82-24.72,7.26.14-.6.27-1.21.37-1.67-3.33-1.75-6.52-4.77-10.58-2.77L271,215.22c1,.9,2.12,1.75,3.06,2.73s1.66,2,2.48,3.05l-.48.42c-.36-.26-.72-.53-1.09-.78-3.17-2.18-6.26-4.5-9.54-6.5-3.62-2.22-7.84-1.92-11.86-2.06-4.78-.17-9.58.07-14.38.14l-2,0c-.35-2,1.22-1.42,2.1-1.43,5.65-.06,11.3,0,16.31,0,.57-.83.81-1.57,1.13-1.6,2.91-.33,5.84-.53,8.76-.76l-.21.42,4.54,1.29a3.57,3.57,0,0,0,4.93,2.48,9.69,9.69,0,0,0-1.25-2c-2.47-2.34-5-4.65-7.56-6.88a3.83,3.83,0,0,0-2.33-1.17c-10.16.94-20.46,1.22-30.43,3.2-15.88,3.16-31.55,7.44-47.27,11.37a4,4,0,0,0-2.27,2.39,21.22,21.22,0,0,0-.54,4.61c.22.07.38.18.5.14l50.7-13.12c.84-.22,2-1.23,2.16.66a13.78,13.78,0,0,1-1.39.54c-7.43,1.92-14.89,3.76-22.31,5.75q-27.42,7.35-54.82,14.82c.43-.55.75-1.37,1.32-1.6,1.73-.71,3.55-1.19,5.34-1.76,0-.23,0-.45,0-.68l-10.87-.78,4.27,4.76c.77.39,1.66,1.25,2.3,1.09q25.26-6.25,50.46-12.72c8.3-2.14,16.54-4.55,24.83-6.74a6.24,6.24,0,0,1,3.08.33,37.28,37.28,0,0,1,3.69,1.47c14.34,5.81,28.88,11.15,42.59,18.41.57.3,1.1.67,1.65,1l-.31.64L283,235l-6-2.71c-.06-.06-.1-.15-.17-.18q-19.71-8.18-39.42-16.34a2.31,2.31,0,0,0-1.35-.11c-8.11,2.17-16.21,4.41-24.33,6.56q-20.85,5.51-41.73,10.91c-3.15.82-6.34,1.49-9.71,2.27l2.2,3.4c.52,1.36,1.13,2.7,1.55,4.09.95,3.12-.22,5.19-3.49,6.4l0-1.4,1-1,.51-.6c.18-1.07.75-2.26.46-3.19-2.07-6.51-6.74-11.09-11.78-15.36l-.65-.48c-2.2-2.44-5.18-3-8.22-3.56l-.78-.26c-2.46-.3-4.91-.66-7.38-.88-6.44-.57-12.87-1.4-19.31-1.52s-12.74.54-19.11.78c-2.9.11-5.83-.18-8.71.1C83,222.26,79.49,223,76,223.59l-.9.72h0l-.56.47-1,1-.51.56-1,1.37-1.48,2.12a34.85,34.85,0,0,0-6.37,24.48v4.54l.91.4,5.33-4.42a10.84,10.84,0,0,0-3.37.39c-.42.06-.93-.55-1.39-.86l13.52-4.23c8.52-2,17.07-3.81,25.55-5.94a7.67,7.67,0,0,1,7.33,1.73,21,21,0,0,0,6.69,4.08,39.86,39.86,0,0,1,11.58,6.09c3.51,2.48,7.08,4.88,10.77,7.09,1.16.7,3.23,1.38,3.79-.62a5.12,5.12,0,0,0-1-4.27c-3.65-3.5-7.63-6.65-11.46-9.95a5.8,5.8,0,0,1-.83-1.16l.59-.61c2.54,2,5.11,4,7.61,6.09,1.79,1.49,3.34,3.32,5.29,4.52a4.39,4.39,0,0,0,3.84,0c.77-.45,1.07-2.19,1.07-3.35,0-2.74-2.59-3.8-4.11-5.53-2.44-2.81-5.1-5.43-7.67-8.13l.64-.67c1.28,1.18,2.58,2.33,3.84,3.53,3.91,3.73,7.74,7.54,11.73,11.18,1.94,1.77,3.92,1.1,4.73-1.46a20.15,20.15,0,0,0,.48-3.41h.93a5.25,5.25,0,0,0,.08,1.49c.87,2.45-.49,4-2.24,5.22-1.92,1.35-3.62.44-5.17-.89-.48-.41-1-.8-1.19-1-.62,1.38-.91,3-1.86,3.93s-2.54,1.1-3.92,1.64c1.2,1.41.83,2.76-.33,4.15a3.13,3.13,0,0,1-4.19,1,41.36,41.36,0,0,1-4.85-2.42c-2.56-1.68-5-3.53-7.46-5.4a3.17,3.17,0,0,0-3.6-.51c-4.08,1.81-8.21,3.55-12.35,5.24-.43.18-1.07-.13-1.62-.22a21.77,21.77,0,0,1,3.21-2.2c3.55-1.63,7.18-3.11,11.46-4.93l-11-4.09c-1.37,3.63-2.72,7.25-4.08,10.87L97.61,288.63c5.11.29,5.43.09,9.32-3a11.86,11.86,0,0,1,4.24-1.89c2.71-.71,5.49-1.18,8.24-1.73a7,7,0,0,1,1.21,0,2.85,2.85,0,0,1-1.86,1.55c-5.08,1-10.08,1.71-14.27,5.51-1.57,1.41-4.88.89-7.4,1.24-.84.48-2.1.76-2.43,1.48-1.58,3.41-2.91,6.93-4.31,10.42-2.09,5.18-4.15,10.36-6.22,15.54l-1.07,1.46c-.6.56-1.24,1.08-1.78,1.68s-1.23,1.33-1.09,1.61A3.46,3.46,0,0,0,82,324.2c3.15.89,6.33,1.68,9.53,2.34,2.5.51,5,.84,7.58,1.13s5.12.42,7.8.63c-1.48-2.34-2.72-4.28-4-6.23-2.41-3.15-2.79-7-3.5-10.68-1.89-9.86-1.93-9.86-.51-11.18.42,2.4.87,4.53,1.16,6.68.72,5.43,1,11,4.93,15.37,1.38,1.7,2.5,3.75,4.19,5,3.3,2.49,7.26,2,11.13,1.7,5.37-.49,10.74-.89,16.11-1.23.65,0,1.34.58,2,.89-6.19.69-12.36,1.53-18.57,2a47.84,47.84,0,0,1-8.44-.41c-7.51-.74-15-1.42-22.51-2.45-3.31-.45-6.49-1.83-9.79-2.49-1.67-.34-3.8-.63-5.16.1-5.73,3.06-12,3.11-18.17,3.7s-12.12.26-18.19.15a5.91,5.91,0,0,1-5.51-5L34,325.89c2,.59,4,1.6,6,1.68a153.34,153.34,0,0,0,15.61-.13c4.34-.28,8.64-1.13,13-1.73a27.73,27.73,0,0,0,5.26-2.14c3-2,6.51-3.83,8.45-6.66,2.61-3.83,4.16-8.45,5.75-12.88,1.85-5.13,3-10.48,6.55-14.93,5.21-6.53,8.78-14,11.68-21.79l1.76-3,6.43-14.4-5.34-4.42c-1.45,2-2.77,3.92-4.1,5.78q-6.37,8.26-12.74,16.52c3.29-8.63,10.43-14.66,15.44-22.63-1,.19-1.59.28-2.15.41-4,.89-7.91,1.77-11.85,2.7-4.72,1.11-9.43,2.27-14.14,3.4l-4,1.23c-1.16.38-2.59.46-3.44,1.2-2.4,2.09-4.57,4.44-6.84,6.69l-1.21.59c-2.87-7.1-2-14.45-.08-21.36,1.39-5,4.77-9.57,7.48-14.2a9.29,9.29,0,0,1,7.31-4.62c6.1-.45,12.25-.14,18.35-.6,5.17-.39,10.82,1.22,15.26-2.93a7.22,7.22,0,0,0,2.15-2.93,49.19,49.19,0,0,0,.82-5.86c.7-4.51,1.44-9,2.17-13.53l-.06.05c.93,0,1.85-.14,1.59,1.42-1,6.16-2,12.33-2.92,18.5-.12.43-.25.86-.38,1.3l-4,3.15h6.79c2.44.26,4.88.49,7.31.77q9.31,1.08,18.62,2.19l3.1,1,4.34,2.74v-3.12c-.31-5.58-.62-11.15-.92-16.49a17.46,17.46,0,0,1-3.18-.27c-1.58-.43-2.46-.23-2.22,1.66a10.28,10.28,0,0,1-.13,1.66L144,207.82l-.1-.61c1.46-4.12,4.73-1.2,7.17-1.72.1-2.41.33-4.72.28-7-.09-4.72-.21-9.45-.54-14.16-.28-3.86-1-7.68-1.31-11.54-.4-5.11-.5-10.26-3-14.93-.56-2.7-1.11-5.4-1.73-8.37l-1.37,7.74L141,160.05c-.48.57-1.4,1.16-1.37,1.7.68,11.58-2.87,22.19-6.94,32.78-2.94,7.64-5.26,15.52-7.89,23.28a16.85,16.85,0,0,1-1.07,2.12l-.52-.18c-.07-.47-.15-.95-.23-1.42,3.45-10.36,6.31-21,10.51-31,4-9.55,4-19.35,4.38-29.25L134,150.83l-.43.24c0,.72-.07,1.43-.08,1.76a8.35,8.35,0,0,0-2.39.64c-1.45.94-2.73,2.17-4.2,3.09q-5.55,3.51-11.22,6.8a8.72,8.72,0,0,1-2.72.44l18-12.1c-5.65-8.64-11.4-16.85-16.52-25.45-4.76-8-12.11-13.56-18.42-21-2.9,4.42-5.58,8.46-8.21,12.55a1.47,1.47,0,0,0,.07,1.29c2.52,3.89,5,7.8,7.66,11.59,2.78,4,6.06,7.68,8.52,11.85,2.9,4.9,5.2,10.16,7.64,15.32a25.76,25.76,0,0,1,1.17,4.41l-1.25.53c-5.2-15.17-14.34-27.91-23.81-40.08-1.63.48-3.17,1-4.75,1.35a19.59,19.59,0,0,0-8.23,3.76c-5,3.8-10.35,7.18-15.47,10.83-4.62,3.29-9.63,6.21-11.44,12.22a12.17,12.17,0,0,1-2.55,3.94A13,13,0,0,0,42.83,163c4.36-5.22,8.77-10.5,13.16-15.79a4.88,4.88,0,0,0,.5-1.11l-.65-.5-4.61,2.86-.44-.5a10.6,10.6,0,0,1,1.78-2.13c1.55-1.1,3.47-3.21,5.17-1.46s-.37,3.65-1.58,5.16c-2.87,3.56-5.71,7.14-8.77,10.52-1.78,2-4,3.53-6,5.33a3.41,3.41,0,0,0-.83,1.49c-.57,1.89-1.2,3.78-1.58,5.72-.34,1.77.09,3.83-.64,5.37-3.16,6.65-3,14-4.56,21a32.54,32.54,0,0,1-4.11,10.74c-1.36,2.15-2.55,4.42-3.72,6.69-1,1.88-1.79,3.84-2.68,5.75-.73,1.56-2,3.08-2.09,4.67a49,49,0,0,0,.56,9.6c.24,1.71,1.2,3.31,1.84,5l0,0c-.05,5.48,6.26,12.78,11.45,13.22a3.64,3.64,0,0,0,.74-.06c3.08-.23,5.84.13,7.72,3.09a4.09,4.09,0,0,0,2.69,1.64c4,.4,8,.56,12,.79.63,0,1.26,0,1.88,0-.3.75-.64,1.08-1,1.08-3.79.08-7.66.54-11.36,0-2.09-.33-3.82-2.55-5.85-3.67-1.54-.85-3.46-2.09-4.91-1.77-2.52.55-4.29-.67-6.35-1.32l-.84-1c-5.38-2.38-6.8-7.56-8-12.42-1.17-4.67-1.21-9.64-1.63-14.48a5.07,5.07,0,0,1,.75-2.3q2-4.34,4-8.65a29.78,29.78,0,0,1,2.18-4.15,30.44,30.44,0,0,0,5.59-13.53c.88-6.52,2.58-12.93,4-19.39.78-3.68,1.54-7.36,2.46-11S41,160,42.21,156.49c.46-1.34,1.84-2.34,2.54-3.63,2.41-4.44,4.79-8.88,9-11.94,1.22-.88,2.36-1.85,3.58-2.71,6.22-4.38,12.39-8.85,18.74-13,1.85-1.22,4.26-1.62,6.43-2.34,1.51-.51,3-.93,5.08-1.55-2.54-2.16-1.62-3.73-.33-5.48,2.41-3.25,4.5-6.74,7-9.94,2.24-2.91,5.51-3.77,9.09-3.72a26.21,26.21,0,0,0,3.3-.36c-3.2-5.26-3.55-10.66-3-16.16a13.24,13.24,0,0,1,1.34-4.45c2-4.28,4.29-8.47,6.34-12.74a10.16,10.16,0,0,0,1.19-4c.28-13.37,6-24.3,14.66-34.12,4.61-5.23,9.9-9.38,16.43-11.62,3.64-1.25,7.6-1.6,11.44-2.27,1.62-.28,3.28-.37,4.93-.53,7.14-.7,12.74,3,18.33,6.59.47.3.51,1.27.76,1.92-1.76-1-3.56-1.89-5.27-2.95A23.4,23.4,0,0,0,157.07,18c-4.4.75-8.94,1.11-13.13,2.53-7.94,2.68-13.84,8.3-19,14.78a53.32,53.32,0,0,0-9,16.48,34.62,34.62,0,0,0-1.78,10c-.06,4-1.93,7-3.54,10.4-3.46,7.21-7.74,14.27-5.08,22.95.7,2.31,1.45,4.32,3.34,5.88,3.74,3.08,6.87,7.14,12.28,7.45-.34.31-.76.94-1,.88-2.55-.6-5.07-1.31-6.76-1.76l-6.56,6.58c.46.82,2.07,1.85,3.08,3.3,5.45,7.89,10.74,15.9,16.14,23.84a14.46,14.46,0,0,0,3.38,4c4.84,3.27,8.76,7.17,10.38,13.17,3.14-3.24,2.34-7.38,2.81-11.4l2.7,1.38a17.33,17.33,0,0,0-1-3.19c-4.32-7-8.7-13.9-13-20.86a15.22,15.22,0,0,1-.88-2l.65-.36c.51.69,1.06,1.35,1.53,2.07q6.91,10.75,13.81,21.52c2.72,4.2,6.42,5.56,11.44,4.82,6-.87,10.64-4.13,15.81-7.25l-5.41-3.79-1.07-1.6.52-.55,3.82,2.65c3.75,3.27,4.47,3.39,8.38.84a30.56,30.56,0,0,0,4.27-3.41,11.81,11.81,0,0,0,1.57-2.57c.4.05,1.06.11,1.71.21,3.76.54,5-.83,5.16-4.62a97.61,97.61,0,0,1,1.37-10c1.15-2.19,2.17-4.46,3.48-6.55a38.18,38.18,0,0,1,3.39-4.06l.84.69c-.87,1.1-1.8,2.16-2.6,3.31-1.29,1.86-1.28,2.33-.57,3.27l11.64-7.77c-.05-.2-.17-.77-.3-1.34L213,90.27l1.09,0,.11.54c-1,6.19-2.73,12.28-2.64,18.66a6.42,6.42,0,0,0,1.6-1c2.49-1.59,1.37-4.67,2.81-6.69.57-1.88,1.22-3.75,1.7-5.66.8-3.23-.54-6-3.59-7.58l-1.53-.73-5.71-3-5.2-4-4.49-5.35a39.89,39.89,0,0,1-2.55-4.18,3.77,3.77,0,0,1,.2-2.47c2.79,6.36,7.73,10.59,13,14.41,2,1.44,4.38,2.34,6.52,3.59,1.27.74,2.41,1.7,3.61,2.57,2.12,3.37,1.57,6.8.18,10.24-.08.35-.16.7-.25,1.06l.35.15.44-.9c3.18-4.58,4-9.9,4.77-15.23a3.48,3.48,0,0,0-.48-2.53c-1.83-2.09-3.88-4-5.84-6l-1.18-2.09,1.89-.82c-1.55-2.37-3-4.74-4.6-7s-3.23-4.28-4.92-6.51c1.83-.9,2.52,1,3.71,1.71l11.64,18.12c-.34-2.93-.6-5.64-1-8.34-1-7.74-4.9-14.39-8.67-20.92-2.78-4.83-6.86-8.91-10.37-13.32-2.28-1.78-4.39-3.88-6.89-5.26C192,29.22,187.52,25.76,181.61,26.32Zm-73.46,76.46-.46-.47-.32.54.88.74C108.22,103.32,108.19,103.05,108.15,102.78Zm180.56,125,.27.28.63-.66,7.12-7.06-.58-.55c-2.83,1.92-5.45,4-6.75,7.41Zm.46-10.88c5-4.36,11.69-4,17.32-6.64q-6.57.92-13,2.44a5.73,5.73,0,0,0-4.52,4.08l-.3.66ZM221,296.32c-4.07-1.32-9.54-.92-12.51,1.07l6.55,1.76c.66.09,1.33.14,2,.28,7.42,1.6,14.48.83,21.08-3.14l14-8.41a81.07,81.07,0,0,1,20.28-1.13c4.95.38,11.58,5.25,12.68,9.36a23.66,23.66,0,0,1-.27,13.62c-2.38,5-6.22,8.87-10.14,12.75a30.49,30.49,0,0,1-17.67,9c-6.34.81-12.9.16-19.35,0-4.24-.13-8.46-.61-12.69-.94a14.62,14.62,0,0,0,4.65,1c8.5.82,17,2.06,25.49,2.35A38.71,38.71,0,0,0,277.82,328c7.7-4.9,13.27-11.12,16-19.82.19-3,1.08-6.23.43-9.07-2.14-9.37-11.11-16-20.66-15.93-7.56,0-14.67,2.29-21.85,4.27-3.94,1.49-7.92,2.86-11.8,4.5C233.89,294.53,227.68,296.35,221,296.32Zm58-47.07c-.38-1.33-.76-2.66-1.15-4-.23-1.09-.47-2.18-.74-3.4l-3.11.95-1.51.32c-5.51,1.39-11.06,2.67-16.53,4.2-8.82,2.46-17.59,5.08-25.86,7.49,0,4.08-.11,7.7.06,11.3a13.45,13.45,0,0,0,1.14,4.49,43.06,43.06,0,0,0,2.46,4.53c1.3-.54,2.59-1.1,3.9-1.62,5-2,10.29-3.58,15.68-2.31s11,2.26,15.77,5.69a39.39,39.39,0,0,0,4.55,2.52l0-.12,2.77,1.77.75.42c.71.22,1.72,1.16,1.58-.66.18-1.53.37-3.06.55-4.59,1.32-8.63.92-17.27.13-25.91A3.81,3.81,0,0,0,279,249.25Zm-77.5,76.52c1.85,1.16,3.59,3,5.59,3.33,2.69.46,5.59-.5,8.38-.39,11.44.48,22.86,1.19,34.3,1.71A29.18,29.18,0,0,0,270,323.83c4.22-3.38,8.29-6.92,11.28-11.51,3.39-5.21,5.1-13.49-.1-19-2.58-2.75-5.18-4.95-9-4.92-4.73,0-9.46.2-14.18.46a23.36,23.36,0,0,0-13.08,4.86c-7.69,5.93-16,9.44-25.9,7.49-4-.8-8.52-.34-11.88-3.55-.18-.17-.84-.05-1.13.14-1.9,1.29-4.23,2.28-5.56,4C195.41,308.34,196.06,319.26,201.5,325.77Zm-42.73-99c0-7.45.18-14.75-.05-22s-2.88-14-5.9-20.6a65.85,65.85,0,0,0,.27,8c.63,7.74-1,15.52.44,23.27a34,34,0,0,1,.06,6.14c0,1.71,0,3.42,0,5.25Zm8.78,1.89L181.26,225l.66-6.85-16.58-1.56Q166.41,222.33,167.55,228.62ZM296.3,305.76c3.65-4.9,2.73-14.35-1.33-17.93a.8.8,0,0,0-.21-.15c-3.86-2-7.7-4.1-11.6-6.07a9.09,9.09,0,0,0-2.5-.48c-.11.26-.22.52-.34.78a10.55,10.55,0,0,0,1.89,1.29,20.29,20.29,0,0,1,8.63,6.47C294.44,294.28,297,299.21,296.3,305.76Zm-191.2-193c1.76-1.71,3.5-3.3,5.11-5a11.09,11.09,0,0,0,1.33-2.33,14.76,14.76,0,0,1-1.8.53c-.28,0-.61-.2-.92-.3-1.49-.49-3-1-4.47-1.46a6.54,6.54,0,0,0-6.17,1ZM281,278.14c0,.5-.17,1.06-.08,1.09,3.69,1.45,7.39,2.85,11,4.22C289.93,280.83,285.57,278.64,281,278.14ZM166,229.69c.21-.47.39-.68.37-.87s-.23-.36-.35-.53c-.14.12-.36.23-.38.37S165.72,229,166,229.69ZM305.4,212.8l-.32-.16c-.12.09-.35.19-.34.26a2,2,0,0,0,.24.55Zm-1.59.25c-.15.25-.3.41-.27.49s.23.17.35.26C303.87,213.59,303.85,213.38,303.81,213.05Z"/><path class="cls-4" d="M273.45,168.46c0-7.66,2.32-13.75,3.55-20.05,2.61-13.3,18.58-18.95,28.33-16.46,5,1.27,8.95,9,7.43,13.76a25,25,0,0,1-13.14,15.4c-4.21,2.1-8.4,4.5-11,8.6-2.14,3.37-1,7.27-.93,11,.05,1.9.36,3.81.26,5.69-.09,1.44-1.13,2.49-2.58,1.58-2.83-1.78-6.15-2.79-8.15-5.93C274.32,177.47,273.68,172.49,273.45,168.46Z"/><path class="cls-4" d="M317.94,243.52a28.23,28.23,0,0,1,2.69,3.64c2.28,4.41,4.95,8.13,10.11,9.73,6.59,2.05,13.42,1.9,20.13,2.75,7.25.92,14.74,7.39,15.56,14.62.48,4.25-1.36,7.42-5.28,8.88a27.49,27.49,0,0,1-31.29-9c-3.35-4.22-6.92-8.27-10.26-12.49A17.28,17.28,0,0,1,316,246.2a14.93,14.93,0,0,1,.95-2.23Z"/><path class="cls-5" d="M77.22,4.26a18.26,18.26,0,0,1,3,2.93c4.4,7.14,8.69,14.35,13,21.54,2.87,4.76,5.8,9.5,8.56,14.33.5.86.31,2.12.44,3.19-1,0-2.1.3-3,0-8.71-3.55-16.45-8.85-24.39-13.77-2.54-1.57-5.08-3.16-7.65-4.68-4-2.38-4.89-4.39-3.08-8.61s4.1-8.58,7.81-11.7A41.2,41.2,0,0,1,77.22,4.26Z"/><path class="cls-5" d="M72,45.43c4.4.68,8.9,1.42,13.41,2,3.93.54,7.89.89,11.82,1.46a3,3,0,0,1,2,1.36c.19.43-.51,1.58-1.09,2-5.87,4.06-11.79,8-17.72,12-1.72,1.15-3.55,2.14-5.32,3.23-2,1.24-3.26,1.07-4.23-1.1-1.14-2.56-2-5.27-2.86-7.94-.73-2.2-1.45-4.41-2-6.66C64.62,46.42,66.13,45.86,72,45.43Z"/><path class="cls-6" d="M138.47,328.65c-.67-.31-1.36-.93-2-.89-5.37.34-10.74.74-16.11,1.23-3.87.35-7.83.79-11.13-1.7-1.69-1.28-2.81-3.33-4.19-5,5.56.12,11.13.43,16.69.28,4.54-.13,9.07-1.15,13.6-1.19,8.91-.09,17.11-3.11,25.46-5.53a13.45,13.45,0,0,0,4-2.07c3.15-2.26,6.2-4.67,9.29-7l2.94-1.27.06-.7,2-.18-.51,5.46c-7.35,4.42-14.48,9.28-22.14,13.08-4.76,2.37-10.34,3.1-15.53,4.61-.49.14-.88.64-1.31,1Z"/><path class="cls-5" d="M114.14,22.82c-.45,3.29-.72,5.84-1.15,8.37-.33,1.87-1.87,2.26-3.22.66-4.5-5.32-8.88-10.74-13.28-16.14-1.15-1.42-2.17-2.93-3.32-4.35C91.74,9.58,92.06,8,94.11,7c4.47-2.18,8.94-4.34,13.4-6.54,2.09-1,3.34-.34,3.58,2,.15,1.47.47,2.93.69,4.4C112.61,12.41,113.42,18,114.14,22.82Z"/><path class="cls-7" d="M160.51,151.86c-.35.36-1,.74-1,1.08.12,1.87.41,3.73.65,5.69-2.51-.58-3.43.73-4.24,3.46-2.22,7.54,1.33,14.27,2.56,21.32.65,3.74,1.29,7.48,2,11.22.29,1.61.79,3.18,1,4.8.42,3.26.61,6.55,1.06,9.81.85,6.21,1.82,12.4,2.75,18.72l-4.25-.81c0-4.6.18-9.08,0-13.54-.3-6-.38-12-1.58-17.83-1-4.95-3.35-9.68-5.38-14.38-1.83-4.25-2.42-8.66-3.06-13.18-.74-5.11-2.5-10.08-3.79-15.12a29.9,29.9,0,0,1-.89-5c4,5,9.18,3.88,14.25,3.33A.58.58,0,0,1,160.51,151.86Z"/><path class="cls-8" d="M29.74,253.26l.84,1c-1.64,10-2.92,20.14-5.08,30.06a36.82,36.82,0,0,1-5.79,12.79c-3.5,5-8.16,9.17-12,13.94-2.44,3-4.33,6.48-6.51,9.8,4.32,2.2,4.93,2.15,9.55,1.95,3-.14,6.07.37,9.11.4,6.75.05,8.47-.93,10.56-7.1,1.6-4.72,3.78-9.37,2.74-14.7a7.21,7.21,0,0,1,2.52-7c4.3-3.71,6.87-8.68,9.69-13.44,2.36-4,4.43-8.13,6.7-12.16a22.78,22.78,0,0,1,2.11-2.72l.65.43-7,13.72L47,281.47l-9.91,13.79c-2.78,1.86-2.63,4.64-2.37,7.47.62,4.62-1.44,8.69-2.64,12.94a27.34,27.34,0,0,0-.5,3.86,2.36,2.36,0,0,1,0,.38c-1.68,1.23-3.23,3.22-5.07,3.54a97.46,97.46,0,0,1-14.3,1.16A27.7,27.7,0,0,1,4,323.67c-4.66-1.34-5.08-2.28-2.18-6.36C6.29,311.05,11.11,305,16,299.07c1.95-2.39,4.17-4.5,4.71-7.72a1.47,1.47,0,0,1,.31-.67c4.46-5.81,3.95-12.9,5.07-19.57.92-5.46,2-10.9,3-16.34A7,7,0,0,1,29.74,253.26Z"/><path class="cls-5" d="M212,180.83a4.74,4.74,0,0,1-4.77,5c-2.36,0-4.65-2-4.66-4a5.65,5.65,0,0,1,4.8-5C209.65,176.76,212,178.75,212,180.83Z"/><path class="cls-5" d="M231,158c-.1,2.32-3,4.48-5.75,4.29a3.77,3.77,0,0,1-3.67-3.84c.17-2.44,2.44-4.7,4.64-4.62C228.64,154,231,156,231,158Z"/><path class="cls-5" d="M391.76,226.79c-2.66,0-4.35-1.28-4.34-3.29a4.61,4.61,0,0,1,4.15-4.15c2,0,4.36,2.14,4.32,4S394,226.79,391.76,226.79Z"/><path class="cls-5" d="M251,185.93a3.65,3.65,0,0,1-3.55,3.4c-2.37.1-4.33-1.41-4.4-3.38s1.54-4,3.28-4C248.59,181.91,250.91,183.9,251,185.93Z"/><path class="cls-5" d="M354.33,191.85c-2.34,0-4.21-1.39-4.19-3.06,0-1.91,1.92-3.51,4.14-3.49,2.39,0,4.28,1.66,4.2,3.64S356.9,191.88,354.33,191.85Z"/><path class="cls-5" d="M344.28,223.81c2.27,0,3.71,1.23,3.67,3.09s-1.82,3.3-3.92,3.34-4-1.28-4-2.87C340,225.45,342,223.79,344.28,223.81Z"/><path class="cls-3" d="M31.6,319.91a2.36,2.36,0,0,0,0-.38l9-.81,8.42,1,.15,1-7.56,2.1H38.29l-.06-.62,7.69-1.76H32Z"/><path class="cls-9" d="M32,320.44H45.92l-7.69,1.76.06.62h3.32c-.11.6-.23,1.2-.34,1.82l-7.74-2,.45,3.27-1.85-1.63Z"/><path class="cls-10" d="M171.51,139.92l-3.82-2.65-.52.55,1.07,1.6a6.4,6.4,0,0,1-5.06,4.1,30.64,30.64,0,0,1-10.2.11c-2.8-.47-4.32,1.66-6.58,2q-6.92-10.75-13.81-21.52c-.47-.72-1-1.38-1.53-2.07l-.65.36a15.22,15.22,0,0,0,.88,2c4.34,7,8.72,13.89,13,20.86a17.33,17.33,0,0,1,1,3.19l-2.7-1.38c-.47,4,.33,8.16-2.81,11.4-1.62-6-5.54-9.9-10.38-13.17a14.46,14.46,0,0,1-3.38-4c-5.4-7.94-10.69-16-16.14-23.84-1-1.45-2.62-2.48-3.08-3.3l6.56-6.58c1.69.45,4.21,1.16,6.76,1.76.25.06.67-.57,1-.88l2.85-.56,6-5c.18-.54.37-1.07.55-1.6l4.69,1.35,5.1,1.54c1.35.51,2.7,1.43,4.06,1.46,7.19.18,15.8-6.11,16.71-13.31,1.52-.07,3-.26,4.54-.19,2.88.14,5.79.73,8.39-1.14,5.23.26,10-1.9,14.49-3.86a13.87,13.87,0,0,0,8.39-10.64c.07-.34.13-.68.19-1l4.49,5.35-3.83.4,4.27,4.56,3.91,2.1c4.31,6.36,2.37,13.32,1.63,20.19l2.26-.21c.13.57.25,1.14.3,1.34L198.51,117c-.71-.94-.72-1.41.57-3.27.8-1.15,1.73-2.21,2.6-3.31l-.84-.69a38.18,38.18,0,0,0-3.39,4.06c-1.31,2.09-2.33,4.36-3.48,6.55-1.3,1-2.56,2-3.9,2.9-3.15,2.16-5.6,4.77-6.11,8.76l-3.94-.11,2.19-5.33c-2.22.35-3.94,2.86-3.16,4.91.08.21.68.24,1,.35,0,.5,0,1,0,1.49h-5c-.33,2.31-.91,4.66-3.41,5.88C171.53,139.29,171.56,139.68,171.51,139.92ZM177.74,107a5,5,0,0,0,3.46,4.92,56,56,0,0,1,5.66,1.89l.61-1.53Zm18.59-2.07c-1.07-2.78-8.76-5.37-10.5-3.61Z"/><path class="cls-6" d="M203.64,37.09c3.51,4.41,7.59,8.49,10.37,13.32,3.77,6.53,7.66,13.18,8.67,20.92.36,2.7.62,5.41,1,8.34L212,61.55c-1.17-3.14-1.92-6.54-3.61-9.37-2.23-3.74-5.21-7-7.85-10.51-.54-.72-1-1.5-1.51-2.26A4.37,4.37,0,0,0,203.64,37.09Z"/><path class="cls-11" d="M143.84,76.82c-3.13,2.74-5.66,5.88-6.77,10-.22.79-.42,1.58-.63,2.36-1.58-1.8-.7-3.56.58-5.58-2.43.38-3.19,1.72-3.07,3.35a16.07,16.07,0,0,0,1.21,3.75c-2.07,3-2.29,6.42-2.16,9.9a14.32,14.32,0,0,1-1.8-2.2,56.37,56.37,0,0,1-2.62-5.56,7.63,7.63,0,0,1-.65-3.1c.31-6.77,2.1-12.87,8.12-16.93C140.77,70.84,142.74,71.86,143.84,76.82Zm-11.64,5c2.41-2.71,4.6-5.17,6.87-7.7C136.56,74.2,132.67,78.45,132.2,81.84Z"/><path class="cls-8" d="M188.05,61.45c-.43,3.91-2.69,6.59-5.45,8.87-5.79,4.77-12.88,6.31-20,7.53-6.14,1.05-12.19,2.12-17.82,5-2.29,1.18-4.15,2.46-5,5.66-.79-3.29.38-5,2.49-6.1,4.88-2.46,9.74-4.67,15.39-5.28a58.33,58.33,0,0,0,19.16-5A21.33,21.33,0,0,0,187,62.7,8.12,8.12,0,0,1,188.05,61.45Z"/><path class="cls-1" d="M203.64,37.09A4.37,4.37,0,0,1,199,39.41c-.5-.5-1-1-1.49-1.52l-1-1-4.74-2.48-2.27-1.08c-2.1-1.72-4.22-3.42-6.29-5.19a14.46,14.46,0,0,1-1.6-1.87c5.91-.56,10.41,2.9,15.14,5.51C199.25,33.21,201.36,35.31,203.64,37.09Z"/><path class="cls-8" d="M196.93,76.56a13.87,13.87,0,0,1-8.39,10.64c-4.53,2-9.26,4.12-14.49,3.86-4.56-.23-9.12-.44-13.68-.68A7.77,7.77,0,0,1,154,86.61a2.68,2.68,0,0,1-.3-1.14c0-.1.19-.24.51-.63,3.58,6,9.53,3.52,14.61,4.28a19.09,19.09,0,0,0,3.47.12c9.33-.35,18-2.14,23.1-11.2A7.69,7.69,0,0,1,196.93,76.56Z"/><path class="cls-12" d="M218.11,99.69c1.39-3.44,1.94-6.87-.18-10.24,0-2.46,0-4.92-.11-7.36-.12-2-.47-3.89-.72-5.83,2,2,4,3.89,5.84,6a3.48,3.48,0,0,1,.48,2.53c-.76,5.33-1.59,10.65-4.77,15.23Z"/><path class="cls-8" d="M136.05,72.79c-6,4.06-7.81,10.16-8.12,16.93a7.63,7.63,0,0,0,.65,3.1,56.37,56.37,0,0,0,2.62,5.56,14.32,14.32,0,0,0,1.8,2.2l3.68.78-1.43,1.34-4.69-1.35a84,84,0,0,1-3.68-8.59,12.68,12.68,0,0,1-.36-5.84c1.15-6.34,2.92-12.43,9.53-15.45Z"/><path class="cls-3" d="M148.81,54.31l6.81-6.92-.53-.6-9.21,4.46-.42-.76a14.64,14.64,0,0,1,1.38-1c3.28-1.92,6.71-3.61,9.8-5.78,2.14-1.5,3.81-3.66,5.7-5.53l.88.62c-.92,1.37-1.76,2.8-2.77,4.1s-2.28,2.52-3.39,3.81c-2.22,2.54-4.42,5.11-6.62,7.67Z"/><path class="cls-13" d="M161.12,92.39c-.91,7.2-9.52,13.49-16.71,13.31-1.36,0-2.71-1-4.06-1.46.33-.31.83-.94,1-.87,3.42,1.74,6.69.83,9.66-.89,4.06-2.35,7.74-5.2,8.6-10.33.06-.36.61-.65.93-1Z"/><path class="cls-13" d="M131.94,62.88c-.79,1.24-1.33,2.83-2.44,3.67C124,70.71,120.08,76.09,116.74,82a14.56,14.56,0,0,1-.93,1.43c-.07.09-.31.06-.85.15,2.93-9.19,10-14.89,16.35-21.11Z"/><path class="cls-13" d="M189.5,33.38l2.27,1.08a12.72,12.72,0,0,1,1.46,9.31c-.66,3.13-1.1,6.3-1.68,9.44-.08.42-.44.8-1.16,1.1,0-.56.06-1.12.11-1.67.4-4.1.92-8.19,1.14-12.29.12-2.11,0-4.38-2.29-5.65C189.21,34.62,189.44,33.83,189.5,33.38Z"/><path class="cls-8" d="M153.28,36.32,155.77,32l-.38-.49c-1.19,1-2.33,2-3.58,2.84a12.57,12.57,0,0,1-4.14,1.94l12.26-10.9.55.31c-1.31,4.16-3.78,7.67-6.47,11.07Zm2.53-5.18.33.32a2.39,2.39,0,0,0,.31-.56c0-.09-.17-.22-.26-.34Z"/><path class="cls-8" d="M135.16,90.68A16.07,16.07,0,0,1,134,86.93c-.12-1.63.64-3,3.07-3.35-1.28,2-2.16,3.78-.58,5.58l2.73,4.53C136.49,94.27,136.53,91.5,135.16,90.68Z"/><path class="cls-8" d="M178.89,39c-1.57,3.77-2.21,8.05-6.09,10.57L178,38.43Z"/><path class="cls-13" d="M136.05,72.79V71.47c5.67-2.07,9.49.69,8.68,6.92-.44-.79-.67-1.18-.89-1.57C142.74,71.86,140.77,70.84,136.05,72.79Z"/><path class="cls-13" d="M165.88,57.54c-2.38,3.4-6.12,5-9.55,7l-.48-.64L165.47,57Z"/><path class="cls-13" d="M148.81,54.31l1.63.07L141,58c-.13-.36-.27-.72-.4-1.09Z"/><path class="cls-3" d="M130,103l-6,5C125.6,105.72,127.11,103.5,130,103Z"/><path class="cls-6" d="M196.51,36.94l1,1Z"/><path class="cls-14" d="M34,325.89l-.45-3.27,7.74,2c.11-.62.23-1.22.34-1.82l7.56-2.1-.15-1-8.42-1c1.91-7,3.5-14.08,5.84-20.93,1.74-5.1,4.43-9.89,6.9-15.23l-5.51-2.3,7-13.72-.65-.43a22.78,22.78,0,0,0-2.11,2.72c-2.27,4-4.34,8.18-6.7,12.16-2.82,4.76-5.39,9.73-9.69,13.44a7.21,7.21,0,0,0-2.52,7c1,5.33-1.14,10-2.74,14.7-2.09,6.17-3.81,7.15-10.56,7.1-3,0-6.08-.54-9.11-.4-4.62.2-5.23.25-9.55-1.95,2.18-3.32,4.07-6.78,6.51-9.8,3.86-4.77,8.52-8.94,12-13.94a36.82,36.82,0,0,0,5.79-12.79c2.16-9.92,3.44-20,5.08-30.06,2.06.65,3.83,1.87,6.35,1.32,1.45-.32,3.37.92,4.91,1.77,2,1.12,3.76,3.34,5.85,3.67,3.7.58,7.57.12,11.36,0,.36,0,.7-.33,1-1.08-.62,0-1.25,0-1.88,0-4-.23-8-.39-12-.79a4.09,4.09,0,0,1-2.69-1.64c-1.88-3-4.64-3.32-7.72-3.09a3.64,3.64,0,0,1-.74.06c-5.19-.44-11.5-7.74-11.45-13.22,1-.67,2.38-1.11,2.91-2a62.16,62.16,0,0,1,18-20.51,31.29,31.29,0,0,1,3.61-2c-.06.31,0,.72-.2.93-3.09,3.53-6.22,7-9.31,10.56A5.74,5.74,0,0,0,38,229.7l.58.46c4.6-5.11,8-11.47,14.48-14.73a8.71,8.71,0,0,0-3.21.92,13.57,13.57,0,0,1-1.72.46l.77-2.21c-2.06,1.19-3.52,1.91-4.83,2.83-5.44,3.85-9.66,9.16-15.46,12.63-4.14,2.48-4.91,6.8-4.95,11.26-.64-1.65-1.6-3.25-1.84-5a49,49,0,0,1-.56-9.6c.09-1.59,1.36-3.11,2.09-4.67.89-1.91,1.71-3.87,2.68-5.75,1.17-2.27,2.36-4.54,3.72-6.69a32.54,32.54,0,0,0,4.11-10.74c1.53-7,1.4-14.31,4.56-21,.73-1.54.3-3.6.64-5.37.38-1.94,1-3.83,1.58-5.72a3.41,3.41,0,0,1,.83-1.49c2-1.8,4.19-3.36,6-5.33,3.06-3.38,5.9-7,8.77-10.52,1.21-1.51,3.25-3.43,1.58-5.16s-3.62.36-5.17,1.46A10.6,10.6,0,0,0,50.79,148l.44.5,4.61-2.86.65.5a4.88,4.88,0,0,1-.5,1.11c-4.39,5.29-8.8,10.57-13.16,15.79a13,13,0,0,1,2.59-8.23A12.17,12.17,0,0,0,48,150.82c1.81-6,6.82-8.93,11.44-12.22,5.12-3.65,10.45-7,15.47-10.83A19.59,19.59,0,0,1,83.11,124c1.58-.32,3.12-.87,4.75-1.35,9.47,12.17,18.61,24.91,23.81,40.08l1.25-.53a25.76,25.76,0,0,0-1.17-4.41c-2.44-5.16-4.74-10.42-7.64-15.32-2.46-4.17-5.74-7.86-8.52-11.85-2.65-3.79-5.14-7.7-7.66-11.59a1.47,1.47,0,0,1-.07-1.29c2.63-4.09,5.31-8.13,8.21-12.55,6.31,7.49,13.66,13,18.42,21,5.12,8.6,10.87,16.81,16.52,25.45l-18,12.1a8.72,8.72,0,0,0,2.72-.44q5.69-3.29,11.22-6.8c1.47-.92,2.75-2.15,4.2-3.09a8.35,8.35,0,0,1,2.39-.64c0-.33,0-1,.08-1.76l.43-.24,3.87,7.24-3.8-2.76c-.2,1-.43,1.76-.52,2.58-.34,3.37-.5,6.77-1,10.11s-1.26,6.82-2.05,10.2a39.68,39.68,0,0,1-2,6.33c-1.89,4.49-4.14,8.84-5.9,13.37-1.43,3.69-2.25,7.62-3.57,11.36a53.38,53.38,0,0,1-3,6c1-6.17,1.89-12.34,2.92-18.5.26-1.56-.66-1.41-1.59-1.42l3.76-1.49c-2.93-.83-18.7,2.31-19.7,4,1.07-.1,2-.13,2.81-.27,4.4-.73,8.79-1.5,13.19-2.25-.73,4.51-1.47,9-2.17,13.53a49.19,49.19,0,0,1-.82,5.86,7.22,7.22,0,0,1-2.15,2.93c-4.44,4.15-10.09,2.54-15.26,2.93-6.1.46-12.25.15-18.35.6a9.29,9.29,0,0,0-7.31,4.62C68.75,230.42,65.37,235,64,240c-1.89,6.91-2.79,14.26.08,21.36l-6.54,3.78c1.18,1.71,2.3,3.55,3.66,5.19a2.68,2.68,0,0,0,2.3.87c4-1.71,8.14-3.28,11.8-5.58C77.89,264,79.86,261.28,82,259c.5-.54,1.14-1.65.92-2.07-1-1.84-2.24-3.52-3.4-5.27,4.71-1.13,9.42-2.29,14.14-3.4,3.94-.93,7.9-1.81,11.85-2.7.56-.13,1.12-.22,2.15-.41-5,8-12.15,14-15.44,22.63q6.38-8.25,12.74-16.52a10.58,10.58,0,0,1-.19,2.89c-.84,2.4-1.88,4.74-2.84,7.1l-.53,1.45-5.38,9.62c-2.5,1.2-2.56,3.78-3.36,5.95-.53.54-1.26,1-1.55,1.65-.91,2.12-1.33,4.53-2.54,6.44-4.08,6.42-5,13.93-7.55,20.87-.11.68-.23,1.36-.34,2l-3.59,2.48,7.08-31.32-.71-.26a20.27,20.27,0,0,0-1.37,3.2C80.72,289.55,79.5,295.79,78,302c-1.2,4.95-2.68,9.84-4,14.75l-10.08,5.57,4.67,3.42c-4.32.6-8.62,1.45-13,1.73a153.34,153.34,0,0,1-15.61.13C38,327.49,36,326.48,34,325.89Zm47.43-117.1c.19-.23.53-.43.57-.68q1.09-7.87,2.11-15.76a11.44,11.44,0,0,0-.29-2.19,10.37,10.37,0,0,0-1,2.05q-1,7.89-1.93,15.77c0,.26.29.55.45.83-3.4,3.22-4,7.63-5.47,11.66l.92.4c1.36-3.35,2.73-6.7,4.09-10,4.41,1.5,6.18,7,11.36,7.34Zm-8.26,11.46a4.78,4.78,0,0,0,.82-1.49c.32-2.29.51-4.59.75-6.89,1.21-2.22,2.75-4.34,3.52-6.7s.88-5.23,1.28-7.85c.51-.77,1.08-1.51,1.51-2.31.18-.34,0-.83.07-1.24.39-4.62.89-9.24,1.16-13.86.27-4.78.34-9.57.44-14.35.06-2.56-1.84-3.87-3.59-5.23a40.55,40.55,0,0,0-4.83-14.2c-2-3.52-5.31-4.46-8.48-5.91-.17-.08-.51.24-1.15.55A9.25,9.25,0,0,0,66.44,142c4.45,1.5,6.93,4.92,8.51,9a60.69,60.69,0,0,1,1.87,7.37c-.08,1.29-.12,2.59-.25,3.88-.72,7.66-1.13,15.37-2.3,23-.91,5.93-2.77,11.72-4.22,17.57-2.5.86-5,1.91-7.5,2.54-8.33,2.07-16.93,3-24.83,6.81-4.4,2.14-8.59,4.31-11.42,8.44a9.12,9.12,0,0,0-.81,2.51c1.8-1.54,3-3.29,4.61-4.65,5.62-4.83,12.63-7,19.51-8.94,6.15-1.77,12.73-2,18.67-4.72,0,0,.17.19.34.37l-3.17,2.44.26.48,1.34-.17c-.16,1-.36,2.08-.47,3.13-.21,1.9-.36,3.81-.54,5.72a14.56,14.56,0,0,0-9.93,5.48c-7.62,8.89-7.92,19.72-8.37,30.52a13.91,13.91,0,0,0,.83,3.59l.63-.17c0-.48,0-1,0-1.44-.12-7.76.17-15.54,3-22.82C54.64,225.48,58,219.5,65.76,218c.43-.09.76-.74,1.13-1.13h.62L69,218.27Zm14.11-43.14c5.66.6,11,1.06,16.37,1.77,5.14.69,10.24,1.64,16,2.58-.66-.83-.74-1.05-.86-1.07l-29.94-4.53c-1.91-.29-2.8.87-3.14,2.43-.53,2.43-.89,4.89-1.24,7.34a10.84,10.84,0,0,0,.14,2.19h.62C85.86,184.39,86.52,181,87.26,177.11Zm3.63-8.88h.92c.1-1.81.28-3.62.26-5.43a7.38,7.38,0,0,0-.71-2.14,10.84,10.84,0,0,0-1.91,1.41,4.83,4.83,0,0,0-1,2q-1.2,5-2.2,9.94c-.07.37.38.85.59,1.27l.59-.07q1.31-5.79,2.6-11.59a4,4,0,0,1,.61,2.35C90.68,166.7,90.8,167.46,90.89,168.23Zm10.79,26.12a5.08,5.08,0,0,0,4.62-4.93c0-1.43-1.88-3.13-3.41-3-2.6.13-5,2.25-4.86,4.38A3.65,3.65,0,0,0,101.68,194.35Zm21.54-13.25.83-.5c-1-2.49-1.94-5-3-7.45a28.91,28.91,0,0,0-2.69-4.72c-.43-.61-1.4-.84-2.33-1.36,1.36,2.75,2.44,5,3.6,7.26S122,178.85,123.22,181.1ZM100.76,197l.51-1.09c-1.9-.76-3.84-1.45-5.7-2.29s-3.81-2-5.77-2.84c-1.77-.78-3.63-1.35-5.45-2-.12.31-.23.61-.35.91Zm18.79-4.94c2.15-1.53,3.88-8.87,2.35-10.32ZM86.68,274.75l.91.61,3.66-4.79-1-.74Z"/><path class="cls-2" d="M174,306.74c-3.09,2.34-6.14,4.75-9.29,7a13.45,13.45,0,0,1-4,2.07c-8.35,2.42-16.55,5.44-25.46,5.53-4.53,0-9.06,1.06-13.6,1.19-5.56.15-11.13-.16-16.69-.28-3.91-4.4-4.21-9.94-4.93-15.37-.29-2.15-.74-4.28-1.16-6.68-1.42,1.32-1.38,1.32.51,11.18.71,3.72,1.09,7.53,3.5,10.68-5.93-.58-11.87-1.12-17.8-1.77a6.77,6.77,0,0,1-2.09-1.06c.36-.48.71-1,1.07-1.46,1.63-1.89,3.77-3.53,4.81-5.7,3.32-7,3.78-15.09,8.15-21.74,2.52-.35,5.83.17,7.4-1.24,4.19-3.8,9.19-4.51,14.27-5.51a2.85,2.85,0,0,0,1.86-1.55,7,7,0,0,0-1.21,0c-2.75.55-5.53,1-8.24,1.73a11.86,11.86,0,0,0-4.24,1.89c-3.89,3.05-4.21,3.25-9.32,3l13.82-27.45.41.35c.55.09,1.19.4,1.62.22,4.14-1.69,8.27-3.43,12.35-5.24a3.17,3.17,0,0,1,3.6.51c2.44,1.87,4.9,3.72,7.46,5.4a41.36,41.36,0,0,0,4.85,2.42,3.13,3.13,0,0,0,4.19-1c1.16-1.39,1.53-2.74.33-4.15,1.38-.54,3-.74,3.92-1.64s1.24-2.55,1.86-3.93c.2.16.71.55,1.19,1,1.55,1.33,3.25,2.24,5.17.89,1.75-1.22,3.11-2.77,2.24-5.22a5.25,5.25,0,0,1-.08-1.49h0c3.27-1.21,4.44-3.28,3.49-6.4-.42-1.39-1-2.73-1.55-4.09l2.65,1.52c-.67,1.82.11,1.46,1.37,1.08,7.52-2.27,15-4.87,22.62-6.52a124.86,124.86,0,0,1,20-2.27c1.84-.09,3.81,1.93,5.68,3,.91.55,1.63,1.51,2.58,1.89,4,1.55,5.88,5.21,8.61,8a2.88,2.88,0,0,1,.82,1.78c-.17,6.25,3.08,12.1,1.95,18.52-.32,1.82.78,4,1.59,5.85s2.24,3.45,3.08,5.3a37.67,37.67,0,0,1,1.36,4.93,6.15,6.15,0,0,0,.74,1.28,5.27,5.27,0,0,1-1.58,1c-1.78.34-3.65.3-5.37.79-5.71,1.64-11.38,3.45-17.06,5.2a8.45,8.45,0,0,0-7.08,2.56c-.57-.1-1.13-.23-1.7-.29-4.6-.43-9.19-1-13.79-1.21-2.8-.11-3.45,1-3,3.79.41,2.54-1.14,6.37-3.18,7.08-2.28.79-3.63-.89-4.89-2.47-.15-.2-.34-.51-.51-.51-.72,0-1.72-.15-2.11.25-1.55,1.58-.7,4.18,1.51,5.05l.29.28-.06.7c-2.38-.2-4.8-.21-7.13-.64-7.8-1.44-15.12-4.08-21.52-8.93-.13-.1-.44,0-.68.07C149,300.58,163.92,306.62,174,306.74Zm28-42,0-.69c-7.31-1.42-56.17,5.3-58.87,8.19,6.87.58,13.09-2.26,19.62-3.16s13.08-2.19,19.66-2.92S195.49,265.19,202,264.74Zm-59.66,38.49c-.07-.44-.15-.89-.22-1.33-6.81,1.12-13.6,2.41-20.43,3.32s-13.73,1.3-20.19,3.83l.13.64Zm62.46-39.94-.17,1c3.93,1.16,7.88,2.24,11.77,3.52a8.85,8.85,0,0,1,3.77,2.16c3.41,3.82,6.61,7.83,9.9,11.76.49.59,1.07,1.1,1.6,1.65l.71-.68c-4.21-5.5-7.47-12.06-13.73-15.46C214.57,265,209.63,263.92,204.84,263.29Zm-104,37.8c5.75,1.67,28.49-.76,30.71-3.72Zm85.49-28L186,272l-37.7,7.22c.08.38.15.76.23,1.14ZM154,282.2c.09.38.17.76.26,1.13L176,278.41l-.24-1.07Zm-54.63,35q-1.65-8.47-3.3-17C94.58,301.87,96.61,314.24,99.38,317.2Zm31.51-33.82.33,1.14,10.8-2.37-.24-1Zm1.64,13,.09.78,8.85-.74c0-.3-.05-.61-.08-.91C138.39,295.39,135.33,294.66,132.53,296.42Zm12.83,5.49-.43,1.08,9.39,4.53.42-.93Z"/><path class="cls-14" d="M201.5,325.77c-5.44-6.51-6.09-17.43-1.08-24,1.33-1.74,3.66-2.73,5.56-4,.29-.19,1-.31,1.13-.14,3.36,3.21,7.84,2.75,11.88,3.55,9.87,1.95,18.21-1.56,25.9-7.49A23.36,23.36,0,0,1,258,288.82c4.72-.26,9.45-.43,14.18-.46,3.86,0,6.46,2.17,9,4.92,5.2,5.55,3.49,13.83.1,19-3,4.59-7.06,8.13-11.28,11.51a3.67,3.67,0,0,0-1.28-.18,84.7,84.7,0,0,1-22,2.14q-13.35-.17-26.68-.56c-2.64-.08-5.27-.5-7.9-.82-3.43-.41-6.85-.87-10.27-1.3C201.72,324.26,201.61,325,201.5,325.77Z"/><path class="cls-15" d="M159.61,249.29a20.15,20.15,0,0,1-.48,3.41c-.81,2.56-2.79,3.23-4.73,1.46-4-3.64-7.82-7.45-11.73-11.18-1.26-1.2-2.56-2.35-3.84-3.53l-.64.67c2.57,2.7,5.23,5.32,7.67,8.13C147.38,250,150,251,150,253.78c0,1.16-.3,2.9-1.07,3.35a4.39,4.39,0,0,1-3.84,0c-1.95-1.2-3.5-3-5.29-4.52-2.5-2.07-5.07-4.07-7.61-6.09l-.59.61a5.8,5.8,0,0,0,.83,1.16c3.83,3.3,7.81,6.45,11.46,9.95a5.12,5.12,0,0,1,1,4.27c-.56,2-2.63,1.32-3.79.62-3.69-2.21-7.26-4.61-10.77-7.09A39.86,39.86,0,0,0,118.73,250a21,21,0,0,1-6.69-4.08,7.67,7.67,0,0,0-7.33-1.73c-8.48,2.13-17,4-25.55,5.94-1.23-1.19-2.29-3.06-3.74-3.43-2.07-.52-2.52-1.62-2.85-3.31a10.05,10.05,0,0,0-1.08-2.9,6.13,6.13,0,0,1,1-7.74,64.81,64.81,0,0,1,7.14-5.64c2.41-1.66,5-2,8.11-2.11,5.93-.24,11.79-2.05,17.87-1.61,3.26.23,6.55.07,9.8.38,3.69.35,7.33,1.14,11,1.55,4.64.51,9.44-.42,13.85,2,3.41,1.88,7.07,3.32,10.43,5.27,3,1.77,3.06,5.4,4.32,8.26l-11.53-10-.5.47c.77.88,1.49,1.82,2.32,2.64,4.7,4.66,9.43,9.29,14.11,14C159.7,248.16,159.56,248.82,159.61,249.29Z"/><path class="cls-14" d="M165.13,240.33l-2.65-1.52-2.2-3.4c3.37-.78,6.56-1.45,9.71-2.27q20.88-5.41,41.73-10.91c8.12-2.15,16.22-4.39,24.33-6.56a2.31,2.31,0,0,1,1.35.11q19.72,8.15,39.42,16.34c.07,0,.11.12.17.18a10.6,10.6,0,0,1-2,.88c-6.13,1.26-12.29,2.39-18.39,3.76-1.31.29-2.43,1.41-3.64,2.14-8.05-4.42-16.1-8.86-24.17-13.24a6.83,6.83,0,0,0-2.21-.33l-.21,1.07L249,238.85a5.24,5.24,0,0,1-1.46,1c-4,1-8,1.92-12,3-2.7.72-5.34,1.65-8,2.48-2.68-5.69-7.77-8.89-12.76-12.1-3.15-2-6.84-2-10.55-1.91-12.68.42-24.75,3.52-36.53,8C166.8,239.62,166,240,165.13,240.33Zm93.21-4.73c-6.87-4.17-13.29-9.15-21.06-11.4l-.56,1.11C244.43,227.8,250.59,233.31,258.34,235.6Zm-20.85-7.49,10.75,6.06C246.71,231.05,240.07,227.23,237.49,228.11Z"/><path class="cls-2" d="M273.66,279.42a39.39,39.39,0,0,1-4.55-2.52c-4.72-3.43-10.34-4.41-15.77-5.69s-10.64.28-15.68,2.31c-1.31.52-2.6,1.08-3.9,1.62a43.06,43.06,0,0,1-2.46-4.53,13.45,13.45,0,0,1-1.14-4.49c-.17-3.6-.06-7.22-.06-11.3,8.27-2.41,17-5,25.86-7.49,5.47-1.53,11-2.81,16.53-4.2.37,2.62.82,5.22,1.08,7.84a79.35,79.35,0,0,1,.56,8.56C274.07,266.16,273.83,272.79,273.66,279.42Z"/><path class="cls-16" d="M143.94,207.21l.1.61c-.18,1.63-.35,3.26-.53,4.9l-3,2.79L144,216q.25,3.36.5,6.72-9.3-1.09-18.62-2.19c-2.43-.28-4.87-.51-7.31-.77l1.1-.51,3.34-.9.23,1.42.52.18a16.85,16.85,0,0,0,1.07-2.12c2.63-7.76,5-15.64,7.89-23.28,4.07-10.59,7.62-21.2,6.94-32.78,0-.54.89-1.13,1.37-1.7.52,3.18.79,6.43,1.61,9.54,2.14,8.13.93,16.31.72,24.49-.1,3.89-.21,7.79-.23,11.69C143.13,206.25,143.66,206.73,143.94,207.21Z"/><path class="cls-15" d="M236.49,211.8c-.2-1.89-1.32-.88-2.16-.66l-50.7,13.12c-.12,0-.28-.07-.5-.14a21.22,21.22,0,0,1,.54-4.61,4,4,0,0,1,2.27-2.39c15.72-3.93,31.39-8.21,47.27-11.37,10-2,20.27-2.26,30.43-3.2a3.83,3.83,0,0,1,2.33,1.17c2.57,2.23,5.09,4.54,7.56,6.88a9.69,9.69,0,0,1,1.25,2,3.57,3.57,0,0,1-4.93-2.48l-4.54-1.29.21-.42c-2.92.23-5.85.43-8.76.76-.32,0-.56.77-1.13,1.6-5,0-10.66,0-16.31,0-.88,0-2.45-.57-2.1,1.43Z"/><path class="cls-17" d="M155,240.83c-1.26-2.86-1.29-6.49-4.32-8.26-3.36-1.95-7-3.39-10.43-5.27-4.41-2.44-9.21-1.51-13.85-2-3.69-.41-7.33-1.2-11-1.55-3.25-.31-6.54-.15-9.8-.38-6.08-.44-11.94,1.37-17.87,1.61-3.11.13-5.7.45-8.11,2.11a64.81,64.81,0,0,0-7.14,5.64,6.13,6.13,0,0,0-1,7.74,10.05,10.05,0,0,1,1.08,2.9c.33,1.69.78,2.79,2.85,3.31,1.45.37,2.51,2.24,3.74,3.43l-13.52,4.23-1.48,0a34.85,34.85,0,0,1,6.37-24.48L72,227.67l1-1.37.51-.56,1-1,.56-.47h0l.9-.72c3.52-.58,7-1.33,10.58-1.67,2.88-.28,5.81,0,8.71-.1,6.37-.24,12.74-.9,19.11-.78s12.87,1,19.31,1.52c2.47.22,4.92.58,7.38.88l.78.26c3,.51,6,1.12,8.22,3.56l.65.48c5,4.27,9.71,8.85,11.78,15.36.29.93-.28,2.12-.46,3.19l-.51.6-1,1a10.72,10.72,0,0,0-1.16-2.35C158,243.91,156.48,242.39,155,240.83Z"/><path class="cls-18" d="M239.22,212.22c4.8-.07,9.6-.31,14.38-.14,4,.14,8.24-.16,11.86,2.06,3.28,2,6.37,4.32,9.54,6.5.37.25.73.52,1.09.78l.48-.42c-.82-1-1.57-2.11-2.48-3.05s-2-1.83-3.06-2.73l-.06.06c8.24-2.44,16.42-5.06,24.72-7.26,6.79-1.81,13.71-3.12,20.57-4.66,1.28-.29,2.55-.62,3.85-.93-1,1.75-1,1.74-3.3,1.86a1.21,1.21,0,0,0-.69.25c-4.82,4.24-10.95,4.24-16.79,5.33a41.89,41.89,0,0,0-9.13,2.86c-3.3,1.46-3.54,5-4.38,8-.64,2.26-1.05,4.59-1.56,6.88l.87.38a6.58,6.58,0,0,0,1.27-1.9c1.4-6,4.83-9.78,11-11a49.32,49.32,0,0,0,5.26-1.54c.1.22.19.44.28.66a41.64,41.64,0,0,1-5.6,3.35c-5.39,2.2-8.2,6.81-11.12,11.34-.42.65-.16,1.74-.21,2.63a13.27,13.27,0,0,1-2-1.74c-1.55-1.93-2.92-4-4.5-5.9A13,13,0,0,0,277,222l-.36.56q1.23,1.88,2.44,3.77c-1.33-.79-2.67-1.57-4-2.37-5.65-3.46-11.35-6.78-18.05-7.79a9.23,9.23,0,0,0-2.2.19c2.79,1.37,5.65,1.88,8.2,3.06,4.77,2.22,9.36,4.83,14.05,7.24.65.33,1.73,1.86,1.93-.4l3.64,4.51-8.22-3c-.39-.51-.68-1.29-1.2-1.51q-16.35-7-32.75-14Z"/><path class="cls-9" d="M68.56,325.71l-4.67-3.42L74,316.72c.55-.2,1.42-.25,1.59-.62a43.63,43.63,0,0,0,1.57-4.37l3.59-2.48v3.25c2.27-2,2.3-3.47.34-5.29,2.54-6.94,3.47-14.45,7.55-20.87,1.21-1.91,1.63-4.32,2.54-6.44.29-.65,1-1.11,1.55-1.65.45-.08,1.22,0,1.31-.26.75-1.87,1.38-3.78,2-5.69l5.39-9.62,4.8,4.63c-2.9,7.8-6.47,15.26-11.68,21.79C91,293.55,89.87,298.9,88,304c-1.59,4.43-3.14,9.05-5.75,12.88-1.94,2.83-5.46,4.66-8.45,6.66A27.73,27.73,0,0,1,68.56,325.71Z"/><path class="cls-16" d="M204.43,292.8a8.45,8.45,0,0,1,7.08-2.56,13.47,13.47,0,0,1-1.93.9c-3.38,1-3.39,1-2.9,4.37-9,2.87-13.18,11.46-11,20.88.78,3.31,1.94,6.54,2.91,9.74-2.25.28-3.94-.72-5.44-3.1-1.37-2.16-3.65-3.74-5.52-5.57-3.11-3-2.79-7.26-3.81-11.24-2.62.09-3.52,2.59-5.28,3.83l.51-5.45c0-.47,0-.94,0-1.41,1.76-.07,3.92.49,5.18-.32,3.31-2.14,3.53-5.68,2.87-9.53a16.82,16.82,0,0,1,3.11-.42c3.71.19,7.41.59,11.12.71C202.34,293.67,203.91,294.88,204.43,292.8Z"/><path class="cls-9" d="M123,218.33l-3.34.9-3.92-2.64c.13-.44.26-.87.38-1.3a53.38,53.38,0,0,0,3-6c1.32-3.74,2.14-7.67,3.57-11.36,1.76-4.53,4-8.88,5.9-13.37a39.68,39.68,0,0,0,2-6.33c.79-3.38,1.54-6.77,2.05-10.2s.66-6.74,1-10.11c.09-.82.32-1.62.52-2.58l3.8,2.76c-.36,9.91-.39,19.71-4.38,29.26C129.32,197.37,126.46,208,123,218.33Z"/><path class="cls-9" d="M253,239.08c1.21-.73,2.33-1.85,3.64-2.14,6.1-1.37,12.26-2.5,18.39-3.76a10.6,10.6,0,0,0,2-.88l6,2.71,2.13,2.93-7.67,2.25c-.49-.6-1-1.69-1.49-1.71-2.28-.08-4.74-.35-6.83.36-5.86,2-11.61,4.32-17.34,6.66a24.2,24.2,0,0,0-3.88,2.51l-18.3,5.2-2.14-7.91c2.67-.83,5.31-1.76,8-2.48,4-1.06,8-1.95,12-3a5.24,5.24,0,0,0,1.46-1l4.93,2.3Z"/><path class="cls-2" d="M237.47,283.3l-2.87-6.44c14.24-8.12,26.28-3.27,38,4.42-10.9.57-21,4.11-31.09,7.75-.4-1.57-.76-3.16-1.23-4.71S238.86,282.37,237.47,283.3Z"/><path class="cls-6" d="M143.94,207.21c-.28-.48-.81-1-.81-1.44,0-3.9.13-7.8.23-11.69.21-8.18,1.42-16.36-.72-24.49-.82-3.11-1.09-6.36-1.61-9.54l2.37-2.85,3.1.63c2.54,4.67,2.64,9.82,3,14.93.3,3.86,1,7.68,1.31,11.54.33,4.71.45,9.44.54,14.16.05,2.31-.18,4.62-.28,7C148.67,206,145.4,203.09,143.94,207.21Z"/><path class="cls-1" d="M293.85,308.21c-2.76,8.7-8.33,14.92-16,19.82a38.71,38.71,0,0,1-22.74,5.82c-8.51-.29-17-1.53-25.49-2.35a14.62,14.62,0,0,1-4.65-1c4.23.33,8.45.81,12.69.94,6.45.21,13,.86,19.35,0a30.49,30.49,0,0,0,17.67-9c3.92-3.88,7.76-7.7,10.14-12.75a9.34,9.34,0,0,0,1.67-1.51c1.06-1.6,2-3.29,3.18-5.31a21.52,21.52,0,0,0,1.45,2.4C292,306.32,292.92,307.25,293.85,308.21Z"/><path class="cls-7" d="M285.14,237.94,283,235l3.3,1.33.31-.64c-.55-.34-1.08-.71-1.65-1-13.71-7.26-28.25-12.6-42.59-18.41a37.28,37.28,0,0,0-3.69-1.47,6.24,6.24,0,0,0-3.08-.33c-8.29,2.19-16.53,4.6-24.83,6.74q-25.2,6.5-50.46,12.72c-.64.16-1.53-.7-2.3-1.09l-.05.06q27.41-7.42,54.82-14.82c7.42-2,14.88-3.83,22.31-5.75a13.78,13.78,0,0,0,1.39-.54l.73.45,2,0,1.22.08c.38.6.62,1.52,1.16,1.76,4.16,1.79,8.4,3.4,12.58,5.15,6.75,2.82,13.48,5.71,20.21,8.56l8.22,3,3.37,3.06v-2.33l2.24-.44.27.24a28.92,28.92,0,0,1-1.18,4.77C287,236.87,285.89,237.33,285.14,237.94Z"/><path class="cls-7" d="M293.85,308.21c-.93-1-1.9-1.89-2.76-2.9a21.52,21.52,0,0,1-1.45-2.4c-1.2,2-2.12,3.71-3.18,5.31a9.34,9.34,0,0,1-1.67,1.51,23.66,23.66,0,0,0,.27-13.62c-1.1-4.11-7.73-9-12.68-9.36a81.07,81.07,0,0,0-20.28,1.13l-.33-.4c7.18-2,14.29-4.23,21.85-4.27,9.55-.06,18.52,6.56,20.66,15.93C294.93,302,294,305.18,293.85,308.21Z"/><path class="cls-19" d="M237.47,283.3c1.39-.93,2.34-.49,2.8,1s.83,3.14,1.23,4.71c-5.35,1.86-10.69,3.78-16.09,5.51-1.11.35-2.46-.14-3.69-.07-5,.31-10,.69-15,1-.49-3.41-.48-3.4,2.9-4.37a13.47,13.47,0,0,0,1.93-.9c5.68-1.75,11.35-3.56,17.06-5.2,1.72-.49,3.59-.45,5.37-.79a5.27,5.27,0,0,0,1.58-1l2.87,2.81.67-.62Z"/><path class="cls-9" d="M79.56,251.64c1.16,1.75,2.43,3.43,3.4,5.27.22.42-.42,1.53-.92,2.07-2.18,2.3-4.15,5-6.76,6.63-3.66,2.3-7.79,3.87-11.8,5.58a2.68,2.68,0,0,1-2.3-.87c-1.36-1.64-2.48-3.48-3.66-5.19l6.54-3.78,1.21-.59c5-.55,7.63-4.26,10.28-7.89Z"/><path class="cls-9" d="M158.77,226.73h-5.18c0-1.83,0-3.54,0-5.25a34,34,0,0,0-.06-6.14c-1.47-7.75.19-15.53-.44-23.27a65.85,65.85,0,0,1-.27-8c3,6.56,5.68,13.27,5.9,20.6S158.77,219.28,158.77,226.73Z"/><path class="cls-20" d="M171.51,139.92c.05-.24,0-.63.15-.7,2.5-1.22,3.08-3.57,3.41-5.88h5l5.33.91L184,132c.51-4,3-6.6,6.11-8.76,1.34-.91,2.6-1.93,3.9-2.9a97.61,97.61,0,0,0-1.37,10c-.15,3.79-1.4,5.16-5.16,4.62-.65-.1-1.31-.16-1.71-.21a11.81,11.81,0,0,1-1.57,2.57,30.56,30.56,0,0,1-4.27,3.41C176,143.31,175.26,143.19,171.51,139.92Z"/><path class="cls-6" d="M273.66,279.42c.17-6.63.41-13.26.47-19.89a79.35,79.35,0,0,0-.56-8.56c-.26-2.62-.71-5.22-1.08-7.84l1.51-.32,3.85,2.45c.39,1.33.77,2.66,1.15,4a40,40,0,0,0-.71,19.78,6.64,6.64,0,0,1,.09,3.42,3.54,3.54,0,0,0,1,3.79c-.18,1.53-.37,3.06-.55,4.59l-1.58.66-.75-.42-2.77-1.77Z"/><path class="cls-21" d="M146.4,145.64c2.26-.35,3.78-2.48,6.58-2a30.64,30.64,0,0,0,10.2-.11,6.4,6.4,0,0,0,5.06-4.1l5.41,3.79c-5.17,3.12-9.83,6.38-15.81,7.25C152.82,151.2,149.12,149.84,146.4,145.64Z"/><path class="cls-22" d="M167.55,228.62q-1.14-6.28-2.21-12.07l16.58,1.56-.66,6.85Z"/><path class="cls-1" d="M83.06,319.24a6.77,6.77,0,0,0,2.09,1.06c5.93.65,11.87,1.19,17.8,1.77,1.24,1.95,2.48,3.89,4,6.23-2.68-.21-5.25-.34-7.8-.63s-5.08-.62-7.58-1.13c-3.2-.66-6.38-1.45-9.53-2.34a3.46,3.46,0,0,1-1.81-1.67c-.14-.28.64-1.11,1.09-1.61S82.46,319.8,83.06,319.24Z"/><path class="cls-9" d="M102,261.23c1-2.36,2-4.7,2.84-7.1a10.58,10.58,0,0,0,.19-2.89c1.33-1.86,2.65-3.73,4.1-5.78l5.34,4.42L108,264.28Z"/><path class="cls-7" d="M252.1,287.88l-14,8.41c-6.6,4-13.66,4.74-21.08,3.14-.65-.14-1.32-.19-2-.28,1.12-.48,2.26-.92,3.36-1.44.89-.42,1.73-.93,2.6-1.39,6.65,0,12.86-1.79,18.94-4.34,3.88-1.64,7.86-3,11.8-4.5Z"/><path class="cls-6" d="M143.51,212.72c.18-1.64.35-3.27.53-4.9l1.45,2.06a10.28,10.28,0,0,0,.13-1.66c-.24-1.89.64-2.09,2.22-1.66a17.46,17.46,0,0,0,3.18.27c.3,5.34.61,10.91.92,16.49l-4.34.38-3.1-1q-.24-3.36-.5-6.72l5.5-.43c0-.31,0-.62,0-.92l-4.08-.48,5.32-2.57c-.1-.25-.21-.5-.32-.75Z"/><path class="cls-7" d="M296.3,305.76c.71-6.55-1.86-11.48-5.46-16.09a20.29,20.29,0,0,0-8.63-6.47,10.55,10.55,0,0,1-1.89-1.29c.12-.26.23-.52.34-.78a9.09,9.09,0,0,1,2.5.48c3.9,2,7.74,4,11.6,6.07a.8.8,0,0,1,.21.15C299,291.41,300,300.86,296.3,305.76Z"/><path class="cls-12" d="M247.93,248a24.2,24.2,0,0,1,3.88-2.51c5.73-2.34,11.48-4.69,17.34-6.66,2.09-.71,4.55-.44,6.83-.36.52,0,1,1.11,1.49,1.71Z"/><path class="cls-12" d="M209.85,107.92l-2.26.21c.74-6.87,2.68-13.83-1.63-20.19l6.56-.07,1.53.73c0,.27-.05.54-.08.81l-1,.86Z"/><path class="cls-2" d="M111.43,261.18c1.36-3.62,2.71-7.24,4.08-10.87l11,4.09c-4.28,1.82-7.91,3.3-11.46,4.93a21.77,21.77,0,0,0-3.21,2.2Z"/><path class="cls-9" d="M105.1,112.74l-6.92-7.57a6.54,6.54,0,0,1,6.17-1c1.5.45,3,1,4.47,1.46.31.1.64.35.92.3a14.76,14.76,0,0,0,1.8-.53,11.09,11.09,0,0,1-1.33,2.33C108.6,109.44,106.86,111,105.1,112.74Z"/><path class="cls-23" d="M290.39,229.1c2.51-2.95,4.85-6.06,7.56-8.8a45.87,45.87,0,0,1,6.53-5c2.29-1.6,4.7-3,7-4.56,1-.64.38-2.82,2.38-2.5l.48.41a162.5,162.5,0,0,1-23.89,21.19C290.46,229.6,290.43,229.35,290.39,229.1Z"/><path class="cls-19" d="M97.09,290.34c-4.37,6.65-4.83,14.75-8.15,21.74-1,2.17-3.18,3.81-4.81,5.7,2.07-5.18,4.13-10.36,6.22-15.54,1.4-3.49,2.73-7,4.31-10.42C95,291.1,96.25,290.82,97.09,290.34Z"/><path class="cls-19" d="M279.35,276.24a3.54,3.54,0,0,1-1-3.79,6.64,6.64,0,0,0-.09-3.42,40,40,0,0,1,.71-19.78,3.81,3.81,0,0,1,.48,1.08C280.27,259,280.67,267.61,279.35,276.24Z"/><path class="cls-6" d="M215.94,101.84c-1.44,2-.32,5.1-2.81,6.69a6.42,6.42,0,0,1-1.6,1c-.09-6.38,1.63-12.47,2.64-18.66a19.33,19.33,0,0,1,1.28,3.7C215.76,97,215.79,99.41,215.94,101.84Z"/><path class="cls-8" d="M155,240.83c1.45,1.56,3,3.08,4.32,4.72a10.72,10.72,0,0,1,1.16,2.35l0,1.4h-.93c-.05-.47.09-1.13-.18-1.4-4.68-4.68-9.41-9.31-14.11-14-.83-.82-1.55-1.76-2.32-2.64l.5-.47Z"/><path class="cls-9" d="M221,296.32c-.87.46-1.71,1-2.6,1.39-1.1.52-2.24,1-3.36,1.44l-6.55-1.76C211.49,295.4,217,295,221,296.32Z"/><path class="cls-11" d="M158,232.85l-4.27-4.76,10.87.78c0,.23,0,.45,0,.68-1.79.57-3.61,1-5.34,1.76-.57.23-.89,1.05-1.32,1.6Z"/><path class="cls-23" d="M289,216.81a5.73,5.73,0,0,1,4.52-4.08q6.42-1.53,13-2.44c-5.63,2.69-12.36,2.28-17.32,6.64Z"/><path class="cls-23" d="M215.94,101.84c-.15-2.43-.18-4.88-.49-7.3a19.33,19.33,0,0,0-1.28-3.7l-.11-.54-.09-.89c0-.27.05-.54.08-.81,3,1.6,4.39,4.35,3.59,7.58C217.16,98.09,216.51,100,215.94,101.84Z"/><path class="cls-1" d="M212.52,87.87l-6.56.07-3.91-2.1,4.76-1Z"/><path class="cls-19" d="M206.81,84.86l-4.76,1-4.27-4.56,3.83-.4Z"/><path class="cls-1" d="M102,261.23l6,3-1.76,3-4.8-4.63Z"/><path class="cls-8" d="M286,231.51v2.33l-3.37-3.06L279,226.27l.06.07q-1.21-1.89-2.44-3.77L277,222a13,13,0,0,1,2.52,1.9c1.58,1.9,2.95,4,4.5,5.9a13.27,13.27,0,0,0,2,1.74Z"/><path class="cls-23" d="M271,215.22l-10.27-4.38c4.06-2,7.25,1,10.58,2.77-.1.46-.23,1.07-.37,1.67Z"/><path class="cls-14" d="M75.55,252.87c-2.65,3.63-5.25,7.34-10.28,7.89,2.27-2.25,4.44-4.6,6.84-6.69C73,253.33,74.39,253.25,75.55,252.87Z"/><path class="cls-24" d="M281,278.14c4.58.5,8.94,2.69,10.9,5.31-3.59-1.37-7.29-2.77-11-4.22C280.82,279.2,281,278.64,281,278.14Z"/><path class="cls-7" d="M64.16,254.27l1.48,0c.46.31,1,.92,1.39.86a10.84,10.84,0,0,1,3.37-.39l-5.33,4.42-.91-.4Z"/><path class="cls-14" d="M115.75,216.59l3.92,2.64-1.1.51h-6.79Z"/><path class="cls-22" d="M146.5,157.83l-3.1-.63,1.37-7.74C145.39,152.43,145.94,155.13,146.5,157.83Z"/><path class="cls-25" d="M289.4,227.23c1.3-3.37,3.92-5.49,6.75-7.41l.58.55-7.12,7.06Z"/><path class="cls-7" d="M147.6,223.7l4.34-.38v3.12Z"/><path class="cls-7" d="M277.85,245.26,274,242.81l3.11-.95C277.38,243.08,277.62,244.17,277.85,245.26Z"/><path class="cls-2" d="M273.7,279.3l2.77,1.77Z"/><path class="cls-23" d="M72,227.67l-1.48,2.12Z"/><path class="cls-7" d="M290.39,229.1c0,.25.07.5.1.74l-1.51,1,0,.06C289.48,230.27,289.94,229.69,290.39,229.1Z"/><path class="cls-2" d="M277.22,281.49l1.58-.66C278.94,282.65,277.93,281.71,277.22,281.49Z"/><path class="cls-6" d="M214,89.41l.09.89-1.09,0Z"/><path class="cls-7" d="M166,229.69c-.24-.65-.39-.85-.36-1s.24-.25.38-.37c.12.17.34.34.35.53S166.17,229.22,166,229.69Z"/><path class="cls-8" d="M305.4,212.8l-.42.65a2,2,0,0,1-.24-.55c0-.07.22-.17.34-.26Z"/><path class="cls-8" d="M303.81,213.05c0,.33.06.54.08.75-.12-.09-.31-.15-.35-.26S303.66,213.3,303.81,213.05Z"/><path class="cls-23" d="M313.9,208.24l.82-.3c-.12.24-.23.48-.34.71Z"/><path class="cls-23" d="M289.17,216.93l-.49.54.3-.66Z"/><path class="cls-12" d="M218.65,100l-.44.9-.35-.15c.09-.36.17-.71.25-1.06Z"/><path class="cls-23" d="M76,223.59l-.9.72Z"/><path class="cls-15" d="M161.52,246.89l.51-.6Z"/><path class="cls-8" d="M289,228.09l-.27-.28A1,1,0,0,0,289,228.09Z"/><path class="cls-25" d="M289.61,227.43l-.63.66a1,1,0,0,1-.27-.28l.69-.58Z"/><path class="cls-15" d="M150.71,227.74l-.65-.48Z"/><path class="cls-23" d="M73.55,225.74l-.51.56Z"/><path class="cls-23" d="M75.07,224.31l-.56.47Z"/><path class="cls-26" d="M108.15,102.78c0,.27.07.54.1.81l-.88-.74Z"/><path class="cls-15" d="M141.84,223.7l-.78-.26Z"/><path class="cls-26" d="M107.37,102.85l.32-.54.46.47Z"/><path class="cls-14" d="M55.84,145.59l.65.5Z"/><path class="cls-7" d="M288.22,231.07l.8-.21,0-.06-.49.51Z"/><path class="cls-8" d="M174,306.74c-10.12-.12-25-6.16-26.39-10.77.24,0,.55-.17.68-.07,6.4,4.85,13.72,7.49,21.52,8.93,2.33.43,4.75.44,7.13.64Z"/><path class="cls-2" d="M179.05,303.19c0,.47,0,.94,0,1.41l-2,.17-.29-.28c-.23-1.23-.46-2.47-.65-3.46Z"/><path class="cls-9" d="M47.83,280.26l5.51,2.3c-2.47,5.34-5.16,10.13-6.9,15.23-2.34,6.85-3.93,13.94-5.84,20.93l-9,.81a27.34,27.34,0,0,1,.5-3.86c1.2-4.25,3.26-8.32,2.64-12.94l2.37-7.47L47,281.47Z"/><path class="cls-7" d="M37.09,295.26l-2.37,7.47C34.46,299.9,34.31,297.12,37.09,295.26Z"/><path class="cls-3" d="M177.74,107l9.73,5.28-.61,1.53a56,56,0,0,0-5.66-1.89A5,5,0,0,1,177.74,107Z"/><path class="cls-13" d="M196.33,104.93l-10.5-3.61C187.57,99.56,195.26,102.15,196.33,104.93Z"/><path class="cls-13" d="M184,132l1.44,2.22-5.33-.91c0-.49,0-1,0-1.49l-.06.07Z"/><path class="cls-8" d="M180.08,131.85c-.35-.11-1-.14-1-.35-.78-2.05.94-4.56,3.16-4.91L180,131.92Z"/><path class="cls-3" d="M132.2,81.84c.47-3.39,4.36-7.64,6.87-7.7C136.8,76.67,134.61,79.13,132.2,81.84Z"/><path class="cls-2" d="M155.81,31.14l.38-.58c.09.12.28.25.26.34a2.39,2.39,0,0,1-.31.56Z"/><path class="cls-1" d="M79.11,160.33c1.75,1.36,3.65,2.67,3.59,5.23-.1,4.78-.17,9.57-.44,14.35-.27,4.62-.77,9.24-1.16,13.86l-1.78.72V177.36l-.73-.06c-.1.79-.26,1.59-.31,2.39-.27,5-.23,10.1-.88,15.09-.52,3.91-1.55,8.05-4.72,10.72-3.65,3.07-5,6.84-5.17,11.34h-.62l-.85-.12c.18-1.91.33-3.82.54-5.72.11-1,.31-2.09.47-3.13l5.4-3.89c-.63-.68-.77-1-1-1a10,10,0,0,0-1.44-.21c1.45-5.85,3.31-11.64,4.22-17.57,1.17-7.59,1.58-15.3,2.3-23,.13-1.29.17-2.59.25-3.88q.9,3.19,1.78,6.4l.81-.13Z"/><path class="cls-3" d="M67.51,216.84c.14-4.5,1.52-8.27,5.17-11.34,3.17-2.67,4.2-6.81,4.72-10.72.65-5,.61-10.06.88-15.09,0-.8.21-1.6.31-2.39l.73.06v17.13l1.78-.72c0,.41.11.9-.07,1.24-.43.8-1,1.54-1.51,2.31-3.39,4.26-3.93,9.46-4.8,14.55-.24,2.3-.43,4.6-.75,6.89a4.78,4.78,0,0,1-.82,1.49c.08-4.52.17-9.05.25-13.4-3.77,2.58-4.76,6.71-4.37,11.42Z"/><path class="cls-3" d="M70.05,202.77a10,10,0,0,1,1.44.21c.19.06.33.33,1,1l-5.4,3.89-1.34.17-.26-.48,3.17-2.44c-.17-.18-.3-.38-.34-.37-5.94,2.72-12.52,3-18.67,4.72-6.88,2-13.89,4.11-19.51,8.94-1.57,1.36-2.81,3.11-4.61,4.65a9.12,9.12,0,0,1,.81-2.51c2.83-4.13,7-6.3,11.42-8.44,7.9-3.85,16.5-4.74,24.83-6.81C65.1,204.68,67.55,203.63,70.05,202.77Z"/><path class="cls-3" d="M66,216.73l.85.12c-.37.39-.7,1-1.13,1.13-7.74,1.52-11.12,7.5-13.59,13.91-2.8,7.28-3.09,15.06-3,22.82,0,.48,0,1,0,1.44l-.63.17a13.91,13.91,0,0,1-.83-3.59c.45-10.8.75-21.63,8.37-30.52A14.56,14.56,0,0,1,66,216.73Z"/><path class="cls-3" d="M48.1,216.79a31.29,31.29,0,0,0-3.61,2,62.16,62.16,0,0,0-18,20.51c-.53.93-1.92,1.37-2.91,2l0,0c0-4.46.81-8.78,4.95-11.26,5.8-3.47,10-8.78,15.46-12.63,1.31-.92,2.77-1.64,4.83-2.83l-.77,2.21ZM29.86,230.67c-2.62,1.94-4.77,4.17-4.26,8l4.5-7.81.31-.67Z"/><path class="cls-3" d="M87.26,177.11c-.74,3.86-1.4,7.28-2.05,10.71h-.62a10.84,10.84,0,0,1-.14-2.19c.35-2.45.71-4.91,1.24-7.34.34-1.56,1.23-2.72,3.14-2.43l29.94,4.53c.12,0,.2.24.86,1.07-5.76-.94-10.86-1.89-16-2.58C98.29,178.17,92.92,177.71,87.26,177.11Z"/><path class="cls-3" d="M77.13,311.73a43.63,43.63,0,0,1-1.57,4.37c-.17.37-1,.42-1.59.62,1.36-4.91,2.84-9.8,4-14.75,1.49-6.18,2.71-12.42,4.12-18.62a20.27,20.27,0,0,1,1.37-3.2l.71.26Z"/><path class="cls-3" d="M79.11,160.33l.3,4.3-.81.13q-.88-3.21-1.78-6.4A60.69,60.69,0,0,0,75,151c-1.58-4.11-4.06-7.53-8.51-9a9.25,9.25,0,0,1-1.79-1.19c.64-.31,1-.63,1.15-.55,3.17,1.45,6.47,2.39,8.48,5.91A40.55,40.55,0,0,1,79.11,160.33Z"/><path class="cls-8" d="M81.41,208.79l10.79,9.4c-5.18-.31-7-5.84-11.36-7.34-1.36,3.32-2.73,6.67-4.09,10l-.92-.4c1.49-4,2.07-8.44,5.47-11.66Z"/><path class="cls-1" d="M69,218.27c-.39-4.71.6-8.84,4.37-11.42-.08,4.35-.17,8.88-.25,13.4Z"/><path class="cls-13" d="M90.89,168.23c-.09-.77-.21-1.53-.26-2.3a4,4,0,0,0-.61-2.35q-1.3,5.8-2.6,11.59l-.59.07c-.21-.42-.66-.9-.59-1.27q1-5,2.2-9.94a4.83,4.83,0,0,1,1-2,10.84,10.84,0,0,1,1.91-1.41,7.38,7.38,0,0,1,.71,2.14c0,1.81-.16,3.62-.26,5.43Z"/><path class="cls-3" d="M101.68,194.35a3.65,3.65,0,0,1-3.65-3.6c-.09-2.13,2.26-4.25,4.86-4.38,1.53-.08,3.42,1.62,3.41,3A5.08,5.08,0,0,1,101.68,194.35Zm2.83-5.09c-.23-.23-.76-1.17-1.45-1.3-1.58-.32-3.74,1.39-3.4,2.7.24.9,1.26,2.22,2,2.24C103.3,193,104.58,192,104.51,189.26Z"/><path class="cls-13" d="M48.08,216.81a13.57,13.57,0,0,0,1.72-.46,8.71,8.71,0,0,1,3.21-.92c-6.5,3.26-9.88,9.62-14.48,14.73L38,229.7a5.74,5.74,0,0,1,.64-1.42c3.09-3.53,6.22-7,9.31-10.56.18-.21.14-.62.2-.93Z"/><path class="cls-8" d="M117.52,195.32c-4.4.75-8.79,1.52-13.19,2.25-.86.14-1.74.17-2.81.27,1-1.65,16.77-4.79,19.7-4l-3.76,1.49Z"/><path class="cls-1" d="M74.72,211.87c.87-5.09,1.41-10.29,4.8-14.55-.4,2.62-.47,5.35-1.28,7.85S75.93,209.65,74.72,211.87Z"/><path class="cls-3" d="M123.22,181.1c-1.22-2.25-2.47-4.49-3.64-6.77s-2.24-4.51-3.6-7.26c.93.52,1.9.75,2.33,1.36a28.91,28.91,0,0,1,2.69,4.72c1.11,2.44,2,5,3,7.45Z"/><path class="cls-3" d="M81.41,208.79l-.11,0c-.16-.28-.48-.57-.45-.83q.91-7.89,1.93-15.77a10.37,10.37,0,0,1,1-2.05,11.44,11.44,0,0,1,.29,2.19q-1,7.89-2.11,15.76C81.94,208.36,81.6,208.56,81.41,208.79Z"/><path class="cls-8" d="M100.76,197,84,189.72c.12-.3.23-.6.35-.91,1.82.66,3.68,1.23,5.45,2,2,.85,3.81,2,5.77,2.84s3.8,1.53,5.7,2.29Z"/><path class="cls-13" d="M119.55,192.1l2.35-10.32C123.43,183.23,121.7,190.57,119.55,192.1Z"/><path class="cls-8" d="M96.06,272.3c-.67,1.91-1.3,3.82-2,5.69-.09.23-.86.18-1.31.26C93.5,276.08,93.56,273.5,96.06,272.3Z"/><path class="cls-13" d="M86.68,274.75l3.54-4.92,1,.74-3.66,4.79Z"/><path class="cls-13" d="M81.06,307.21c2,1.82,1.93,3.3-.34,5.29v-3.25C80.83,308.57,81,307.89,81.06,307.21Z"/><path class="cls-3" d="M202,264.74c-6.55.45-13.12.7-19.64,1.42s-13.1,2-19.66,2.92-12.75,3.74-19.62,3.16c2.7-2.89,51.56-9.61,58.87-8.19Z"/><path class="cls-8" d="M179.05,303.19l-3-2.16c.19,1,.42,2.23.65,3.46-2.21-.87-3.06-3.47-1.51-5.05.39-.4,1.39-.24,2.11-.25.17,0,.36.31.51.51,1.26,1.58,2.61,3.26,4.89,2.47,2-.71,3.59-4.54,3.18-7.08-.44-2.8.21-3.9,3-3.79,4.6.19,9.19.78,13.79,1.21.57.06,1.13.19,1.7.29-.52,2.08-2.09.87-3.1.83-3.71-.12-7.41-.52-11.12-.71a16.82,16.82,0,0,0-3.11.42c.66,3.85.44,7.39-2.87,9.53C183,303.68,180.81,303.12,179.05,303.19Z"/><path class="cls-8" d="M142.38,303.23l-40.71,6.46-.13-.64c6.46-2.53,13.36-2.92,20.19-3.83s13.62-2.2,20.43-3.32C142.23,302.34,142.31,302.79,142.38,303.23Z"/><path class="cls-3" d="M204.84,263.29c4.79.63,9.73,1.74,13.85,4,6.26,3.4,9.52,10,13.73,15.46l-.71.68c-.53-.55-1.11-1.06-1.6-1.65-3.29-3.93-6.49-7.94-9.9-11.76a8.85,8.85,0,0,0-3.77-2.16c-3.89-1.28-7.84-2.36-11.77-3.52Z"/><path class="cls-8" d="M100.8,301.09l30.71-3.72C129.29,300.33,106.55,302.76,100.8,301.09Z"/><path class="cls-8" d="M186.29,273.12l-37.77,7.24c-.08-.38-.15-.76-.23-1.14L186,272Z"/><path class="cls-8" d="M154,282.2l21.73-4.86.24,1.07-21.71,4.92C154.18,283,154.1,282.58,154,282.2Z"/><path class="cls-13" d="M99.38,317.2c-2.77-3-4.8-15.33-3.3-17Q97.72,308.73,99.38,317.2Z"/><path class="cls-8" d="M130.89,283.38l10.89-2.24.24,1-10.8,2.37Z"/><path class="cls-13" d="M132.53,296.42c2.8-1.76,5.86-1,8.86-.87,0,.3.06.61.08.91l-8.85.74Z"/><path class="cls-8" d="M145.36,301.91l9.38,4.68-.42.93L144.93,303Z"/><path class="cls-8" d="M253,239.08l.94,2.07-4.93-2.3-22.6-12.27.21-1.07a6.83,6.83,0,0,1,2.21.33C236.87,230.22,244.92,234.66,253,239.08Z"/><path class="cls-3" d="M258.34,235.6c-7.75-2.29-13.91-7.8-21.62-10.29l.56-1.11C245.05,226.45,251.47,231.43,258.34,235.6Z"/><path class="cls-8" d="M237.49,228.11c2.58-.88,9.22,2.94,10.75,6.06Z"/><path class="cls-3" d="M143.51,212.72l6.92-1.89c.11.25.22.5.32.75l-5.32,2.57,4.08.48c0,.3,0,.61,0,.92L144,216l-3.49-.47Z"/><path class="cls-3" d="M274.39,227.77c-6.73-2.85-13.46-5.74-20.21-8.56-4.18-1.75-8.42-3.36-12.58-5.15-.54-.24-.78-1.16-1.16-1.76q16.38,7,32.75,14C273.71,226.48,274,227.26,274.39,227.77Z"/><path class="cls-8" d="M279,226.27c-.2,2.26-1.28.73-1.93.4-4.69-2.41-9.28-5-14.05-7.24-2.55-1.18-5.41-1.69-8.2-3.06a9.23,9.23,0,0,1,2.2-.19c6.7,1,12.4,4.33,18.05,7.79,1.32.8,2.66,1.58,4,2.37Z"/><path class="cls-24" d="M30.1,230.81l-4.5,7.81c-.51-3.78,1.64-6,4.26-8A1.49,1.49,0,0,1,30.1,230.81Z"/><path class="cls-24" d="M29.86,230.67l.55-.53-.31.67A1.49,1.49,0,0,0,29.86,230.67Z"/><path class="cls-7" d="M104.51,189.26c.07,2.71-1.21,3.7-2.88,3.64-.71,0-1.73-1.34-2-2.24-.34-1.31,1.82-3,3.4-2.7C103.75,188.09,104.28,189,104.51,189.26Z"/></g></g></svg>